<mxfile host="app.diagrams.net" agent="Mozilla/5.0 (Macintosh; Intel Mac OS X 10_15_7) AppleWebKit/537.36 (KHTML, like Gecko) Chrome/140.0.0.0 Safari/537.36" version="28.2.0">
  <diagram id="sP4caIvhJPXyDMog1elT" name="PÃ¡gina-1">
    <mxGraphModel dx="6975" dy="3320" grid="1" gridSize="10" guides="1" tooltips="1" connect="1" arrows="1" fold="1" page="1" pageScale="1" pageWidth="827" pageHeight="1169" math="0" shadow="0">
      <root>
        <mxCell id="0" />
        <mxCell id="1" parent="0" />
        <mxCell id="DthyEMG1it-dov7D85Fx-12" style="edgeStyle=orthogonalEdgeStyle;rounded=0;orthogonalLoop=1;jettySize=auto;html=1;exitX=0;exitY=0.5;exitDx=0;exitDy=0;entryX=0.5;entryY=0;entryDx=0;entryDy=0;" edge="1" parent="1" source="9lTwTegsTvdZWJjUO4Bg-1" target="DthyEMG1it-dov7D85Fx-3">
          <mxGeometry relative="1" as="geometry" />
        </mxCell>
        <mxCell id="DthyEMG1it-dov7D85Fx-43" style="edgeStyle=orthogonalEdgeStyle;rounded=0;orthogonalLoop=1;jettySize=auto;html=1;exitX=1;exitY=0.5;exitDx=0;exitDy=0;entryX=0.5;entryY=0;entryDx=0;entryDy=0;" edge="1" parent="1" source="9lTwTegsTvdZWJjUO4Bg-1" target="DthyEMG1it-dov7D85Fx-13">
          <mxGeometry relative="1" as="geometry" />
        </mxCell>
        <mxCell id="9lTwTegsTvdZWJjUO4Bg-1" value="html" style="ellipse;whiteSpace=wrap;html=1;fillColor=light-dark(#FFFFFF,#000066);strokeColor=light-dark(#000000,#000000);" parent="1" vertex="1">
          <mxGeometry x="360" width="40" height="40" as="geometry" />
        </mxCell>
        <mxCell id="DthyEMG1it-dov7D85Fx-9" style="edgeStyle=orthogonalEdgeStyle;rounded=0;orthogonalLoop=1;jettySize=auto;html=1;exitX=0;exitY=0.5;exitDx=0;exitDy=0;entryX=0.5;entryY=0;entryDx=0;entryDy=0;" edge="1" parent="1" source="DthyEMG1it-dov7D85Fx-3" target="DthyEMG1it-dov7D85Fx-6">
          <mxGeometry relative="1" as="geometry" />
        </mxCell>
        <mxCell id="DthyEMG1it-dov7D85Fx-3" value="head" style="ellipse;whiteSpace=wrap;html=1;fillColor=light-dark(#FFFFFF,#000066);strokeColor=light-dark(#000000,#000000);" vertex="1" parent="1">
          <mxGeometry x="320" y="40" width="40" height="40" as="geometry" />
        </mxCell>
        <mxCell id="DthyEMG1it-dov7D85Fx-4" value="meta" style="ellipse;whiteSpace=wrap;html=1;fillColor=light-dark(#FFFFFF,#000066);strokeColor=light-dark(#000000,#000000);" vertex="1" parent="1">
          <mxGeometry x="280" y="80" width="40" height="40" as="geometry" />
        </mxCell>
        <mxCell id="DthyEMG1it-dov7D85Fx-5" value="meta" style="ellipse;whiteSpace=wrap;html=1;fillColor=light-dark(#FFFFFF,#000066);strokeColor=light-dark(#000000,#000000);" vertex="1" parent="1">
          <mxGeometry x="270" y="80" width="40" height="40" as="geometry" />
        </mxCell>
        <mxCell id="DthyEMG1it-dov7D85Fx-31" style="edgeStyle=orthogonalEdgeStyle;rounded=0;orthogonalLoop=1;jettySize=auto;html=1;exitX=0;exitY=0.5;exitDx=0;exitDy=0;entryX=1;entryY=0.5;entryDx=0;entryDy=0;" edge="1" parent="1" source="DthyEMG1it-dov7D85Fx-6" target="DthyEMG1it-dov7D85Fx-7">
          <mxGeometry relative="1" as="geometry" />
        </mxCell>
        <mxCell id="DthyEMG1it-dov7D85Fx-6" value="meta" style="ellipse;whiteSpace=wrap;html=1;fillColor=light-dark(#FFFFFF,#000066);strokeColor=light-dark(#000000,#000000);" vertex="1" parent="1">
          <mxGeometry x="260" y="80" width="40" height="40" as="geometry" />
        </mxCell>
        <mxCell id="DthyEMG1it-dov7D85Fx-32" style="edgeStyle=orthogonalEdgeStyle;rounded=0;orthogonalLoop=1;jettySize=auto;html=1;exitX=0;exitY=0.5;exitDx=0;exitDy=0;entryX=1;entryY=0.5;entryDx=0;entryDy=0;" edge="1" parent="1" source="DthyEMG1it-dov7D85Fx-7" target="DthyEMG1it-dov7D85Fx-8">
          <mxGeometry relative="1" as="geometry" />
        </mxCell>
        <mxCell id="DthyEMG1it-dov7D85Fx-7" value="title" style="ellipse;whiteSpace=wrap;html=1;fillColor=light-dark(#FFFFFF,#000066);strokeColor=light-dark(#000000,#000000);" vertex="1" parent="1">
          <mxGeometry x="200" y="80" width="40" height="40" as="geometry" />
        </mxCell>
        <mxCell id="DthyEMG1it-dov7D85Fx-8" value="style" style="ellipse;whiteSpace=wrap;html=1;fillColor=light-dark(#FFFFFF,#000066);strokeColor=light-dark(#000000,#000000);" vertex="1" parent="1">
          <mxGeometry x="140" y="80" width="40" height="40" as="geometry" />
        </mxCell>
        <mxCell id="DthyEMG1it-dov7D85Fx-13" value="body" style="ellipse;whiteSpace=wrap;html=1;fillColor=light-dark(#FFFFFF,#000066);strokeColor=light-dark(#000000,#000000);" vertex="1" parent="1">
          <mxGeometry x="400" y="40" width="40" height="40" as="geometry" />
        </mxCell>
        <mxCell id="DthyEMG1it-dov7D85Fx-33" style="edgeStyle=orthogonalEdgeStyle;rounded=0;orthogonalLoop=1;jettySize=auto;html=1;exitX=0;exitY=0.5;exitDx=0;exitDy=0;entryX=1;entryY=0.5;entryDx=0;entryDy=0;" edge="1" parent="1" source="DthyEMG1it-dov7D85Fx-14" target="DthyEMG1it-dov7D85Fx-15">
          <mxGeometry relative="1" as="geometry" />
        </mxCell>
        <mxCell id="DthyEMG1it-dov7D85Fx-57" style="edgeStyle=orthogonalEdgeStyle;rounded=0;orthogonalLoop=1;jettySize=auto;html=1;entryX=0.5;entryY=0;entryDx=0;entryDy=0;" edge="1" parent="1" source="DthyEMG1it-dov7D85Fx-14" target="DthyEMG1it-dov7D85Fx-51">
          <mxGeometry relative="1" as="geometry" />
        </mxCell>
        <mxCell id="DthyEMG1it-dov7D85Fx-14" value="header&lt;span style=&quot;color: rgba(0, 0, 0, 0); font-family: monospace; font-size: 0px; text-align: start; text-wrap-mode: nowrap;&quot;&gt;%3CmxGraphModel%3E%3Croot%3E%3CmxCell%20id%3D%220%22%2F%3E%3CmxCell%20id%3D%221%22%20parent%3D%220%22%2F%3E%3CmxCell%20id%3D%222%22%20value%3D%22body%22%20style%3D%22ellipse%3BwhiteSpace%3Dwrap%3Bhtml%3D1%3BfillColor%3Dlight-dark(%23FFFFFF%2C%23000066)%3BstrokeColor%3Dlight-dark(%23000000%2C%23000000)%3B%22%20vertex%3D%221%22%20parent%3D%221%22%3E%3CmxGeometry%20x%3D%22400%22%20y%3D%2240%22%20width%3D%2240%22%20height%3D%2240%22%20as%3D%22geometry%22%2F%3E%3C%2FmxCell%3E%3C%2Froot%3E%3C%2FmxGraphModel%3E&lt;/span&gt;" style="ellipse;whiteSpace=wrap;html=1;fillColor=light-dark(#FFFFFF,#000066);strokeColor=light-dark(#000000,#000000);" vertex="1" parent="1">
          <mxGeometry x="350" y="160" width="40" height="40" as="geometry" />
        </mxCell>
        <mxCell id="DthyEMG1it-dov7D85Fx-34" style="edgeStyle=orthogonalEdgeStyle;rounded=0;orthogonalLoop=1;jettySize=auto;html=1;exitX=0;exitY=0.5;exitDx=0;exitDy=0;entryX=1;entryY=0.5;entryDx=0;entryDy=0;" edge="1" parent="1" source="DthyEMG1it-dov7D85Fx-15" target="DthyEMG1it-dov7D85Fx-16">
          <mxGeometry relative="1" as="geometry" />
        </mxCell>
        <mxCell id="DthyEMG1it-dov7D85Fx-107" style="edgeStyle=orthogonalEdgeStyle;rounded=0;orthogonalLoop=1;jettySize=auto;html=1;exitX=0.5;exitY=1;exitDx=0;exitDy=0;entryX=0.5;entryY=0;entryDx=0;entryDy=0;" edge="1" parent="1" source="DthyEMG1it-dov7D85Fx-15" target="DthyEMG1it-dov7D85Fx-102">
          <mxGeometry relative="1" as="geometry" />
        </mxCell>
        <mxCell id="DthyEMG1it-dov7D85Fx-15" value="main" style="ellipse;whiteSpace=wrap;html=1;fillColor=light-dark(#FFFFFF,#000066);strokeColor=light-dark(#000000,#000000);" vertex="1" parent="1">
          <mxGeometry x="300" y="160" width="40" height="40" as="geometry" />
        </mxCell>
        <mxCell id="DthyEMG1it-dov7D85Fx-35" style="edgeStyle=orthogonalEdgeStyle;rounded=0;orthogonalLoop=1;jettySize=auto;html=1;exitX=0;exitY=0.5;exitDx=0;exitDy=0;entryX=1;entryY=0.5;entryDx=0;entryDy=0;" edge="1" parent="1" source="DthyEMG1it-dov7D85Fx-16" target="DthyEMG1it-dov7D85Fx-17">
          <mxGeometry relative="1" as="geometry" />
        </mxCell>
        <mxCell id="DthyEMG1it-dov7D85Fx-45" style="edgeStyle=orthogonalEdgeStyle;rounded=0;orthogonalLoop=1;jettySize=auto;html=1;exitX=0.5;exitY=1;exitDx=0;exitDy=0;entryX=0.5;entryY=0;entryDx=0;entryDy=0;" edge="1" parent="1" source="DthyEMG1it-dov7D85Fx-16" target="DthyEMG1it-dov7D85Fx-44">
          <mxGeometry relative="1" as="geometry" />
        </mxCell>
        <mxCell id="DthyEMG1it-dov7D85Fx-16" value="footer" style="ellipse;whiteSpace=wrap;html=1;fillColor=light-dark(#FFFFFF,#000066);strokeColor=light-dark(#000000,#000000);" vertex="1" parent="1">
          <mxGeometry x="250" y="160" width="40" height="40" as="geometry" />
        </mxCell>
        <mxCell id="DthyEMG1it-dov7D85Fx-36" style="edgeStyle=orthogonalEdgeStyle;rounded=0;orthogonalLoop=1;jettySize=auto;html=1;exitX=0;exitY=0.5;exitDx=0;exitDy=0;entryX=1;entryY=0.5;entryDx=0;entryDy=0;" edge="1" parent="1" source="DthyEMG1it-dov7D85Fx-17" target="DthyEMG1it-dov7D85Fx-18">
          <mxGeometry relative="1" as="geometry" />
        </mxCell>
        <mxCell id="DthyEMG1it-dov7D85Fx-41" style="edgeStyle=orthogonalEdgeStyle;rounded=0;orthogonalLoop=1;jettySize=auto;html=1;exitX=0.5;exitY=1;exitDx=0;exitDy=0;entryX=0.5;entryY=0;entryDx=0;entryDy=0;" edge="1" parent="1" source="DthyEMG1it-dov7D85Fx-17" target="DthyEMG1it-dov7D85Fx-37">
          <mxGeometry relative="1" as="geometry" />
        </mxCell>
        <mxCell id="DthyEMG1it-dov7D85Fx-17" value="section" style="ellipse;whiteSpace=wrap;html=1;fillColor=light-dark(#FFFFFF,#000066);strokeColor=light-dark(#000000,#000000);" vertex="1" parent="1">
          <mxGeometry x="200" y="160" width="40" height="40" as="geometry" />
        </mxCell>
        <mxCell id="DthyEMG1it-dov7D85Fx-18" value="script" style="ellipse;whiteSpace=wrap;html=1;fillColor=light-dark(#FFFFFF,#000066);strokeColor=light-dark(#000000,#000000);" vertex="1" parent="1">
          <mxGeometry x="150" y="160" width="40" height="40" as="geometry" />
        </mxCell>
        <mxCell id="DthyEMG1it-dov7D85Fx-26" style="edgeStyle=orthogonalEdgeStyle;rounded=0;orthogonalLoop=1;jettySize=auto;html=1;exitX=0;exitY=0.5;exitDx=0;exitDy=0;entryX=0.5;entryY=0;entryDx=0;entryDy=0;" edge="1" parent="1" source="DthyEMG1it-dov7D85Fx-13" target="DthyEMG1it-dov7D85Fx-14">
          <mxGeometry relative="1" as="geometry" />
        </mxCell>
        <mxCell id="DthyEMG1it-dov7D85Fx-42" style="edgeStyle=orthogonalEdgeStyle;rounded=0;orthogonalLoop=1;jettySize=auto;html=1;exitX=0.5;exitY=1;exitDx=0;exitDy=0;entryX=0.5;entryY=0;entryDx=0;entryDy=0;" edge="1" parent="1" source="DthyEMG1it-dov7D85Fx-37" target="DthyEMG1it-dov7D85Fx-40">
          <mxGeometry relative="1" as="geometry" />
        </mxCell>
        <mxCell id="DthyEMG1it-dov7D85Fx-37" value="ul" style="ellipse;whiteSpace=wrap;html=1;fillColor=light-dark(#FFFFFF,#000066);strokeColor=light-dark(#000000,#000000);" vertex="1" parent="1">
          <mxGeometry x="200" y="210" width="40" height="40" as="geometry" />
        </mxCell>
        <mxCell id="DthyEMG1it-dov7D85Fx-38" value="li" style="ellipse;whiteSpace=wrap;html=1;fillColor=light-dark(#FFFFFF,#000066);strokeColor=light-dark(#000000,#000000);" vertex="1" parent="1">
          <mxGeometry x="200" y="260" width="40" height="40" as="geometry" />
        </mxCell>
        <mxCell id="DthyEMG1it-dov7D85Fx-39" value="li" style="ellipse;whiteSpace=wrap;html=1;fillColor=light-dark(#FFFFFF,#000066);strokeColor=light-dark(#000000,#000000);" vertex="1" parent="1">
          <mxGeometry x="190" y="260" width="40" height="40" as="geometry" />
        </mxCell>
        <mxCell id="DthyEMG1it-dov7D85Fx-40" value="li" style="ellipse;whiteSpace=wrap;html=1;fillColor=light-dark(#FFFFFF,#000066);strokeColor=light-dark(#000000,#000000);" vertex="1" parent="1">
          <mxGeometry x="180" y="260" width="40" height="40" as="geometry" />
        </mxCell>
        <mxCell id="DthyEMG1it-dov7D85Fx-47" style="edgeStyle=orthogonalEdgeStyle;rounded=0;orthogonalLoop=1;jettySize=auto;html=1;exitX=0;exitY=0.5;exitDx=0;exitDy=0;entryX=1;entryY=0.5;entryDx=0;entryDy=0;" edge="1" parent="1" source="DthyEMG1it-dov7D85Fx-44" target="DthyEMG1it-dov7D85Fx-46">
          <mxGeometry relative="1" as="geometry" />
        </mxCell>
        <mxCell id="DthyEMG1it-dov7D85Fx-44" value="p" style="ellipse;whiteSpace=wrap;html=1;fillColor=light-dark(#FFFFFF,#000066);strokeColor=light-dark(#000000,#000000);" vertex="1" parent="1">
          <mxGeometry x="250" y="310" width="40" height="40" as="geometry" />
        </mxCell>
        <mxCell id="DthyEMG1it-dov7D85Fx-50" style="edgeStyle=orthogonalEdgeStyle;rounded=0;orthogonalLoop=1;jettySize=auto;html=1;exitX=0.5;exitY=1;exitDx=0;exitDy=0;entryX=0.5;entryY=0;entryDx=0;entryDy=0;" edge="1" parent="1" source="DthyEMG1it-dov7D85Fx-46" target="DthyEMG1it-dov7D85Fx-49">
          <mxGeometry relative="1" as="geometry" />
        </mxCell>
        <mxCell id="DthyEMG1it-dov7D85Fx-46" value="address" style="ellipse;whiteSpace=wrap;html=1;fillColor=light-dark(#FFFFFF,#000066);strokeColor=light-dark(#000000,#000000);" vertex="1" parent="1">
          <mxGeometry x="200" y="310" width="40" height="40" as="geometry" />
        </mxCell>
        <mxCell id="DthyEMG1it-dov7D85Fx-48" value="p" style="ellipse;whiteSpace=wrap;html=1;fillColor=light-dark(#FFFFFF,#000066);strokeColor=light-dark(#000000,#000000);" vertex="1" parent="1">
          <mxGeometry x="200" y="370" width="40" height="40" as="geometry" />
        </mxCell>
        <mxCell id="DthyEMG1it-dov7D85Fx-49" value="p" style="ellipse;whiteSpace=wrap;html=1;fillColor=light-dark(#FFFFFF,#000066);strokeColor=light-dark(#000000,#000000);" vertex="1" parent="1">
          <mxGeometry x="190" y="370" width="40" height="40" as="geometry" />
        </mxCell>
        <mxCell id="DthyEMG1it-dov7D85Fx-58" style="edgeStyle=orthogonalEdgeStyle;rounded=0;orthogonalLoop=1;jettySize=auto;html=1;exitX=0.5;exitY=1;exitDx=0;exitDy=0;entryX=0.5;entryY=0;entryDx=0;entryDy=0;" edge="1" parent="1" source="DthyEMG1it-dov7D85Fx-51" target="DthyEMG1it-dov7D85Fx-52">
          <mxGeometry relative="1" as="geometry" />
        </mxCell>
        <mxCell id="DthyEMG1it-dov7D85Fx-51" value="div" style="ellipse;whiteSpace=wrap;html=1;fillColor=light-dark(#FFFFFF,#000066);strokeColor=light-dark(#000000,#000000);" vertex="1" parent="1">
          <mxGeometry x="350" y="210" width="40" height="40" as="geometry" />
        </mxCell>
        <mxCell id="DthyEMG1it-dov7D85Fx-52" value="a" style="ellipse;whiteSpace=wrap;html=1;fillColor=light-dark(#FFFFFF,#000066);strokeColor=light-dark(#000000,#000000);" vertex="1" parent="1">
          <mxGeometry x="350" y="260" width="40" height="40" as="geometry" />
        </mxCell>
        <mxCell id="DthyEMG1it-dov7D85Fx-60" style="edgeStyle=orthogonalEdgeStyle;rounded=0;orthogonalLoop=1;jettySize=auto;html=1;exitX=1;exitY=0.5;exitDx=0;exitDy=0;entryX=0;entryY=0.5;entryDx=0;entryDy=0;" edge="1" parent="1" source="DthyEMG1it-dov7D85Fx-53" target="DthyEMG1it-dov7D85Fx-54">
          <mxGeometry relative="1" as="geometry" />
        </mxCell>
        <mxCell id="DthyEMG1it-dov7D85Fx-53" value="h1" style="ellipse;whiteSpace=wrap;html=1;fillColor=light-dark(#FFFFFF,#000066);strokeColor=light-dark(#000000,#000000);" vertex="1" parent="1">
          <mxGeometry x="410" y="260" width="40" height="40" as="geometry" />
        </mxCell>
        <mxCell id="DthyEMG1it-dov7D85Fx-61" style="edgeStyle=orthogonalEdgeStyle;rounded=0;orthogonalLoop=1;jettySize=auto;html=1;exitX=1;exitY=0.5;exitDx=0;exitDy=0;entryX=0;entryY=0.5;entryDx=0;entryDy=0;" edge="1" parent="1" source="DthyEMG1it-dov7D85Fx-54" target="DthyEMG1it-dov7D85Fx-55">
          <mxGeometry relative="1" as="geometry" />
        </mxCell>
        <mxCell id="DthyEMG1it-dov7D85Fx-54" value="p" style="ellipse;whiteSpace=wrap;html=1;fillColor=light-dark(#FFFFFF,#000066);strokeColor=light-dark(#000000,#000000);" vertex="1" parent="1">
          <mxGeometry x="460" y="260" width="40" height="40" as="geometry" />
        </mxCell>
        <mxCell id="DthyEMG1it-dov7D85Fx-62" style="edgeStyle=orthogonalEdgeStyle;rounded=0;orthogonalLoop=1;jettySize=auto;html=1;exitX=1;exitY=0.5;exitDx=0;exitDy=0;entryX=0;entryY=0.5;entryDx=0;entryDy=0;" edge="1" parent="1" source="DthyEMG1it-dov7D85Fx-55" target="DthyEMG1it-dov7D85Fx-56">
          <mxGeometry relative="1" as="geometry" />
        </mxCell>
        <mxCell id="DthyEMG1it-dov7D85Fx-55" value="nav" style="ellipse;whiteSpace=wrap;html=1;fillColor=light-dark(#FFFFFF,#000066);strokeColor=light-dark(#000000,#000000);" vertex="1" parent="1">
          <mxGeometry x="510" y="260" width="40" height="40" as="geometry" />
        </mxCell>
        <mxCell id="DthyEMG1it-dov7D85Fx-71" style="edgeStyle=orthogonalEdgeStyle;rounded=0;orthogonalLoop=1;jettySize=auto;html=1;exitX=0.5;exitY=1;exitDx=0;exitDy=0;entryX=0.5;entryY=0;entryDx=0;entryDy=0;" edge="1" parent="1" source="DthyEMG1it-dov7D85Fx-55" target="DthyEMG1it-dov7D85Fx-63">
          <mxGeometry relative="1" as="geometry" />
        </mxCell>
        <mxCell id="DthyEMG1it-dov7D85Fx-86" style="edgeStyle=orthogonalEdgeStyle;rounded=0;orthogonalLoop=1;jettySize=auto;html=1;exitX=0.5;exitY=1;exitDx=0;exitDy=0;entryX=0.5;entryY=0;entryDx=0;entryDy=0;" edge="1" parent="1" source="DthyEMG1it-dov7D85Fx-56" target="DthyEMG1it-dov7D85Fx-82">
          <mxGeometry relative="1" as="geometry" />
        </mxCell>
        <mxCell id="DthyEMG1it-dov7D85Fx-56" value="nav" style="ellipse;whiteSpace=wrap;html=1;fillColor=light-dark(#FFFFFF,#000066);strokeColor=light-dark(#000000,#000000);" vertex="1" parent="1">
          <mxGeometry x="560" y="260" width="40" height="40" as="geometry" />
        </mxCell>
        <mxCell id="DthyEMG1it-dov7D85Fx-59" style="edgeStyle=orthogonalEdgeStyle;rounded=0;orthogonalLoop=1;jettySize=auto;html=1;exitX=1;exitY=0.5;exitDx=0;exitDy=0;entryX=-0.095;entryY=0.523;entryDx=0;entryDy=0;entryPerimeter=0;" edge="1" parent="1" source="DthyEMG1it-dov7D85Fx-52" target="DthyEMG1it-dov7D85Fx-53">
          <mxGeometry relative="1" as="geometry" />
        </mxCell>
        <mxCell id="DthyEMG1it-dov7D85Fx-72" style="edgeStyle=orthogonalEdgeStyle;rounded=0;orthogonalLoop=1;jettySize=auto;html=1;exitX=0.5;exitY=1;exitDx=0;exitDy=0;entryX=0.5;entryY=0;entryDx=0;entryDy=0;" edge="1" parent="1" source="DthyEMG1it-dov7D85Fx-63" target="DthyEMG1it-dov7D85Fx-64">
          <mxGeometry relative="1" as="geometry" />
        </mxCell>
        <mxCell id="DthyEMG1it-dov7D85Fx-63" value="ul" style="ellipse;whiteSpace=wrap;html=1;fillColor=light-dark(#FFFFFF,#000066);strokeColor=light-dark(#000000,#000000);" vertex="1" parent="1">
          <mxGeometry x="510" y="570" width="40" height="40" as="geometry" />
        </mxCell>
        <mxCell id="DthyEMG1it-dov7D85Fx-73" style="edgeStyle=orthogonalEdgeStyle;rounded=0;orthogonalLoop=1;jettySize=auto;html=1;exitX=1;exitY=0.5;exitDx=0;exitDy=0;entryX=0;entryY=0.5;entryDx=0;entryDy=0;" edge="1" parent="1" source="DthyEMG1it-dov7D85Fx-64" target="DthyEMG1it-dov7D85Fx-65">
          <mxGeometry relative="1" as="geometry" />
        </mxCell>
        <mxCell id="DthyEMG1it-dov7D85Fx-81" style="edgeStyle=orthogonalEdgeStyle;rounded=0;orthogonalLoop=1;jettySize=auto;html=1;exitX=0.5;exitY=1;exitDx=0;exitDy=0;entryX=0.5;entryY=0;entryDx=0;entryDy=0;" edge="1" parent="1" source="DthyEMG1it-dov7D85Fx-64" target="DthyEMG1it-dov7D85Fx-77">
          <mxGeometry relative="1" as="geometry" />
        </mxCell>
        <mxCell id="DthyEMG1it-dov7D85Fx-64" value="li" style="ellipse;whiteSpace=wrap;html=1;fillColor=light-dark(#FFFFFF,#000066);strokeColor=light-dark(#000000,#000000);" vertex="1" parent="1">
          <mxGeometry x="510" y="630" width="40" height="40" as="geometry" />
        </mxCell>
        <mxCell id="DthyEMG1it-dov7D85Fx-74" style="edgeStyle=orthogonalEdgeStyle;rounded=0;orthogonalLoop=1;jettySize=auto;html=1;exitX=0.5;exitY=1;exitDx=0;exitDy=0;entryX=0.5;entryY=0;entryDx=0;entryDy=0;" edge="1" parent="1" source="DthyEMG1it-dov7D85Fx-65" target="DthyEMG1it-dov7D85Fx-66">
          <mxGeometry relative="1" as="geometry" />
        </mxCell>
        <mxCell id="DthyEMG1it-dov7D85Fx-65" value="li" style="ellipse;whiteSpace=wrap;html=1;fillColor=light-dark(#FFFFFF,#000066);strokeColor=light-dark(#000000,#000000);" vertex="1" parent="1">
          <mxGeometry x="560" y="630" width="40" height="40" as="geometry" />
        </mxCell>
        <mxCell id="DthyEMG1it-dov7D85Fx-75" style="edgeStyle=orthogonalEdgeStyle;rounded=0;orthogonalLoop=1;jettySize=auto;html=1;exitX=0.5;exitY=1;exitDx=0;exitDy=0;entryX=0.5;entryY=0;entryDx=0;entryDy=0;" edge="1" parent="1" source="DthyEMG1it-dov7D85Fx-66" target="DthyEMG1it-dov7D85Fx-70">
          <mxGeometry relative="1" as="geometry" />
        </mxCell>
        <mxCell id="DthyEMG1it-dov7D85Fx-66" value="ul" style="ellipse;whiteSpace=wrap;html=1;fillColor=light-dark(#FFFFFF,#000066);strokeColor=light-dark(#000000,#000000);" vertex="1" parent="1">
          <mxGeometry x="560" y="680" width="40" height="40" as="geometry" />
        </mxCell>
        <mxCell id="DthyEMG1it-dov7D85Fx-67" value="li" style="ellipse;whiteSpace=wrap;html=1;fillColor=light-dark(#FFFFFF,#000066);strokeColor=light-dark(#000000,#000000);" vertex="1" parent="1">
          <mxGeometry x="560" y="730" width="40" height="40" as="geometry" />
        </mxCell>
        <mxCell id="DthyEMG1it-dov7D85Fx-68" value="li" style="ellipse;whiteSpace=wrap;html=1;fillColor=light-dark(#FFFFFF,#000066);strokeColor=light-dark(#000000,#000000);" vertex="1" parent="1">
          <mxGeometry x="570" y="730" width="40" height="40" as="geometry" />
        </mxCell>
        <mxCell id="DthyEMG1it-dov7D85Fx-70" value="li" style="ellipse;whiteSpace=wrap;html=1;fillColor=light-dark(#FFFFFF,#000066);strokeColor=light-dark(#000000,#000000);" vertex="1" parent="1">
          <mxGeometry x="580" y="730" width="40" height="40" as="geometry" />
        </mxCell>
        <mxCell id="DthyEMG1it-dov7D85Fx-76" style="edgeStyle=orthogonalEdgeStyle;rounded=0;orthogonalLoop=1;jettySize=auto;html=1;exitX=0.5;exitY=1;exitDx=0;exitDy=0;entryX=0.5;entryY=0;entryDx=0;entryDy=0;" edge="1" parent="1" source="DthyEMG1it-dov7D85Fx-77" target="DthyEMG1it-dov7D85Fx-80">
          <mxGeometry relative="1" as="geometry" />
        </mxCell>
        <mxCell id="DthyEMG1it-dov7D85Fx-77" value="ul" style="ellipse;whiteSpace=wrap;html=1;fillColor=light-dark(#FFFFFF,#000066);strokeColor=light-dark(#000000,#000000);" vertex="1" parent="1">
          <mxGeometry x="510" y="780" width="40" height="40" as="geometry" />
        </mxCell>
        <mxCell id="DthyEMG1it-dov7D85Fx-78" value="li" style="ellipse;whiteSpace=wrap;html=1;fillColor=light-dark(#FFFFFF,#000066);strokeColor=light-dark(#000000,#000000);" vertex="1" parent="1">
          <mxGeometry x="510" y="830" width="40" height="40" as="geometry" />
        </mxCell>
        <mxCell id="DthyEMG1it-dov7D85Fx-79" value="li" style="ellipse;whiteSpace=wrap;html=1;fillColor=light-dark(#FFFFFF,#000066);strokeColor=light-dark(#000000,#000000);" vertex="1" parent="1">
          <mxGeometry x="520" y="830" width="40" height="40" as="geometry" />
        </mxCell>
        <mxCell id="DthyEMG1it-dov7D85Fx-80" value="li" style="ellipse;whiteSpace=wrap;html=1;fillColor=light-dark(#FFFFFF,#000066);strokeColor=light-dark(#000000,#000000);" vertex="1" parent="1">
          <mxGeometry x="530" y="830" width="40" height="40" as="geometry" />
        </mxCell>
        <mxCell id="DthyEMG1it-dov7D85Fx-87" style="edgeStyle=orthogonalEdgeStyle;rounded=0;orthogonalLoop=1;jettySize=auto;html=1;exitX=0.5;exitY=1;exitDx=0;exitDy=0;entryX=0.5;entryY=0;entryDx=0;entryDy=0;" edge="1" parent="1" source="DthyEMG1it-dov7D85Fx-82" target="DthyEMG1it-dov7D85Fx-83">
          <mxGeometry relative="1" as="geometry" />
        </mxCell>
        <mxCell id="DthyEMG1it-dov7D85Fx-82" value="ol" style="ellipse;whiteSpace=wrap;html=1;fillColor=light-dark(#FFFFFF,#000066);strokeColor=light-dark(#000000,#000000);" vertex="1" parent="1">
          <mxGeometry x="560" y="310" width="40" height="40" as="geometry" />
        </mxCell>
        <mxCell id="DthyEMG1it-dov7D85Fx-88" style="edgeStyle=orthogonalEdgeStyle;rounded=0;orthogonalLoop=1;jettySize=auto;html=1;exitX=1;exitY=0.5;exitDx=0;exitDy=0;entryX=0;entryY=0.5;entryDx=0;entryDy=0;" edge="1" parent="1" source="DthyEMG1it-dov7D85Fx-83" target="DthyEMG1it-dov7D85Fx-84">
          <mxGeometry relative="1" as="geometry" />
        </mxCell>
        <mxCell id="DthyEMG1it-dov7D85Fx-101" style="edgeStyle=orthogonalEdgeStyle;rounded=0;orthogonalLoop=1;jettySize=auto;html=1;exitX=0.5;exitY=1;exitDx=0;exitDy=0;" edge="1" parent="1" source="DthyEMG1it-dov7D85Fx-83" target="DthyEMG1it-dov7D85Fx-99">
          <mxGeometry relative="1" as="geometry" />
        </mxCell>
        <mxCell id="DthyEMG1it-dov7D85Fx-83" value="li" style="ellipse;whiteSpace=wrap;html=1;fillColor=light-dark(#FFFFFF,#000066);strokeColor=light-dark(#000000,#000000);" vertex="1" parent="1">
          <mxGeometry x="560" y="370" width="40" height="40" as="geometry" />
        </mxCell>
        <mxCell id="DthyEMG1it-dov7D85Fx-89" style="edgeStyle=orthogonalEdgeStyle;rounded=0;orthogonalLoop=1;jettySize=auto;html=1;exitX=1;exitY=0.5;exitDx=0;exitDy=0;entryX=0;entryY=0.5;entryDx=0;entryDy=0;" edge="1" parent="1" source="DthyEMG1it-dov7D85Fx-84" target="DthyEMG1it-dov7D85Fx-85">
          <mxGeometry relative="1" as="geometry" />
        </mxCell>
        <mxCell id="DthyEMG1it-dov7D85Fx-96" style="edgeStyle=orthogonalEdgeStyle;rounded=0;orthogonalLoop=1;jettySize=auto;html=1;exitX=0.5;exitY=1;exitDx=0;exitDy=0;entryX=0.5;entryY=0;entryDx=0;entryDy=0;" edge="1" parent="1" source="DthyEMG1it-dov7D85Fx-84" target="DthyEMG1it-dov7D85Fx-94">
          <mxGeometry relative="1" as="geometry" />
        </mxCell>
        <mxCell id="DthyEMG1it-dov7D85Fx-84" value="li" style="ellipse;whiteSpace=wrap;html=1;fillColor=light-dark(#FFFFFF,#000066);strokeColor=light-dark(#000000,#000000);" vertex="1" parent="1">
          <mxGeometry x="610" y="370" width="40" height="40" as="geometry" />
        </mxCell>
        <mxCell id="DthyEMG1it-dov7D85Fx-92" style="edgeStyle=orthogonalEdgeStyle;rounded=0;orthogonalLoop=1;jettySize=auto;html=1;exitX=0.5;exitY=1;exitDx=0;exitDy=0;entryX=0.5;entryY=0;entryDx=0;entryDy=0;" edge="1" parent="1" source="DthyEMG1it-dov7D85Fx-85" target="DthyEMG1it-dov7D85Fx-90">
          <mxGeometry relative="1" as="geometry" />
        </mxCell>
        <mxCell id="DthyEMG1it-dov7D85Fx-85" value="li" style="ellipse;whiteSpace=wrap;html=1;fillColor=light-dark(#FFFFFF,#000066);strokeColor=light-dark(#000000,#000000);" vertex="1" parent="1">
          <mxGeometry x="660" y="370" width="40" height="40" as="geometry" />
        </mxCell>
        <mxCell id="DthyEMG1it-dov7D85Fx-93" style="edgeStyle=orthogonalEdgeStyle;rounded=0;orthogonalLoop=1;jettySize=auto;html=1;exitX=1;exitY=0.5;exitDx=0;exitDy=0;entryX=0;entryY=0.5;entryDx=0;entryDy=0;" edge="1" parent="1" source="DthyEMG1it-dov7D85Fx-90" target="DthyEMG1it-dov7D85Fx-91">
          <mxGeometry relative="1" as="geometry" />
        </mxCell>
        <mxCell id="DthyEMG1it-dov7D85Fx-90" value="span" style="ellipse;whiteSpace=wrap;html=1;fillColor=light-dark(#FFFFFF,#000066);strokeColor=light-dark(#000000,#000000);" vertex="1" parent="1">
          <mxGeometry x="660" y="420" width="40" height="40" as="geometry" />
        </mxCell>
        <mxCell id="DthyEMG1it-dov7D85Fx-91" value="meta" style="ellipse;whiteSpace=wrap;html=1;fillColor=light-dark(#FFFFFF,#000066);strokeColor=light-dark(#000000,#000000);" vertex="1" parent="1">
          <mxGeometry x="710" y="420" width="40" height="40" as="geometry" />
        </mxCell>
        <mxCell id="DthyEMG1it-dov7D85Fx-97" style="edgeStyle=orthogonalEdgeStyle;rounded=0;orthogonalLoop=1;jettySize=auto;html=1;exitX=1;exitY=0.5;exitDx=0;exitDy=0;entryX=0;entryY=0.5;entryDx=0;entryDy=0;" edge="1" parent="1" source="DthyEMG1it-dov7D85Fx-94" target="DthyEMG1it-dov7D85Fx-95">
          <mxGeometry relative="1" as="geometry" />
        </mxCell>
        <mxCell id="DthyEMG1it-dov7D85Fx-94" value="a" style="ellipse;whiteSpace=wrap;html=1;fillColor=light-dark(#FFFFFF,#000066);strokeColor=light-dark(#000000,#000000);" vertex="1" parent="1">
          <mxGeometry x="610" y="470" width="40" height="40" as="geometry" />
        </mxCell>
        <mxCell id="DthyEMG1it-dov7D85Fx-95" value="meta" style="ellipse;whiteSpace=wrap;html=1;fillColor=light-dark(#FFFFFF,#000066);strokeColor=light-dark(#000000,#000000);" vertex="1" parent="1">
          <mxGeometry x="660" y="470" width="40" height="40" as="geometry" />
        </mxCell>
        <mxCell id="DthyEMG1it-dov7D85Fx-98" style="edgeStyle=orthogonalEdgeStyle;rounded=0;orthogonalLoop=1;jettySize=auto;html=1;exitX=1;exitY=0.5;exitDx=0;exitDy=0;entryX=0;entryY=0.5;entryDx=0;entryDy=0;" edge="1" parent="1" source="DthyEMG1it-dov7D85Fx-99" target="DthyEMG1it-dov7D85Fx-100">
          <mxGeometry relative="1" as="geometry" />
        </mxCell>
        <mxCell id="DthyEMG1it-dov7D85Fx-99" value="a" style="ellipse;whiteSpace=wrap;html=1;fillColor=light-dark(#FFFFFF,#000066);strokeColor=light-dark(#000000,#000000);" vertex="1" parent="1">
          <mxGeometry x="560" y="520" width="40" height="40" as="geometry" />
        </mxCell>
        <mxCell id="DthyEMG1it-dov7D85Fx-100" value="meta" style="ellipse;whiteSpace=wrap;html=1;fillColor=light-dark(#FFFFFF,#000066);strokeColor=light-dark(#000000,#000000);" vertex="1" parent="1">
          <mxGeometry x="610" y="520" width="40" height="40" as="geometry" />
        </mxCell>
        <mxCell id="DthyEMG1it-dov7D85Fx-108" style="edgeStyle=orthogonalEdgeStyle;rounded=0;orthogonalLoop=1;jettySize=auto;html=1;exitX=0.5;exitY=1;exitDx=0;exitDy=0;entryX=0.5;entryY=0;entryDx=0;entryDy=0;" edge="1" parent="1" source="DthyEMG1it-dov7D85Fx-102" target="DthyEMG1it-dov7D85Fx-103">
          <mxGeometry relative="1" as="geometry" />
        </mxCell>
        <mxCell id="DthyEMG1it-dov7D85Fx-102" value="section" style="ellipse;whiteSpace=wrap;html=1;fillColor=light-dark(#FFFFFF,#000066);strokeColor=light-dark(#000000,#000000);" vertex="1" parent="1">
          <mxGeometry x="300" y="420" width="40" height="40" as="geometry" />
        </mxCell>
        <mxCell id="DthyEMG1it-dov7D85Fx-109" style="edgeStyle=orthogonalEdgeStyle;rounded=0;orthogonalLoop=1;jettySize=auto;html=1;exitX=0;exitY=0.5;exitDx=0;exitDy=0;entryX=1;entryY=0.5;entryDx=0;entryDy=0;" edge="1" parent="1" source="DthyEMG1it-dov7D85Fx-103" target="DthyEMG1it-dov7D85Fx-104">
          <mxGeometry relative="1" as="geometry" />
        </mxCell>
        <mxCell id="DthyEMG1it-dov7D85Fx-103" value="h2" style="ellipse;whiteSpace=wrap;html=1;fillColor=light-dark(#FFFFFF,#000066);strokeColor=light-dark(#000000,#000000);" vertex="1" parent="1">
          <mxGeometry x="300" y="470" width="40" height="40" as="geometry" />
        </mxCell>
        <mxCell id="DthyEMG1it-dov7D85Fx-110" style="edgeStyle=orthogonalEdgeStyle;rounded=0;orthogonalLoop=1;jettySize=auto;html=1;exitX=0;exitY=0.5;exitDx=0;exitDy=0;entryX=1;entryY=0.5;entryDx=0;entryDy=0;" edge="1" parent="1" source="DthyEMG1it-dov7D85Fx-104" target="DthyEMG1it-dov7D85Fx-105">
          <mxGeometry relative="1" as="geometry" />
        </mxCell>
        <mxCell id="DthyEMG1it-dov7D85Fx-360" style="edgeStyle=orthogonalEdgeStyle;rounded=0;orthogonalLoop=1;jettySize=auto;html=1;exitX=0.5;exitY=1;exitDx=0;exitDy=0;entryX=0.5;entryY=0;entryDx=0;entryDy=0;" edge="1" parent="1" source="DthyEMG1it-dov7D85Fx-104" target="DthyEMG1it-dov7D85Fx-355">
          <mxGeometry relative="1" as="geometry" />
        </mxCell>
        <mxCell id="DthyEMG1it-dov7D85Fx-104" value="article" style="ellipse;whiteSpace=wrap;html=1;fillColor=light-dark(#FFFFFF,#000066);strokeColor=light-dark(#000000,#000000);" vertex="1" parent="1">
          <mxGeometry x="250" y="470" width="40" height="40" as="geometry" />
        </mxCell>
        <mxCell id="DthyEMG1it-dov7D85Fx-111" style="edgeStyle=orthogonalEdgeStyle;rounded=0;orthogonalLoop=1;jettySize=auto;html=1;exitX=0;exitY=0.5;exitDx=0;exitDy=0;entryX=1;entryY=0.5;entryDx=0;entryDy=0;" edge="1" parent="1" source="DthyEMG1it-dov7D85Fx-105" target="DthyEMG1it-dov7D85Fx-106">
          <mxGeometry relative="1" as="geometry" />
        </mxCell>
        <mxCell id="DthyEMG1it-dov7D85Fx-196" style="edgeStyle=orthogonalEdgeStyle;rounded=0;orthogonalLoop=1;jettySize=auto;html=1;exitX=0.5;exitY=1;exitDx=0;exitDy=0;" edge="1" parent="1" source="DthyEMG1it-dov7D85Fx-105" target="DthyEMG1it-dov7D85Fx-195">
          <mxGeometry relative="1" as="geometry">
            <mxPoint x="210.04761904761904" y="760" as="targetPoint" />
          </mxGeometry>
        </mxCell>
        <mxCell id="DthyEMG1it-dov7D85Fx-105" value="article" style="ellipse;whiteSpace=wrap;html=1;fillColor=light-dark(#FFFFFF,#000066);strokeColor=light-dark(#000000,#000000);" vertex="1" parent="1">
          <mxGeometry x="190" y="470" width="40" height="40" as="geometry" />
        </mxCell>
        <mxCell id="DthyEMG1it-dov7D85Fx-117" style="edgeStyle=orthogonalEdgeStyle;rounded=0;orthogonalLoop=1;jettySize=auto;html=1;exitX=0.5;exitY=1;exitDx=0;exitDy=0;entryX=0.5;entryY=0;entryDx=0;entryDy=0;" edge="1" parent="1" source="DthyEMG1it-dov7D85Fx-106" target="DthyEMG1it-dov7D85Fx-112">
          <mxGeometry relative="1" as="geometry" />
        </mxCell>
        <mxCell id="DthyEMG1it-dov7D85Fx-106" value="article" style="ellipse;whiteSpace=wrap;html=1;fillColor=light-dark(#FFFFFF,#000066);strokeColor=light-dark(#000000,#000000);" vertex="1" parent="1">
          <mxGeometry x="130" y="470" width="40" height="40" as="geometry" />
        </mxCell>
        <mxCell id="DthyEMG1it-dov7D85Fx-118" style="edgeStyle=orthogonalEdgeStyle;rounded=0;orthogonalLoop=1;jettySize=auto;html=1;exitX=0;exitY=0.5;exitDx=0;exitDy=0;entryX=1;entryY=0.5;entryDx=0;entryDy=0;" edge="1" parent="1" source="DthyEMG1it-dov7D85Fx-112" target="DthyEMG1it-dov7D85Fx-113">
          <mxGeometry relative="1" as="geometry" />
        </mxCell>
        <mxCell id="DthyEMG1it-dov7D85Fx-193" style="edgeStyle=orthogonalEdgeStyle;rounded=0;orthogonalLoop=1;jettySize=auto;html=1;exitX=0.5;exitY=1;exitDx=0;exitDy=0;entryX=0.5;entryY=0;entryDx=0;entryDy=0;" edge="1" parent="1" source="DthyEMG1it-dov7D85Fx-112" target="DthyEMG1it-dov7D85Fx-191">
          <mxGeometry relative="1" as="geometry">
            <mxPoint x="150.0322580645161" y="830" as="targetPoint" />
          </mxGeometry>
        </mxCell>
        <mxCell id="DthyEMG1it-dov7D85Fx-112" value="header" style="ellipse;whiteSpace=wrap;html=1;fillColor=light-dark(#FFFFFF,#000066);strokeColor=light-dark(#000000,#000000);" vertex="1" parent="1">
          <mxGeometry x="130" y="530" width="40" height="40" as="geometry" />
        </mxCell>
        <mxCell id="DthyEMG1it-dov7D85Fx-119" style="edgeStyle=orthogonalEdgeStyle;rounded=0;orthogonalLoop=1;jettySize=auto;html=1;exitX=0;exitY=0.5;exitDx=0;exitDy=0;entryX=1;entryY=0.5;entryDx=0;entryDy=0;" edge="1" parent="1" source="DthyEMG1it-dov7D85Fx-113" target="DthyEMG1it-dov7D85Fx-114">
          <mxGeometry relative="1" as="geometry" />
        </mxCell>
        <mxCell id="DthyEMG1it-dov7D85Fx-161" style="edgeStyle=orthogonalEdgeStyle;rounded=0;orthogonalLoop=1;jettySize=auto;html=1;exitX=0.5;exitY=1;exitDx=0;exitDy=0;entryX=0.5;entryY=0;entryDx=0;entryDy=0;" edge="1" parent="1" source="DthyEMG1it-dov7D85Fx-113" target="DthyEMG1it-dov7D85Fx-159">
          <mxGeometry relative="1" as="geometry">
            <mxPoint x="90.09090909090924" y="840" as="targetPoint" />
          </mxGeometry>
        </mxCell>
        <mxCell id="DthyEMG1it-dov7D85Fx-113" value="section" style="ellipse;whiteSpace=wrap;html=1;fillColor=light-dark(#FFFFFF,#000066);strokeColor=light-dark(#000000,#000000);" vertex="1" parent="1">
          <mxGeometry x="70" y="530" width="40" height="40" as="geometry" />
        </mxCell>
        <mxCell id="DthyEMG1it-dov7D85Fx-121" style="edgeStyle=orthogonalEdgeStyle;rounded=0;orthogonalLoop=1;jettySize=auto;html=1;exitX=0;exitY=0.5;exitDx=0;exitDy=0;entryX=1;entryY=0.5;entryDx=0;entryDy=0;" edge="1" parent="1" source="DthyEMG1it-dov7D85Fx-114" target="DthyEMG1it-dov7D85Fx-115">
          <mxGeometry relative="1" as="geometry" />
        </mxCell>
        <mxCell id="DthyEMG1it-dov7D85Fx-133" style="edgeStyle=orthogonalEdgeStyle;rounded=0;orthogonalLoop=1;jettySize=auto;html=1;exitX=0.5;exitY=1;exitDx=0;exitDy=0;entryX=0.5;entryY=0;entryDx=0;entryDy=0;" edge="1" parent="1" source="DthyEMG1it-dov7D85Fx-114" target="DthyEMG1it-dov7D85Fx-131">
          <mxGeometry relative="1" as="geometry" />
        </mxCell>
        <mxCell id="DthyEMG1it-dov7D85Fx-114" value="section" style="ellipse;whiteSpace=wrap;html=1;fillColor=light-dark(#FFFFFF,#000066);strokeColor=light-dark(#000000,#000000);" vertex="1" parent="1">
          <mxGeometry x="20" y="530" width="40" height="40" as="geometry" />
        </mxCell>
        <mxCell id="DthyEMG1it-dov7D85Fx-123" style="edgeStyle=orthogonalEdgeStyle;rounded=0;orthogonalLoop=1;jettySize=auto;html=1;exitX=0;exitY=0.5;exitDx=0;exitDy=0;entryX=1;entryY=0.5;entryDx=0;entryDy=0;" edge="1" parent="1" source="DthyEMG1it-dov7D85Fx-115" target="DthyEMG1it-dov7D85Fx-122">
          <mxGeometry relative="1" as="geometry" />
        </mxCell>
        <mxCell id="DthyEMG1it-dov7D85Fx-129" style="edgeStyle=orthogonalEdgeStyle;rounded=0;orthogonalLoop=1;jettySize=auto;html=1;exitX=0.5;exitY=1;exitDx=0;exitDy=0;entryX=0.5;entryY=0;entryDx=0;entryDy=0;" edge="1" parent="1" source="DthyEMG1it-dov7D85Fx-115" target="DthyEMG1it-dov7D85Fx-126">
          <mxGeometry relative="1" as="geometry" />
        </mxCell>
        <mxCell id="DthyEMG1it-dov7D85Fx-115" value="template" style="ellipse;whiteSpace=wrap;html=1;fillColor=light-dark(#FFFFFF,#000066);strokeColor=light-dark(#000000,#000000);" vertex="1" parent="1">
          <mxGeometry x="-40" y="530" width="40" height="40" as="geometry" />
        </mxCell>
        <mxCell id="DthyEMG1it-dov7D85Fx-125" style="edgeStyle=orthogonalEdgeStyle;rounded=0;orthogonalLoop=1;jettySize=auto;html=1;exitX=0.5;exitY=1;exitDx=0;exitDy=0;entryX=0.5;entryY=0;entryDx=0;entryDy=0;" edge="1" parent="1" source="DthyEMG1it-dov7D85Fx-122" target="DthyEMG1it-dov7D85Fx-124">
          <mxGeometry relative="1" as="geometry" />
        </mxCell>
        <mxCell id="DthyEMG1it-dov7D85Fx-122" value="footer" style="ellipse;whiteSpace=wrap;html=1;fillColor=light-dark(#FFFFFF,#000066);strokeColor=light-dark(#000000,#000000);" vertex="1" parent="1">
          <mxGeometry x="-100" y="530" width="40" height="40" as="geometry" />
        </mxCell>
        <mxCell id="DthyEMG1it-dov7D85Fx-124" value="p" style="ellipse;whiteSpace=wrap;html=1;fillColor=light-dark(#FFFFFF,#000066);strokeColor=light-dark(#000000,#000000);" vertex="1" parent="1">
          <mxGeometry x="-100" y="585" width="40" height="40" as="geometry" />
        </mxCell>
        <mxCell id="DthyEMG1it-dov7D85Fx-130" style="edgeStyle=orthogonalEdgeStyle;rounded=0;orthogonalLoop=1;jettySize=auto;html=1;exitX=0.5;exitY=1;exitDx=0;exitDy=0;entryX=0.5;entryY=0;entryDx=0;entryDy=0;" edge="1" parent="1" source="DthyEMG1it-dov7D85Fx-126" target="DthyEMG1it-dov7D85Fx-128">
          <mxGeometry relative="1" as="geometry" />
        </mxCell>
        <mxCell id="DthyEMG1it-dov7D85Fx-126" value="tr" style="ellipse;whiteSpace=wrap;html=1;fillColor=light-dark(#FFFFFF,#000066);strokeColor=light-dark(#000000,#000000);" vertex="1" parent="1">
          <mxGeometry x="-40" y="585" width="40" height="40" as="geometry" />
        </mxCell>
        <mxCell id="DthyEMG1it-dov7D85Fx-127" value="td" style="ellipse;whiteSpace=wrap;html=1;fillColor=light-dark(#FFFFFF,#000066);strokeColor=light-dark(#000000,#000000);" vertex="1" parent="1">
          <mxGeometry x="-40" y="640" width="40" height="40" as="geometry" />
        </mxCell>
        <mxCell id="DthyEMG1it-dov7D85Fx-128" value="td" style="ellipse;whiteSpace=wrap;html=1;fillColor=light-dark(#FFFFFF,#000066);strokeColor=light-dark(#000000,#000000);" vertex="1" parent="1">
          <mxGeometry x="-50" y="640" width="40" height="40" as="geometry" />
        </mxCell>
        <mxCell id="DthyEMG1it-dov7D85Fx-134" style="edgeStyle=orthogonalEdgeStyle;rounded=0;orthogonalLoop=1;jettySize=auto;html=1;exitX=0;exitY=0.5;exitDx=0;exitDy=0;entryX=1;entryY=0.5;entryDx=0;entryDy=0;" edge="1" parent="1" source="DthyEMG1it-dov7D85Fx-131" target="DthyEMG1it-dov7D85Fx-132">
          <mxGeometry relative="1" as="geometry" />
        </mxCell>
        <mxCell id="DthyEMG1it-dov7D85Fx-156" style="edgeStyle=orthogonalEdgeStyle;rounded=0;orthogonalLoop=1;jettySize=auto;html=1;exitX=0.5;exitY=1;exitDx=0;exitDy=0;entryX=0.5;entryY=0;entryDx=0;entryDy=0;" edge="1" parent="1" source="DthyEMG1it-dov7D85Fx-131" target="DthyEMG1it-dov7D85Fx-149">
          <mxGeometry relative="1" as="geometry" />
        </mxCell>
        <mxCell id="DthyEMG1it-dov7D85Fx-131" value="article" style="ellipse;whiteSpace=wrap;html=1;fillColor=light-dark(#FFFFFF,#000066);strokeColor=light-dark(#000000,#000000);" vertex="1" parent="1">
          <mxGeometry x="20" y="690" width="40" height="40" as="geometry" />
        </mxCell>
        <mxCell id="DthyEMG1it-dov7D85Fx-137" style="edgeStyle=orthogonalEdgeStyle;rounded=0;orthogonalLoop=1;jettySize=auto;html=1;exitX=0.5;exitY=1;exitDx=0;exitDy=0;entryX=0.5;entryY=0;entryDx=0;entryDy=0;" edge="1" parent="1" source="DthyEMG1it-dov7D85Fx-132" target="DthyEMG1it-dov7D85Fx-135">
          <mxGeometry relative="1" as="geometry" />
        </mxCell>
        <mxCell id="DthyEMG1it-dov7D85Fx-132" value="article" style="ellipse;whiteSpace=wrap;html=1;fillColor=light-dark(#FFFFFF,#000066);strokeColor=light-dark(#000000,#000000);" vertex="1" parent="1">
          <mxGeometry x="-40" y="690" width="40" height="40" as="geometry" />
        </mxCell>
        <mxCell id="DthyEMG1it-dov7D85Fx-138" style="edgeStyle=orthogonalEdgeStyle;rounded=0;orthogonalLoop=1;jettySize=auto;html=1;exitX=0;exitY=0.5;exitDx=0;exitDy=0;entryX=1;entryY=0.5;entryDx=0;entryDy=0;" edge="1" parent="1" source="DthyEMG1it-dov7D85Fx-135" target="DthyEMG1it-dov7D85Fx-136">
          <mxGeometry relative="1" as="geometry" />
        </mxCell>
        <mxCell id="DthyEMG1it-dov7D85Fx-135" value="h5" style="ellipse;whiteSpace=wrap;html=1;fillColor=light-dark(#FFFFFF,#000066);strokeColor=light-dark(#000000,#000000);" vertex="1" parent="1">
          <mxGeometry x="-40" y="740" width="40" height="40" as="geometry" />
        </mxCell>
        <mxCell id="DthyEMG1it-dov7D85Fx-144" style="edgeStyle=orthogonalEdgeStyle;rounded=0;orthogonalLoop=1;jettySize=auto;html=1;exitX=0.5;exitY=1;exitDx=0;exitDy=0;entryX=0.5;entryY=0;entryDx=0;entryDy=0;" edge="1" parent="1" source="DthyEMG1it-dov7D85Fx-136" target="DthyEMG1it-dov7D85Fx-139">
          <mxGeometry relative="1" as="geometry" />
        </mxCell>
        <mxCell id="DthyEMG1it-dov7D85Fx-136" value="details" style="ellipse;whiteSpace=wrap;html=1;fillColor=light-dark(#FFFFFF,#000066);strokeColor=light-dark(#000000,#000000);" vertex="1" parent="1">
          <mxGeometry x="-100" y="740" width="40" height="40" as="geometry" />
        </mxCell>
        <mxCell id="DthyEMG1it-dov7D85Fx-145" style="edgeStyle=orthogonalEdgeStyle;rounded=0;orthogonalLoop=1;jettySize=auto;html=1;exitX=0;exitY=0.5;exitDx=0;exitDy=0;entryX=1;entryY=0.5;entryDx=0;entryDy=0;" edge="1" parent="1" source="DthyEMG1it-dov7D85Fx-139" target="DthyEMG1it-dov7D85Fx-140">
          <mxGeometry relative="1" as="geometry" />
        </mxCell>
        <mxCell id="DthyEMG1it-dov7D85Fx-139" value="summary" style="ellipse;whiteSpace=wrap;html=1;fillColor=light-dark(#FFFFFF,#000066);strokeColor=light-dark(#000000,#000000);" vertex="1" parent="1">
          <mxGeometry x="-100" y="790" width="40" height="40" as="geometry" />
        </mxCell>
        <mxCell id="DthyEMG1it-dov7D85Fx-146" style="edgeStyle=orthogonalEdgeStyle;rounded=0;orthogonalLoop=1;jettySize=auto;html=1;exitX=0;exitY=0.5;exitDx=0;exitDy=0;entryX=1;entryY=0.5;entryDx=0;entryDy=0;" edge="1" parent="1" source="DthyEMG1it-dov7D85Fx-140" target="DthyEMG1it-dov7D85Fx-141">
          <mxGeometry relative="1" as="geometry" />
        </mxCell>
        <mxCell id="DthyEMG1it-dov7D85Fx-140" value="p" style="ellipse;whiteSpace=wrap;html=1;fillColor=light-dark(#FFFFFF,#000066);strokeColor=light-dark(#000000,#000000);" vertex="1" parent="1">
          <mxGeometry x="-150" y="790" width="40" height="40" as="geometry" />
        </mxCell>
        <mxCell id="DthyEMG1it-dov7D85Fx-147" style="edgeStyle=orthogonalEdgeStyle;rounded=0;orthogonalLoop=1;jettySize=auto;html=1;exitX=0.5;exitY=1;exitDx=0;exitDy=0;entryX=0.5;entryY=0;entryDx=0;entryDy=0;" edge="1" parent="1" source="DthyEMG1it-dov7D85Fx-141" target="DthyEMG1it-dov7D85Fx-142">
          <mxGeometry relative="1" as="geometry" />
        </mxCell>
        <mxCell id="DthyEMG1it-dov7D85Fx-141" value="details" style="ellipse;whiteSpace=wrap;html=1;fillColor=light-dark(#FFFFFF,#000066);strokeColor=light-dark(#000000,#000000);" vertex="1" parent="1">
          <mxGeometry x="-200" y="790" width="40" height="40" as="geometry" />
        </mxCell>
        <mxCell id="DthyEMG1it-dov7D85Fx-148" style="edgeStyle=orthogonalEdgeStyle;rounded=0;orthogonalLoop=1;jettySize=auto;html=1;exitX=0;exitY=0.5;exitDx=0;exitDy=0;entryX=1;entryY=0.5;entryDx=0;entryDy=0;" edge="1" parent="1" source="DthyEMG1it-dov7D85Fx-142" target="DthyEMG1it-dov7D85Fx-143">
          <mxGeometry relative="1" as="geometry" />
        </mxCell>
        <mxCell id="DthyEMG1it-dov7D85Fx-142" value="summary" style="ellipse;whiteSpace=wrap;html=1;fillColor=light-dark(#FFFFFF,#000066);strokeColor=light-dark(#000000,#000000);" vertex="1" parent="1">
          <mxGeometry x="-200" y="840" width="40" height="40" as="geometry" />
        </mxCell>
        <mxCell id="DthyEMG1it-dov7D85Fx-143" value="p" style="ellipse;whiteSpace=wrap;html=1;fillColor=light-dark(#FFFFFF,#000066);strokeColor=light-dark(#000000,#000000);" vertex="1" parent="1">
          <mxGeometry x="-260" y="840" width="40" height="40" as="geometry" />
        </mxCell>
        <mxCell id="DthyEMG1it-dov7D85Fx-157" style="edgeStyle=orthogonalEdgeStyle;rounded=0;orthogonalLoop=1;jettySize=auto;html=1;exitX=0;exitY=0.5;exitDx=0;exitDy=0;entryX=1;entryY=0.5;entryDx=0;entryDy=0;" edge="1" parent="1" source="DthyEMG1it-dov7D85Fx-149" target="DthyEMG1it-dov7D85Fx-150">
          <mxGeometry relative="1" as="geometry" />
        </mxCell>
        <mxCell id="DthyEMG1it-dov7D85Fx-149" value="h5" style="ellipse;whiteSpace=wrap;html=1;fillColor=light-dark(#FFFFFF,#000066);strokeColor=light-dark(#000000,#000000);" vertex="1" parent="1">
          <mxGeometry x="20" y="890" width="40" height="40" as="geometry" />
        </mxCell>
        <mxCell id="DthyEMG1it-dov7D85Fx-158" style="edgeStyle=orthogonalEdgeStyle;rounded=0;orthogonalLoop=1;jettySize=auto;html=1;exitX=0.5;exitY=1;exitDx=0;exitDy=0;entryX=0.5;entryY=0;entryDx=0;entryDy=0;" edge="1" parent="1" source="DthyEMG1it-dov7D85Fx-150" target="DthyEMG1it-dov7D85Fx-155">
          <mxGeometry relative="1" as="geometry" />
        </mxCell>
        <mxCell id="DthyEMG1it-dov7D85Fx-150" value="ul" style="ellipse;whiteSpace=wrap;html=1;fillColor=light-dark(#FFFFFF,#000066);strokeColor=light-dark(#000000,#000000);" vertex="1" parent="1">
          <mxGeometry x="-40" y="890" width="40" height="40" as="geometry" />
        </mxCell>
        <mxCell id="DthyEMG1it-dov7D85Fx-151" value="li&lt;span style=&quot;color: rgba(0, 0, 0, 0); font-family: monospace; font-size: 0px; text-align: start; text-wrap-mode: nowrap;&quot;&gt;%3CmxGraphModel%3E%3Croot%3E%3CmxCell%20id%3D%220%22%2F%3E%3CmxCell%20id%3D%221%22%20parent%3D%220%22%2F%3E%3CmxCell%20id%3D%222%22%20value%3D%22article%22%20style%3D%22ellipse%3BwhiteSpace%3Dwrap%3Bhtml%3D1%3BfillColor%3Dlight-dark(%23FFFFFF%2C%23000066)%3BstrokeColor%3Dlight-dark(%23000000%2C%23000000)%3B%22%20vertex%3D%221%22%20parent%3D%221%22%3E%3CmxGeometry%20x%3D%2220%22%20y%3D%22690%22%20width%3D%2240%22%20height%3D%2240%22%20as%3D%22geometry%22%2F%3E%3C%2FmxCell%3E%3C%2Froot%3E%3C%2FmxGraphModel%3E&lt;/span&gt;" style="ellipse;whiteSpace=wrap;html=1;fillColor=light-dark(#FFFFFF,#000066);strokeColor=light-dark(#000000,#000000);" vertex="1" parent="1">
          <mxGeometry x="-40" y="950" width="40" height="40" as="geometry" />
        </mxCell>
        <mxCell id="DthyEMG1it-dov7D85Fx-153" value="li&lt;span style=&quot;color: rgba(0, 0, 0, 0); font-family: monospace; font-size: 0px; text-align: start; text-wrap-mode: nowrap;&quot;&gt;%3CmxGraphModel%3E%3Croot%3E%3CmxCell%20id%3D%220%22%2F%3E%3CmxCell%20id%3D%221%22%20parent%3D%220%22%2F%3E%3CmxCell%20id%3D%222%22%20value%3D%22article%22%20style%3D%22ellipse%3BwhiteSpace%3Dwrap%3Bhtml%3D1%3BfillColor%3Dlight-dark(%23FFFFFF%2C%23000066)%3BstrokeColor%3Dlight-dark(%23000000%2C%23000000)%3B%22%20vertex%3D%221%22%20parent%3D%221%22%3E%3CmxGeometry%20x%3D%2220%22%20y%3D%22690%22%20width%3D%2240%22%20height%3D%2240%22%20as%3D%22geometry%22%2F%3E%3C%2FmxCell%3E%3C%2Froot%3E%3C%2FmxGraphModel%3E&lt;/span&gt;" style="ellipse;whiteSpace=wrap;html=1;fillColor=light-dark(#FFFFFF,#000066);strokeColor=light-dark(#000000,#000000);" vertex="1" parent="1">
          <mxGeometry x="-50" y="950" width="40" height="40" as="geometry" />
        </mxCell>
        <mxCell id="DthyEMG1it-dov7D85Fx-154" value="li&lt;span style=&quot;color: rgba(0, 0, 0, 0); font-family: monospace; font-size: 0px; text-align: start; text-wrap-mode: nowrap;&quot;&gt;%3CmxGraphModel%3E%3Croot%3E%3CmxCell%20id%3D%220%22%2F%3E%3CmxCell%20id%3D%221%22%20parent%3D%220%22%2F%3E%3CmxCell%20id%3D%222%22%20value%3D%22article%22%20style%3D%22ellipse%3BwhiteSpace%3Dwrap%3Bhtml%3D1%3BfillColor%3Dlight-dark(%23FFFFFF%2C%23000066)%3BstrokeColor%3Dlight-dark(%23000000%2C%23000000)%3B%22%20vertex%3D%221%22%20parent%3D%221%22%3E%3CmxGeometry%20x%3D%2220%22%20y%3D%22690%22%20width%3D%2240%22%20height%3D%2240%22%20as%3D%22geometry%22%2F%3E%3C%2FmxCell%3E%3C%2Froot%3E%3C%2FmxGraphModel%3E&lt;/span&gt;" style="ellipse;whiteSpace=wrap;html=1;fillColor=light-dark(#FFFFFF,#000066);strokeColor=light-dark(#000000,#000000);" vertex="1" parent="1">
          <mxGeometry x="-60" y="950" width="40" height="40" as="geometry" />
        </mxCell>
        <mxCell id="DthyEMG1it-dov7D85Fx-155" value="li&lt;span style=&quot;color: rgba(0, 0, 0, 0); font-family: monospace; font-size: 0px; text-align: start; text-wrap-mode: nowrap;&quot;&gt;%3CmxGraphModel%3E%3Croot%3E%3CmxCell%20id%3D%220%22%2F%3E%3CmxCell%20id%3D%221%22%20parent%3D%220%22%2F%3E%3CmxCell%20id%3D%222%22%20value%3D%22article%22%20style%3D%22ellipse%3BwhiteSpace%3Dwrap%3Bhtml%3D1%3BfillColor%3Dlight-dark(%23FFFFFF%2C%23000066)%3BstrokeColor%3Dlight-dark(%23000000%2C%23000000)%3B%22%20vertex%3D%221%22%20parent%3D%221%22%3E%3CmxGeometry%20x%3D%2220%22%20y%3D%22690%22%20width%3D%2240%22%20height%3D%2240%22%20as%3D%22geometry%22%2F%3E%3C%2FmxCell%3E%3C%2Froot%3E%3C%2FmxGraphModel%3E&lt;/span&gt;" style="ellipse;whiteSpace=wrap;html=1;fillColor=light-dark(#FFFFFF,#000066);strokeColor=light-dark(#000000,#000000);" vertex="1" parent="1">
          <mxGeometry x="-70" y="950" width="40" height="40" as="geometry" />
        </mxCell>
        <mxCell id="DthyEMG1it-dov7D85Fx-162" style="edgeStyle=orthogonalEdgeStyle;rounded=0;orthogonalLoop=1;jettySize=auto;html=1;exitX=0;exitY=0.5;exitDx=0;exitDy=0;entryX=1;entryY=0.5;entryDx=0;entryDy=0;" edge="1" parent="1" source="DthyEMG1it-dov7D85Fx-159" target="DthyEMG1it-dov7D85Fx-160">
          <mxGeometry relative="1" as="geometry" />
        </mxCell>
        <mxCell id="DthyEMG1it-dov7D85Fx-159" value="h4" style="ellipse;whiteSpace=wrap;html=1;fillColor=light-dark(#FFFFFF,#000066);strokeColor=light-dark(#000000,#000000);" vertex="1" parent="1">
          <mxGeometry x="70" y="1010" width="40" height="40" as="geometry" />
        </mxCell>
        <mxCell id="DthyEMG1it-dov7D85Fx-166" style="edgeStyle=orthogonalEdgeStyle;rounded=0;orthogonalLoop=1;jettySize=auto;html=1;exitX=0.5;exitY=1;exitDx=0;exitDy=0;entryX=0.5;entryY=0;entryDx=0;entryDy=0;" edge="1" parent="1" source="DthyEMG1it-dov7D85Fx-160" target="DthyEMG1it-dov7D85Fx-163">
          <mxGeometry relative="1" as="geometry" />
        </mxCell>
        <mxCell id="DthyEMG1it-dov7D85Fx-160" value="ul" style="ellipse;whiteSpace=wrap;html=1;fillColor=light-dark(#FFFFFF,#000066);strokeColor=light-dark(#000000,#000000);" vertex="1" parent="1">
          <mxGeometry x="20" y="1010" width="40" height="40" as="geometry" />
        </mxCell>
        <mxCell id="DthyEMG1it-dov7D85Fx-167" style="edgeStyle=orthogonalEdgeStyle;rounded=0;orthogonalLoop=1;jettySize=auto;html=1;exitX=0;exitY=0.5;exitDx=0;exitDy=0;entryX=1;entryY=0.5;entryDx=0;entryDy=0;" edge="1" parent="1" source="DthyEMG1it-dov7D85Fx-163" target="DthyEMG1it-dov7D85Fx-164">
          <mxGeometry relative="1" as="geometry" />
        </mxCell>
        <mxCell id="DthyEMG1it-dov7D85Fx-170" style="edgeStyle=orthogonalEdgeStyle;rounded=0;orthogonalLoop=1;jettySize=auto;html=1;exitX=0.5;exitY=1;exitDx=0;exitDy=0;entryX=0.5;entryY=0;entryDx=0;entryDy=0;" edge="1" parent="1" source="DthyEMG1it-dov7D85Fx-163" target="DthyEMG1it-dov7D85Fx-169">
          <mxGeometry relative="1" as="geometry" />
        </mxCell>
        <mxCell id="DthyEMG1it-dov7D85Fx-163" value="li" style="ellipse;whiteSpace=wrap;html=1;fillColor=light-dark(#FFFFFF,#000066);strokeColor=light-dark(#000000,#000000);" vertex="1" parent="1">
          <mxGeometry x="20" y="1060" width="40" height="40" as="geometry" />
        </mxCell>
        <mxCell id="DthyEMG1it-dov7D85Fx-168" style="edgeStyle=orthogonalEdgeStyle;rounded=0;orthogonalLoop=1;jettySize=auto;html=1;exitX=0;exitY=0.5;exitDx=0;exitDy=0;entryX=1;entryY=0.5;entryDx=0;entryDy=0;" edge="1" parent="1" source="DthyEMG1it-dov7D85Fx-164" target="DthyEMG1it-dov7D85Fx-165">
          <mxGeometry relative="1" as="geometry" />
        </mxCell>
        <mxCell id="DthyEMG1it-dov7D85Fx-164" value="li" style="ellipse;whiteSpace=wrap;html=1;fillColor=light-dark(#FFFFFF,#000066);strokeColor=light-dark(#000000,#000000);" vertex="1" parent="1">
          <mxGeometry x="-30" y="1060" width="40" height="40" as="geometry" />
        </mxCell>
        <mxCell id="DthyEMG1it-dov7D85Fx-165" value="li" style="ellipse;whiteSpace=wrap;html=1;fillColor=light-dark(#FFFFFF,#000066);strokeColor=light-dark(#000000,#000000);" vertex="1" parent="1">
          <mxGeometry x="-80" y="1060" width="40" height="40" as="geometry" />
        </mxCell>
        <mxCell id="DthyEMG1it-dov7D85Fx-169" value="ul" style="ellipse;whiteSpace=wrap;html=1;fillColor=light-dark(#FFFFFF,#000066);strokeColor=light-dark(#000000,#000000);" vertex="1" parent="1">
          <mxGeometry x="20" y="1110" width="40" height="40" as="geometry" />
        </mxCell>
        <mxCell id="DthyEMG1it-dov7D85Fx-176" style="edgeStyle=orthogonalEdgeStyle;rounded=0;orthogonalLoop=1;jettySize=auto;html=1;exitX=0;exitY=0.5;exitDx=0;exitDy=0;entryX=1;entryY=0.5;entryDx=0;entryDy=0;" edge="1" parent="1" source="DthyEMG1it-dov7D85Fx-171" target="DthyEMG1it-dov7D85Fx-173">
          <mxGeometry relative="1" as="geometry" />
        </mxCell>
        <mxCell id="DthyEMG1it-dov7D85Fx-171" value="li" style="ellipse;whiteSpace=wrap;html=1;fillColor=light-dark(#FFFFFF,#000066);strokeColor=light-dark(#000000,#000000);" vertex="1" parent="1">
          <mxGeometry x="20" y="1160" width="40" height="40" as="geometry" />
        </mxCell>
        <mxCell id="DthyEMG1it-dov7D85Fx-177" style="edgeStyle=orthogonalEdgeStyle;rounded=0;orthogonalLoop=1;jettySize=auto;html=1;exitX=0;exitY=0.5;exitDx=0;exitDy=0;entryX=1;entryY=0.5;entryDx=0;entryDy=0;" edge="1" parent="1" source="DthyEMG1it-dov7D85Fx-173" target="DthyEMG1it-dov7D85Fx-174">
          <mxGeometry relative="1" as="geometry" />
        </mxCell>
        <mxCell id="DthyEMG1it-dov7D85Fx-182" style="edgeStyle=orthogonalEdgeStyle;rounded=0;orthogonalLoop=1;jettySize=auto;html=1;exitX=0.5;exitY=1;exitDx=0;exitDy=0;entryX=0.5;entryY=0;entryDx=0;entryDy=0;" edge="1" parent="1" source="DthyEMG1it-dov7D85Fx-173" target="DthyEMG1it-dov7D85Fx-179">
          <mxGeometry relative="1" as="geometry" />
        </mxCell>
        <mxCell id="DthyEMG1it-dov7D85Fx-173" value="li" style="ellipse;whiteSpace=wrap;html=1;fillColor=light-dark(#FFFFFF,#000066);strokeColor=light-dark(#000000,#000000);" vertex="1" parent="1">
          <mxGeometry x="-30" y="1160" width="40" height="40" as="geometry" />
        </mxCell>
        <mxCell id="DthyEMG1it-dov7D85Fx-178" style="edgeStyle=orthogonalEdgeStyle;rounded=0;orthogonalLoop=1;jettySize=auto;html=1;exitX=0;exitY=0.5;exitDx=0;exitDy=0;entryX=1;entryY=0.5;entryDx=0;entryDy=0;" edge="1" parent="1" source="DthyEMG1it-dov7D85Fx-174" target="DthyEMG1it-dov7D85Fx-175">
          <mxGeometry relative="1" as="geometry" />
        </mxCell>
        <mxCell id="DthyEMG1it-dov7D85Fx-174" value="li" style="ellipse;whiteSpace=wrap;html=1;fillColor=light-dark(#FFFFFF,#000066);strokeColor=light-dark(#000000,#000000);" vertex="1" parent="1">
          <mxGeometry x="-80" y="1160" width="40" height="40" as="geometry" />
        </mxCell>
        <mxCell id="DthyEMG1it-dov7D85Fx-175" value="li" style="ellipse;whiteSpace=wrap;html=1;fillColor=light-dark(#FFFFFF,#000066);strokeColor=light-dark(#000000,#000000);" vertex="1" parent="1">
          <mxGeometry x="-130" y="1160" width="40" height="40" as="geometry" />
        </mxCell>
        <mxCell id="DthyEMG1it-dov7D85Fx-183" style="edgeStyle=orthogonalEdgeStyle;rounded=0;orthogonalLoop=1;jettySize=auto;html=1;exitX=0.5;exitY=1;exitDx=0;exitDy=0;entryX=0.5;entryY=0;entryDx=0;entryDy=0;" edge="1" parent="1" source="DthyEMG1it-dov7D85Fx-179" target="DthyEMG1it-dov7D85Fx-180">
          <mxGeometry relative="1" as="geometry" />
        </mxCell>
        <mxCell id="DthyEMG1it-dov7D85Fx-179" value="ul" style="ellipse;whiteSpace=wrap;html=1;fillColor=light-dark(#FFFFFF,#000066);strokeColor=light-dark(#000000,#000000);" vertex="1" parent="1">
          <mxGeometry x="-30" y="1210" width="40" height="40" as="geometry" />
        </mxCell>
        <mxCell id="DthyEMG1it-dov7D85Fx-184" style="edgeStyle=orthogonalEdgeStyle;rounded=0;orthogonalLoop=1;jettySize=auto;html=1;exitX=0;exitY=0.5;exitDx=0;exitDy=0;entryX=1;entryY=0.5;entryDx=0;entryDy=0;" edge="1" parent="1" source="DthyEMG1it-dov7D85Fx-180" target="DthyEMG1it-dov7D85Fx-181">
          <mxGeometry relative="1" as="geometry" />
        </mxCell>
        <mxCell id="DthyEMG1it-dov7D85Fx-180" value="li" style="ellipse;whiteSpace=wrap;html=1;fillColor=light-dark(#FFFFFF,#000066);strokeColor=light-dark(#000000,#000000);" vertex="1" parent="1">
          <mxGeometry x="-30" y="1260" width="40" height="40" as="geometry" />
        </mxCell>
        <mxCell id="DthyEMG1it-dov7D85Fx-186" style="edgeStyle=orthogonalEdgeStyle;rounded=0;orthogonalLoop=1;jettySize=auto;html=1;exitX=0.5;exitY=1;exitDx=0;exitDy=0;entryX=0.5;entryY=0;entryDx=0;entryDy=0;" edge="1" parent="1" source="DthyEMG1it-dov7D85Fx-181" target="DthyEMG1it-dov7D85Fx-185">
          <mxGeometry relative="1" as="geometry" />
        </mxCell>
        <mxCell id="DthyEMG1it-dov7D85Fx-181" value="li" style="ellipse;whiteSpace=wrap;html=1;fillColor=light-dark(#FFFFFF,#000066);strokeColor=light-dark(#000000,#000000);" vertex="1" parent="1">
          <mxGeometry x="-80" y="1260" width="40" height="40" as="geometry" />
        </mxCell>
        <mxCell id="DthyEMG1it-dov7D85Fx-190" style="edgeStyle=orthogonalEdgeStyle;rounded=0;orthogonalLoop=1;jettySize=auto;html=1;exitX=0.5;exitY=1;exitDx=0;exitDy=0;entryX=0.5;entryY=0;entryDx=0;entryDy=0;" edge="1" parent="1" source="DthyEMG1it-dov7D85Fx-185" target="DthyEMG1it-dov7D85Fx-189">
          <mxGeometry relative="1" as="geometry" />
        </mxCell>
        <mxCell id="DthyEMG1it-dov7D85Fx-185" value="ul" style="ellipse;whiteSpace=wrap;html=1;fillColor=light-dark(#FFFFFF,#000066);strokeColor=light-dark(#000000,#000000);" vertex="1" parent="1">
          <mxGeometry x="-80" y="1310" width="40" height="40" as="geometry" />
        </mxCell>
        <mxCell id="DthyEMG1it-dov7D85Fx-187" value="li" style="ellipse;whiteSpace=wrap;html=1;fillColor=light-dark(#FFFFFF,#000066);strokeColor=light-dark(#000000,#000000);" vertex="1" parent="1">
          <mxGeometry x="-80" y="1370" width="40" height="40" as="geometry" />
        </mxCell>
        <mxCell id="DthyEMG1it-dov7D85Fx-188" value="li" style="ellipse;whiteSpace=wrap;html=1;fillColor=light-dark(#FFFFFF,#000066);strokeColor=light-dark(#000000,#000000);" vertex="1" parent="1">
          <mxGeometry x="-90" y="1370" width="40" height="40" as="geometry" />
        </mxCell>
        <mxCell id="DthyEMG1it-dov7D85Fx-189" value="li" style="ellipse;whiteSpace=wrap;html=1;fillColor=light-dark(#FFFFFF,#000066);strokeColor=light-dark(#000000,#000000);" vertex="1" parent="1">
          <mxGeometry x="-100" y="1370" width="40" height="40" as="geometry" />
        </mxCell>
        <mxCell id="DthyEMG1it-dov7D85Fx-194" style="edgeStyle=orthogonalEdgeStyle;rounded=0;orthogonalLoop=1;jettySize=auto;html=1;exitX=0;exitY=0.5;exitDx=0;exitDy=0;entryX=1;entryY=0.5;entryDx=0;entryDy=0;" edge="1" parent="1" source="DthyEMG1it-dov7D85Fx-191" target="DthyEMG1it-dov7D85Fx-192">
          <mxGeometry relative="1" as="geometry" />
        </mxCell>
        <mxCell id="DthyEMG1it-dov7D85Fx-191" value="h3" style="ellipse;whiteSpace=wrap;html=1;fillColor=light-dark(#FFFFFF,#000066);strokeColor=light-dark(#000000,#000000);" vertex="1" parent="1">
          <mxGeometry x="130" y="1060" width="40" height="40" as="geometry" />
        </mxCell>
        <mxCell id="DthyEMG1it-dov7D85Fx-192" value="p" style="ellipse;whiteSpace=wrap;html=1;fillColor=light-dark(#FFFFFF,#000066);strokeColor=light-dark(#000000,#000000);" vertex="1" parent="1">
          <mxGeometry x="70" y="1060" width="40" height="40" as="geometry" />
        </mxCell>
        <mxCell id="DthyEMG1it-dov7D85Fx-201" style="edgeStyle=orthogonalEdgeStyle;rounded=0;orthogonalLoop=1;jettySize=auto;html=1;exitX=0;exitY=0.5;exitDx=0;exitDy=0;entryX=1;entryY=0.5;entryDx=0;entryDy=0;" edge="1" parent="1" source="DthyEMG1it-dov7D85Fx-195" target="DthyEMG1it-dov7D85Fx-197">
          <mxGeometry relative="1" as="geometry" />
        </mxCell>
        <mxCell id="DthyEMG1it-dov7D85Fx-354" style="edgeStyle=orthogonalEdgeStyle;rounded=0;orthogonalLoop=1;jettySize=auto;html=1;exitX=0.5;exitY=1;exitDx=0;exitDy=0;" edge="1" parent="1" source="DthyEMG1it-dov7D85Fx-195" target="DthyEMG1it-dov7D85Fx-352">
          <mxGeometry relative="1" as="geometry">
            <mxPoint x="210" y="1920" as="targetPoint" />
          </mxGeometry>
        </mxCell>
        <mxCell id="DthyEMG1it-dov7D85Fx-195" value="header" style="ellipse;whiteSpace=wrap;html=1;fillColor=light-dark(#FFFFFF,#000066);strokeColor=light-dark(#000000,#000000);" vertex="1" parent="1">
          <mxGeometry x="190" y="1420" width="40" height="40" as="geometry" />
        </mxCell>
        <mxCell id="DthyEMG1it-dov7D85Fx-202" style="edgeStyle=orthogonalEdgeStyle;rounded=0;orthogonalLoop=1;jettySize=auto;html=1;exitX=0;exitY=0.5;exitDx=0;exitDy=0;entryX=1;entryY=0.5;entryDx=0;entryDy=0;" edge="1" parent="1" source="DthyEMG1it-dov7D85Fx-197" target="DthyEMG1it-dov7D85Fx-198">
          <mxGeometry relative="1" as="geometry" />
        </mxCell>
        <mxCell id="DthyEMG1it-dov7D85Fx-197" value="section" style="ellipse;whiteSpace=wrap;html=1;fillColor=light-dark(#FFFFFF,#000066);strokeColor=light-dark(#000000,#000000);" vertex="1" parent="1">
          <mxGeometry x="140" y="1420" width="40" height="40" as="geometry" />
        </mxCell>
        <mxCell id="DthyEMG1it-dov7D85Fx-203" style="edgeStyle=orthogonalEdgeStyle;rounded=0;orthogonalLoop=1;jettySize=auto;html=1;exitX=0;exitY=0.5;exitDx=0;exitDy=0;entryX=1;entryY=0.5;entryDx=0;entryDy=0;" edge="1" parent="1" source="DthyEMG1it-dov7D85Fx-198" target="DthyEMG1it-dov7D85Fx-199">
          <mxGeometry relative="1" as="geometry" />
        </mxCell>
        <mxCell id="DthyEMG1it-dov7D85Fx-285" style="edgeStyle=orthogonalEdgeStyle;rounded=0;orthogonalLoop=1;jettySize=auto;html=1;exitX=0.5;exitY=1;exitDx=0;exitDy=0;entryX=0.5;entryY=0;entryDx=0;entryDy=0;" edge="1" parent="1" source="DthyEMG1it-dov7D85Fx-198" target="DthyEMG1it-dov7D85Fx-282">
          <mxGeometry relative="1" as="geometry">
            <mxPoint x="100" y="2030" as="targetPoint" />
          </mxGeometry>
        </mxCell>
        <mxCell id="DthyEMG1it-dov7D85Fx-198" value="section" style="ellipse;whiteSpace=wrap;html=1;fillColor=light-dark(#FFFFFF,#000066);strokeColor=light-dark(#000000,#000000);" vertex="1" parent="1">
          <mxGeometry x="80" y="1420" width="40" height="40" as="geometry" />
        </mxCell>
        <mxCell id="DthyEMG1it-dov7D85Fx-204" style="edgeStyle=orthogonalEdgeStyle;rounded=0;orthogonalLoop=1;jettySize=auto;html=1;exitX=0;exitY=0.5;exitDx=0;exitDy=0;entryX=1;entryY=0.5;entryDx=0;entryDy=0;" edge="1" parent="1" source="DthyEMG1it-dov7D85Fx-199" target="DthyEMG1it-dov7D85Fx-200">
          <mxGeometry relative="1" as="geometry" />
        </mxCell>
        <mxCell id="DthyEMG1it-dov7D85Fx-209" style="edgeStyle=orthogonalEdgeStyle;rounded=0;orthogonalLoop=1;jettySize=auto;html=1;exitX=0.5;exitY=1;exitDx=0;exitDy=0;" edge="1" parent="1" source="DthyEMG1it-dov7D85Fx-199" target="DthyEMG1it-dov7D85Fx-207">
          <mxGeometry relative="1" as="geometry" />
        </mxCell>
        <mxCell id="DthyEMG1it-dov7D85Fx-199" value="section&lt;span style=&quot;color: rgba(0, 0, 0, 0); font-family: monospace; font-size: 0px; text-align: start; text-wrap-mode: nowrap;&quot;&gt;%3CmxGraphModel%3E%3Croot%3E%3CmxCell%20id%3D%220%22%2F%3E%3CmxCell%20id%3D%221%22%20parent%3D%220%22%2F%3E%3CmxCell%20id%3D%222%22%20value%3D%22article%22%20style%3D%22ellipse%3BwhiteSpace%3Dwrap%3Bhtml%3D1%3BfillColor%3Dlight-dark(%23FFFFFF%2C%23000066)%3BstrokeColor%3Dlight-dark(%23000000%2C%23000000)%3B%22%20vertex%3D%221%22%20parent%3D%221%22%3E%3CmxGeometry%20x%3D%22190%22%20y%3D%221420%22%20width%3D%2240%22%20height%3D%2240%22%20as%3D%22geometry%22%2F%3E%3C%2FmxCell%3E%3C%2Froot%3E%3C%2FmxGraphModel%3E&lt;/span&gt;" style="ellipse;whiteSpace=wrap;html=1;fillColor=light-dark(#FFFFFF,#000066);strokeColor=light-dark(#000000,#000000);" vertex="1" parent="1">
          <mxGeometry x="20" y="1420" width="40" height="40" as="geometry" />
        </mxCell>
        <mxCell id="DthyEMG1it-dov7D85Fx-206" style="edgeStyle=orthogonalEdgeStyle;rounded=0;orthogonalLoop=1;jettySize=auto;html=1;exitX=0.5;exitY=1;exitDx=0;exitDy=0;entryX=0.5;entryY=0;entryDx=0;entryDy=0;" edge="1" parent="1" source="DthyEMG1it-dov7D85Fx-200" target="DthyEMG1it-dov7D85Fx-205">
          <mxGeometry relative="1" as="geometry" />
        </mxCell>
        <mxCell id="DthyEMG1it-dov7D85Fx-200" value="footer" style="ellipse;whiteSpace=wrap;html=1;fillColor=light-dark(#FFFFFF,#000066);strokeColor=light-dark(#000000,#000000);" vertex="1" parent="1">
          <mxGeometry x="-40" y="1420" width="40" height="40" as="geometry" />
        </mxCell>
        <mxCell id="DthyEMG1it-dov7D85Fx-205" value="p" style="ellipse;whiteSpace=wrap;html=1;fillColor=light-dark(#FFFFFF,#000066);strokeColor=light-dark(#000000,#000000);" vertex="1" parent="1">
          <mxGeometry x="-40" y="1480" width="40" height="40" as="geometry" />
        </mxCell>
        <mxCell id="DthyEMG1it-dov7D85Fx-210" style="edgeStyle=orthogonalEdgeStyle;rounded=0;orthogonalLoop=1;jettySize=auto;html=1;exitX=0;exitY=0.5;exitDx=0;exitDy=0;entryX=1;entryY=0.5;entryDx=0;entryDy=0;" edge="1" parent="1" source="DthyEMG1it-dov7D85Fx-207" target="DthyEMG1it-dov7D85Fx-208">
          <mxGeometry relative="1" as="geometry" />
        </mxCell>
        <mxCell id="DthyEMG1it-dov7D85Fx-207" value="h4" style="ellipse;whiteSpace=wrap;html=1;fillColor=light-dark(#FFFFFF,#000066);strokeColor=light-dark(#000000,#000000);" vertex="1" parent="1">
          <mxGeometry x="20" y="1530" width="40" height="40" as="geometry" />
        </mxCell>
        <mxCell id="DthyEMG1it-dov7D85Fx-218" style="edgeStyle=orthogonalEdgeStyle;rounded=0;orthogonalLoop=1;jettySize=auto;html=1;exitX=0.5;exitY=1;exitDx=0;exitDy=0;entryX=0.5;entryY=0;entryDx=0;entryDy=0;" edge="1" parent="1" source="DthyEMG1it-dov7D85Fx-208" target="DthyEMG1it-dov7D85Fx-211">
          <mxGeometry relative="1" as="geometry" />
        </mxCell>
        <mxCell id="DthyEMG1it-dov7D85Fx-208" value="form" style="ellipse;whiteSpace=wrap;html=1;fillColor=light-dark(#FFFFFF,#000066);strokeColor=light-dark(#000000,#000000);" vertex="1" parent="1">
          <mxGeometry x="-40" y="1530" width="40" height="40" as="geometry" />
        </mxCell>
        <mxCell id="DthyEMG1it-dov7D85Fx-219" style="edgeStyle=orthogonalEdgeStyle;rounded=0;orthogonalLoop=1;jettySize=auto;html=1;exitX=0;exitY=0.5;exitDx=0;exitDy=0;entryX=1;entryY=0.5;entryDx=0;entryDy=0;" edge="1" parent="1" source="DthyEMG1it-dov7D85Fx-211" target="DthyEMG1it-dov7D85Fx-212">
          <mxGeometry relative="1" as="geometry" />
        </mxCell>
        <mxCell id="DthyEMG1it-dov7D85Fx-252" style="edgeStyle=orthogonalEdgeStyle;rounded=0;orthogonalLoop=1;jettySize=auto;html=1;exitX=0.5;exitY=1;exitDx=0;exitDy=0;entryX=0.5;entryY=0;entryDx=0;entryDy=0;" edge="1" parent="1" source="DthyEMG1it-dov7D85Fx-211" target="DthyEMG1it-dov7D85Fx-250">
          <mxGeometry relative="1" as="geometry" />
        </mxCell>
        <mxCell id="DthyEMG1it-dov7D85Fx-211" value="fieldset" style="ellipse;whiteSpace=wrap;html=1;fillColor=light-dark(#FFFFFF,#000066);strokeColor=light-dark(#000000,#000000);" vertex="1" parent="1">
          <mxGeometry x="-40" y="1590" width="40" height="40" as="geometry" />
        </mxCell>
        <mxCell id="DthyEMG1it-dov7D85Fx-220" style="edgeStyle=orthogonalEdgeStyle;rounded=0;orthogonalLoop=1;jettySize=auto;html=1;exitX=0;exitY=0.5;exitDx=0;exitDy=0;entryX=1;entryY=0.5;entryDx=0;entryDy=0;" edge="1" parent="1" source="DthyEMG1it-dov7D85Fx-212" target="DthyEMG1it-dov7D85Fx-213">
          <mxGeometry relative="1" as="geometry" />
        </mxCell>
        <mxCell id="DthyEMG1it-dov7D85Fx-223" style="edgeStyle=orthogonalEdgeStyle;rounded=0;orthogonalLoop=1;jettySize=auto;html=1;exitX=0.5;exitY=1;exitDx=0;exitDy=0;entryX=0.5;entryY=0;entryDx=0;entryDy=0;" edge="1" parent="1" source="DthyEMG1it-dov7D85Fx-212" target="DthyEMG1it-dov7D85Fx-221">
          <mxGeometry relative="1" as="geometry" />
        </mxCell>
        <mxCell id="DthyEMG1it-dov7D85Fx-212" value="fieldset" style="ellipse;whiteSpace=wrap;html=1;fillColor=light-dark(#FFFFFF,#000066);strokeColor=light-dark(#000000,#000000);" vertex="1" parent="1">
          <mxGeometry x="-100" y="1590" width="40" height="40" as="geometry" />
        </mxCell>
        <mxCell id="DthyEMG1it-dov7D85Fx-216" style="edgeStyle=orthogonalEdgeStyle;rounded=0;orthogonalLoop=1;jettySize=auto;html=1;exitX=0.5;exitY=1;exitDx=0;exitDy=0;entryX=0.5;entryY=0;entryDx=0;entryDy=0;" edge="1" parent="1" source="DthyEMG1it-dov7D85Fx-213" target="DthyEMG1it-dov7D85Fx-214">
          <mxGeometry relative="1" as="geometry" />
        </mxCell>
        <mxCell id="DthyEMG1it-dov7D85Fx-213" value="div" style="ellipse;whiteSpace=wrap;html=1;fillColor=light-dark(#FFFFFF,#000066);strokeColor=light-dark(#000000,#000000);" vertex="1" parent="1">
          <mxGeometry x="-160" y="1590" width="40" height="40" as="geometry" />
        </mxCell>
        <mxCell id="DthyEMG1it-dov7D85Fx-217" style="edgeStyle=orthogonalEdgeStyle;rounded=0;orthogonalLoop=1;jettySize=auto;html=1;exitX=0;exitY=0.5;exitDx=0;exitDy=0;entryX=1;entryY=0.5;entryDx=0;entryDy=0;" edge="1" parent="1" source="DthyEMG1it-dov7D85Fx-214" target="DthyEMG1it-dov7D85Fx-215">
          <mxGeometry relative="1" as="geometry" />
        </mxCell>
        <mxCell id="DthyEMG1it-dov7D85Fx-214" value="button" style="ellipse;whiteSpace=wrap;html=1;fillColor=light-dark(#FFFFFF,#000066);strokeColor=light-dark(#000000,#000000);" vertex="1" parent="1">
          <mxGeometry x="-160" y="1650" width="40" height="40" as="geometry" />
        </mxCell>
        <mxCell id="DthyEMG1it-dov7D85Fx-215" value="button" style="ellipse;whiteSpace=wrap;html=1;fillColor=light-dark(#FFFFFF,#000066);strokeColor=light-dark(#000000,#000000);" vertex="1" parent="1">
          <mxGeometry x="-220" y="1650" width="40" height="40" as="geometry" />
        </mxCell>
        <mxCell id="DthyEMG1it-dov7D85Fx-224" style="edgeStyle=orthogonalEdgeStyle;rounded=0;orthogonalLoop=1;jettySize=auto;html=1;exitX=0;exitY=0.5;exitDx=0;exitDy=0;entryX=1;entryY=0.5;entryDx=0;entryDy=0;" edge="1" parent="1" source="DthyEMG1it-dov7D85Fx-221" target="DthyEMG1it-dov7D85Fx-222">
          <mxGeometry relative="1" as="geometry" />
        </mxCell>
        <mxCell id="DthyEMG1it-dov7D85Fx-221" value="legend" style="ellipse;whiteSpace=wrap;html=1;fillColor=light-dark(#FFFFFF,#000066);strokeColor=light-dark(#000000,#000000);" vertex="1" parent="1">
          <mxGeometry x="-100" y="1700" width="40" height="40" as="geometry" />
        </mxCell>
        <mxCell id="DthyEMG1it-dov7D85Fx-231" style="edgeStyle=orthogonalEdgeStyle;rounded=0;orthogonalLoop=1;jettySize=auto;html=1;exitX=0.5;exitY=1;exitDx=0;exitDy=0;entryX=0.5;entryY=0;entryDx=0;entryDy=0;" edge="1" parent="1" source="DthyEMG1it-dov7D85Fx-222" target="DthyEMG1it-dov7D85Fx-225">
          <mxGeometry relative="1" as="geometry" />
        </mxCell>
        <mxCell id="DthyEMG1it-dov7D85Fx-222" value="div" style="ellipse;whiteSpace=wrap;html=1;fillColor=light-dark(#FFFFFF,#000066);strokeColor=light-dark(#000000,#000000);" vertex="1" parent="1">
          <mxGeometry x="-160" y="1700" width="40" height="40" as="geometry" />
        </mxCell>
        <mxCell id="DthyEMG1it-dov7D85Fx-232" style="edgeStyle=orthogonalEdgeStyle;rounded=0;orthogonalLoop=1;jettySize=auto;html=1;exitX=0;exitY=0.5;exitDx=0;exitDy=0;entryX=1;entryY=0.5;entryDx=0;entryDy=0;" edge="1" parent="1" source="DthyEMG1it-dov7D85Fx-225" target="DthyEMG1it-dov7D85Fx-226">
          <mxGeometry relative="1" as="geometry" />
        </mxCell>
        <mxCell id="DthyEMG1it-dov7D85Fx-249" style="edgeStyle=orthogonalEdgeStyle;rounded=0;orthogonalLoop=1;jettySize=auto;html=1;exitX=0.5;exitY=1;exitDx=0;exitDy=0;entryX=0.5;entryY=0;entryDx=0;entryDy=0;" edge="1" parent="1" source="DthyEMG1it-dov7D85Fx-225" target="DthyEMG1it-dov7D85Fx-237">
          <mxGeometry relative="1" as="geometry" />
        </mxCell>
        <mxCell id="DthyEMG1it-dov7D85Fx-225" value="label" style="ellipse;whiteSpace=wrap;html=1;fillColor=light-dark(#FFFFFF,#000066);strokeColor=light-dark(#000000,#000000);" vertex="1" parent="1">
          <mxGeometry x="-160" y="1760" width="40" height="40" as="geometry" />
        </mxCell>
        <mxCell id="DthyEMG1it-dov7D85Fx-233" style="edgeStyle=orthogonalEdgeStyle;rounded=0;orthogonalLoop=1;jettySize=auto;html=1;exitX=0;exitY=0.5;exitDx=0;exitDy=0;entryX=1;entryY=0.5;entryDx=0;entryDy=0;" edge="1" parent="1" source="DthyEMG1it-dov7D85Fx-226" target="DthyEMG1it-dov7D85Fx-227">
          <mxGeometry relative="1" as="geometry" />
        </mxCell>
        <mxCell id="DthyEMG1it-dov7D85Fx-226" value="label" style="ellipse;whiteSpace=wrap;html=1;fillColor=light-dark(#FFFFFF,#000066);strokeColor=light-dark(#000000,#000000);" vertex="1" parent="1">
          <mxGeometry x="-220" y="1760" width="40" height="40" as="geometry" />
        </mxCell>
        <mxCell id="DthyEMG1it-dov7D85Fx-234" style="edgeStyle=orthogonalEdgeStyle;rounded=0;orthogonalLoop=1;jettySize=auto;html=1;exitX=0;exitY=0.5;exitDx=0;exitDy=0;entryX=1;entryY=0.5;entryDx=0;entryDy=0;" edge="1" parent="1" source="DthyEMG1it-dov7D85Fx-227" target="DthyEMG1it-dov7D85Fx-228">
          <mxGeometry relative="1" as="geometry" />
        </mxCell>
        <mxCell id="DthyEMG1it-dov7D85Fx-227" value="label" style="ellipse;whiteSpace=wrap;html=1;fillColor=light-dark(#FFFFFF,#000066);strokeColor=light-dark(#000000,#000000);" vertex="1" parent="1">
          <mxGeometry x="-280" y="1760" width="40" height="40" as="geometry" />
        </mxCell>
        <mxCell id="DthyEMG1it-dov7D85Fx-235" style="edgeStyle=orthogonalEdgeStyle;rounded=0;orthogonalLoop=1;jettySize=auto;html=1;exitX=0;exitY=0.5;exitDx=0;exitDy=0;entryX=1;entryY=0.5;entryDx=0;entryDy=0;" edge="1" parent="1" source="DthyEMG1it-dov7D85Fx-228" target="DthyEMG1it-dov7D85Fx-230">
          <mxGeometry relative="1" as="geometry" />
        </mxCell>
        <mxCell id="DthyEMG1it-dov7D85Fx-246" style="edgeStyle=orthogonalEdgeStyle;rounded=0;orthogonalLoop=1;jettySize=auto;html=1;exitX=0.5;exitY=1;exitDx=0;exitDy=0;entryX=0.5;entryY=0;entryDx=0;entryDy=0;" edge="1" parent="1" source="DthyEMG1it-dov7D85Fx-228" target="DthyEMG1it-dov7D85Fx-243">
          <mxGeometry relative="1" as="geometry" />
        </mxCell>
        <mxCell id="DthyEMG1it-dov7D85Fx-228" value="label" style="ellipse;whiteSpace=wrap;html=1;fillColor=light-dark(#FFFFFF,#000066);strokeColor=light-dark(#000000,#000000);" vertex="1" parent="1">
          <mxGeometry x="-340" y="1760" width="40" height="40" as="geometry" />
        </mxCell>
        <mxCell id="DthyEMG1it-dov7D85Fx-245" style="edgeStyle=orthogonalEdgeStyle;rounded=0;orthogonalLoop=1;jettySize=auto;html=1;exitX=0.5;exitY=1;exitDx=0;exitDy=0;entryX=0.5;entryY=0;entryDx=0;entryDy=0;" edge="1" parent="1" source="DthyEMG1it-dov7D85Fx-230" target="DthyEMG1it-dov7D85Fx-244">
          <mxGeometry relative="1" as="geometry" />
        </mxCell>
        <mxCell id="DthyEMG1it-dov7D85Fx-230" value="label" style="ellipse;whiteSpace=wrap;html=1;fillColor=light-dark(#FFFFFF,#000066);strokeColor=light-dark(#000000,#000000);" vertex="1" parent="1">
          <mxGeometry x="-400" y="1760" width="40" height="40" as="geometry" />
        </mxCell>
        <mxCell id="DthyEMG1it-dov7D85Fx-237" value="input" style="ellipse;whiteSpace=wrap;html=1;fillColor=light-dark(#FFFFFF,#000066);strokeColor=light-dark(#000000,#000000);" vertex="1" parent="1">
          <mxGeometry x="-160" y="1820" width="40" height="40" as="geometry" />
        </mxCell>
        <mxCell id="DthyEMG1it-dov7D85Fx-239" value="input" style="ellipse;whiteSpace=wrap;html=1;fillColor=light-dark(#FFFFFF,#000066);strokeColor=light-dark(#000000,#000000);" vertex="1" parent="1">
          <mxGeometry x="-220" y="1820" width="40" height="40" as="geometry" />
        </mxCell>
        <mxCell id="DthyEMG1it-dov7D85Fx-241" value="input" style="ellipse;whiteSpace=wrap;html=1;fillColor=light-dark(#FFFFFF,#000066);strokeColor=light-dark(#000000,#000000);" vertex="1" parent="1">
          <mxGeometry x="-280" y="1820" width="40" height="40" as="geometry" />
        </mxCell>
        <mxCell id="DthyEMG1it-dov7D85Fx-243" value="textarea" style="ellipse;whiteSpace=wrap;html=1;fillColor=light-dark(#FFFFFF,#000066);strokeColor=light-dark(#000000,#000000);" vertex="1" parent="1">
          <mxGeometry x="-340" y="1820" width="40" height="40" as="geometry" />
        </mxCell>
        <mxCell id="DthyEMG1it-dov7D85Fx-244" value="input" style="ellipse;whiteSpace=wrap;html=1;fillColor=light-dark(#FFFFFF,#000066);strokeColor=light-dark(#000000,#000000);" vertex="1" parent="1">
          <mxGeometry x="-400" y="1820" width="40" height="40" as="geometry" />
        </mxCell>
        <mxCell id="DthyEMG1it-dov7D85Fx-247" style="edgeStyle=orthogonalEdgeStyle;rounded=0;orthogonalLoop=1;jettySize=auto;html=1;exitX=0.5;exitY=1;exitDx=0;exitDy=0;entryX=0.477;entryY=-0.071;entryDx=0;entryDy=0;entryPerimeter=0;" edge="1" parent="1" source="DthyEMG1it-dov7D85Fx-227" target="DthyEMG1it-dov7D85Fx-241">
          <mxGeometry relative="1" as="geometry" />
        </mxCell>
        <mxCell id="DthyEMG1it-dov7D85Fx-248" style="edgeStyle=orthogonalEdgeStyle;rounded=0;orthogonalLoop=1;jettySize=auto;html=1;exitX=0.5;exitY=1;exitDx=0;exitDy=0;entryX=0.489;entryY=-0.071;entryDx=0;entryDy=0;entryPerimeter=0;" edge="1" parent="1" source="DthyEMG1it-dov7D85Fx-226" target="DthyEMG1it-dov7D85Fx-239">
          <mxGeometry relative="1" as="geometry" />
        </mxCell>
        <mxCell id="DthyEMG1it-dov7D85Fx-253" style="edgeStyle=orthogonalEdgeStyle;rounded=0;orthogonalLoop=1;jettySize=auto;html=1;exitX=0;exitY=0.5;exitDx=0;exitDy=0;entryX=1;entryY=0.5;entryDx=0;entryDy=0;" edge="1" parent="1" source="DthyEMG1it-dov7D85Fx-250" target="DthyEMG1it-dov7D85Fx-251">
          <mxGeometry relative="1" as="geometry" />
        </mxCell>
        <mxCell id="DthyEMG1it-dov7D85Fx-250" value="legend" style="ellipse;whiteSpace=wrap;html=1;fillColor=light-dark(#FFFFFF,#000066);strokeColor=light-dark(#000000,#000000);" vertex="1" parent="1">
          <mxGeometry x="-40" y="1870" width="40" height="40" as="geometry" />
        </mxCell>
        <mxCell id="DthyEMG1it-dov7D85Fx-260" style="edgeStyle=orthogonalEdgeStyle;rounded=0;orthogonalLoop=1;jettySize=auto;html=1;exitX=0.5;exitY=1;exitDx=0;exitDy=0;entryX=0.5;entryY=0;entryDx=0;entryDy=0;" edge="1" parent="1" source="DthyEMG1it-dov7D85Fx-251" target="DthyEMG1it-dov7D85Fx-256">
          <mxGeometry relative="1" as="geometry" />
        </mxCell>
        <mxCell id="DthyEMG1it-dov7D85Fx-251" value="div" style="ellipse;whiteSpace=wrap;html=1;fillColor=light-dark(#FFFFFF,#000066);strokeColor=light-dark(#000000,#000000);" vertex="1" parent="1">
          <mxGeometry x="-100" y="1870" width="40" height="40" as="geometry" />
        </mxCell>
        <mxCell id="DthyEMG1it-dov7D85Fx-255" style="edgeStyle=orthogonalEdgeStyle;rounded=0;orthogonalLoop=1;jettySize=auto;html=1;exitX=0;exitY=0.5;exitDx=0;exitDy=0;entryX=1;entryY=0.5;entryDx=0;entryDy=0;" edge="1" parent="1" source="DthyEMG1it-dov7D85Fx-256" target="DthyEMG1it-dov7D85Fx-258">
          <mxGeometry relative="1" as="geometry" />
        </mxCell>
        <mxCell id="DthyEMG1it-dov7D85Fx-281" style="edgeStyle=orthogonalEdgeStyle;rounded=0;orthogonalLoop=1;jettySize=auto;html=1;exitX=0.5;exitY=1;exitDx=0;exitDy=0;entryX=0.5;entryY=0;entryDx=0;entryDy=0;" edge="1" parent="1" source="DthyEMG1it-dov7D85Fx-256" target="DthyEMG1it-dov7D85Fx-279">
          <mxGeometry relative="1" as="geometry" />
        </mxCell>
        <mxCell id="DthyEMG1it-dov7D85Fx-256" value="label" style="ellipse;whiteSpace=wrap;html=1;fillColor=light-dark(#FFFFFF,#000066);strokeColor=light-dark(#000000,#000000);" vertex="1" parent="1">
          <mxGeometry x="-100" y="1930" width="40" height="40" as="geometry" />
        </mxCell>
        <mxCell id="DthyEMG1it-dov7D85Fx-257" style="edgeStyle=orthogonalEdgeStyle;rounded=0;orthogonalLoop=1;jettySize=auto;html=1;exitX=0;exitY=0.5;exitDx=0;exitDy=0;entryX=1;entryY=0.5;entryDx=0;entryDy=0;" edge="1" parent="1" source="DthyEMG1it-dov7D85Fx-258" target="DthyEMG1it-dov7D85Fx-259">
          <mxGeometry relative="1" as="geometry" />
        </mxCell>
        <mxCell id="DthyEMG1it-dov7D85Fx-278" style="edgeStyle=orthogonalEdgeStyle;rounded=0;orthogonalLoop=1;jettySize=auto;html=1;exitX=0.5;exitY=1;exitDx=0;exitDy=0;entryX=0.5;entryY=0;entryDx=0;entryDy=0;" edge="1" parent="1" source="DthyEMG1it-dov7D85Fx-258" target="DthyEMG1it-dov7D85Fx-277">
          <mxGeometry relative="1" as="geometry" />
        </mxCell>
        <mxCell id="DthyEMG1it-dov7D85Fx-258" value="label" style="ellipse;whiteSpace=wrap;html=1;fillColor=light-dark(#FFFFFF,#000066);strokeColor=light-dark(#000000,#000000);" vertex="1" parent="1">
          <mxGeometry x="-160" y="1930" width="40" height="40" as="geometry" />
        </mxCell>
        <mxCell id="DthyEMG1it-dov7D85Fx-262" style="edgeStyle=orthogonalEdgeStyle;rounded=0;orthogonalLoop=1;jettySize=auto;html=1;exitX=0.5;exitY=1;exitDx=0;exitDy=0;entryX=0.5;entryY=0;entryDx=0;entryDy=0;" edge="1" parent="1" source="DthyEMG1it-dov7D85Fx-259" target="DthyEMG1it-dov7D85Fx-261">
          <mxGeometry relative="1" as="geometry" />
        </mxCell>
        <mxCell id="DthyEMG1it-dov7D85Fx-259" value="label" style="ellipse;whiteSpace=wrap;html=1;fillColor=light-dark(#FFFFFF,#000066);strokeColor=light-dark(#000000,#000000);" vertex="1" parent="1">
          <mxGeometry x="-220" y="1930" width="40" height="40" as="geometry" />
        </mxCell>
        <mxCell id="DthyEMG1it-dov7D85Fx-265" style="edgeStyle=orthogonalEdgeStyle;rounded=0;orthogonalLoop=1;jettySize=auto;html=1;exitX=0.5;exitY=1;exitDx=0;exitDy=0;entryX=0.5;entryY=0;entryDx=0;entryDy=0;" edge="1" parent="1" source="DthyEMG1it-dov7D85Fx-261" target="DthyEMG1it-dov7D85Fx-263">
          <mxGeometry relative="1" as="geometry" />
        </mxCell>
        <mxCell id="DthyEMG1it-dov7D85Fx-261" value="select" style="ellipse;whiteSpace=wrap;html=1;fillColor=light-dark(#FFFFFF,#000066);strokeColor=light-dark(#000000,#000000);" vertex="1" parent="1">
          <mxGeometry x="-220" y="1990" width="40" height="40" as="geometry" />
        </mxCell>
        <mxCell id="DthyEMG1it-dov7D85Fx-266" style="edgeStyle=orthogonalEdgeStyle;rounded=0;orthogonalLoop=1;jettySize=auto;html=1;exitX=0;exitY=0.5;exitDx=0;exitDy=0;entryX=1;entryY=0.5;entryDx=0;entryDy=0;" edge="1" parent="1" source="DthyEMG1it-dov7D85Fx-263" target="DthyEMG1it-dov7D85Fx-264">
          <mxGeometry relative="1" as="geometry" />
        </mxCell>
        <mxCell id="DthyEMG1it-dov7D85Fx-276" style="edgeStyle=orthogonalEdgeStyle;rounded=0;orthogonalLoop=1;jettySize=auto;html=1;exitX=0.5;exitY=1;exitDx=0;exitDy=0;entryX=0.5;entryY=0;entryDx=0;entryDy=0;" edge="1" parent="1" source="DthyEMG1it-dov7D85Fx-263" target="DthyEMG1it-dov7D85Fx-272">
          <mxGeometry relative="1" as="geometry" />
        </mxCell>
        <mxCell id="DthyEMG1it-dov7D85Fx-263" value="optgroup" style="ellipse;whiteSpace=wrap;html=1;fillColor=light-dark(#FFFFFF,#000066);strokeColor=light-dark(#000000,#000000);" vertex="1" parent="1">
          <mxGeometry x="-220" y="2050" width="40" height="40" as="geometry" />
        </mxCell>
        <mxCell id="DthyEMG1it-dov7D85Fx-269" style="edgeStyle=orthogonalEdgeStyle;rounded=0;orthogonalLoop=1;jettySize=auto;html=1;exitX=0.5;exitY=1;exitDx=0;exitDy=0;entryX=0.5;entryY=0;entryDx=0;entryDy=0;" edge="1" parent="1" source="DthyEMG1it-dov7D85Fx-264" target="DthyEMG1it-dov7D85Fx-267">
          <mxGeometry relative="1" as="geometry" />
        </mxCell>
        <mxCell id="DthyEMG1it-dov7D85Fx-264" value="optgroup" style="ellipse;whiteSpace=wrap;html=1;fillColor=light-dark(#FFFFFF,#000066);strokeColor=light-dark(#000000,#000000);" vertex="1" parent="1">
          <mxGeometry x="-280" y="2050" width="40" height="40" as="geometry" />
        </mxCell>
        <mxCell id="DthyEMG1it-dov7D85Fx-270" style="edgeStyle=orthogonalEdgeStyle;rounded=0;orthogonalLoop=1;jettySize=auto;html=1;exitX=0;exitY=0.5;exitDx=0;exitDy=0;entryX=1;entryY=0.5;entryDx=0;entryDy=0;" edge="1" parent="1" source="DthyEMG1it-dov7D85Fx-267" target="DthyEMG1it-dov7D85Fx-268">
          <mxGeometry relative="1" as="geometry" />
        </mxCell>
        <mxCell id="DthyEMG1it-dov7D85Fx-267" value="option" style="ellipse;whiteSpace=wrap;html=1;fillColor=light-dark(#FFFFFF,#000066);strokeColor=light-dark(#000000,#000000);" vertex="1" parent="1">
          <mxGeometry x="-280" y="2110" width="40" height="40" as="geometry" />
        </mxCell>
        <mxCell id="DthyEMG1it-dov7D85Fx-268" value="option" style="ellipse;whiteSpace=wrap;html=1;fillColor=light-dark(#FFFFFF,#000066);strokeColor=light-dark(#000000,#000000);" vertex="1" parent="1">
          <mxGeometry x="-340" y="2110" width="40" height="40" as="geometry" />
        </mxCell>
        <mxCell id="DthyEMG1it-dov7D85Fx-271" style="edgeStyle=orthogonalEdgeStyle;rounded=0;orthogonalLoop=1;jettySize=auto;html=1;exitX=0;exitY=0.5;exitDx=0;exitDy=0;entryX=1;entryY=0.5;entryDx=0;entryDy=0;" edge="1" parent="1" source="DthyEMG1it-dov7D85Fx-272" target="DthyEMG1it-dov7D85Fx-273">
          <mxGeometry relative="1" as="geometry" />
        </mxCell>
        <mxCell id="DthyEMG1it-dov7D85Fx-272" value="option" style="ellipse;whiteSpace=wrap;html=1;fillColor=light-dark(#FFFFFF,#000066);strokeColor=light-dark(#000000,#000000);" vertex="1" parent="1">
          <mxGeometry x="-220" y="2160" width="40" height="40" as="geometry" />
        </mxCell>
        <mxCell id="DthyEMG1it-dov7D85Fx-275" style="edgeStyle=orthogonalEdgeStyle;rounded=0;orthogonalLoop=1;jettySize=auto;html=1;exitX=0;exitY=0.5;exitDx=0;exitDy=0;entryX=1;entryY=0.5;entryDx=0;entryDy=0;" edge="1" parent="1" source="DthyEMG1it-dov7D85Fx-273" target="DthyEMG1it-dov7D85Fx-274">
          <mxGeometry relative="1" as="geometry" />
        </mxCell>
        <mxCell id="DthyEMG1it-dov7D85Fx-273" value="option" style="ellipse;whiteSpace=wrap;html=1;fillColor=light-dark(#FFFFFF,#000066);strokeColor=light-dark(#000000,#000000);" vertex="1" parent="1">
          <mxGeometry x="-280" y="2160" width="40" height="40" as="geometry" />
        </mxCell>
        <mxCell id="DthyEMG1it-dov7D85Fx-274" value="option" style="ellipse;whiteSpace=wrap;html=1;fillColor=light-dark(#FFFFFF,#000066);strokeColor=light-dark(#000000,#000000);" vertex="1" parent="1">
          <mxGeometry x="-340" y="2160" width="40" height="40" as="geometry" />
        </mxCell>
        <mxCell id="DthyEMG1it-dov7D85Fx-277" value="input" style="ellipse;whiteSpace=wrap;html=1;fillColor=light-dark(#FFFFFF,#000066);strokeColor=light-dark(#000000,#000000);" vertex="1" parent="1">
          <mxGeometry x="-160" y="1990" width="40" height="40" as="geometry" />
        </mxCell>
        <mxCell id="DthyEMG1it-dov7D85Fx-279" value="input" style="ellipse;whiteSpace=wrap;html=1;fillColor=light-dark(#FFFFFF,#000066);strokeColor=light-dark(#000000,#000000);" vertex="1" parent="1">
          <mxGeometry x="-100" y="1990" width="40" height="40" as="geometry" />
        </mxCell>
        <mxCell id="DthyEMG1it-dov7D85Fx-286" style="edgeStyle=orthogonalEdgeStyle;rounded=0;orthogonalLoop=1;jettySize=auto;html=1;exitX=0;exitY=0.5;exitDx=0;exitDy=0;entryX=1;entryY=0.5;entryDx=0;entryDy=0;" edge="1" parent="1" source="DthyEMG1it-dov7D85Fx-282" target="DthyEMG1it-dov7D85Fx-283">
          <mxGeometry relative="1" as="geometry" />
        </mxCell>
        <mxCell id="DthyEMG1it-dov7D85Fx-282" value="h4" style="ellipse;whiteSpace=wrap;html=1;fillColor=light-dark(#FFFFFF,#000066);strokeColor=light-dark(#000000,#000000);" vertex="1" parent="1">
          <mxGeometry x="80" y="2210" width="40" height="40" as="geometry" />
        </mxCell>
        <mxCell id="DthyEMG1it-dov7D85Fx-287" style="edgeStyle=orthogonalEdgeStyle;rounded=0;orthogonalLoop=1;jettySize=auto;html=1;exitX=0;exitY=0.5;exitDx=0;exitDy=0;entryX=1;entryY=0.5;entryDx=0;entryDy=0;" edge="1" parent="1" source="DthyEMG1it-dov7D85Fx-283" target="DthyEMG1it-dov7D85Fx-284">
          <mxGeometry relative="1" as="geometry" />
        </mxCell>
        <mxCell id="DthyEMG1it-dov7D85Fx-301" style="edgeStyle=orthogonalEdgeStyle;rounded=0;orthogonalLoop=1;jettySize=auto;html=1;exitX=0.5;exitY=1;exitDx=0;exitDy=0;entryX=0.5;entryY=0;entryDx=0;entryDy=0;" edge="1" parent="1" source="DthyEMG1it-dov7D85Fx-283" target="DthyEMG1it-dov7D85Fx-299">
          <mxGeometry relative="1" as="geometry" />
        </mxCell>
        <mxCell id="DthyEMG1it-dov7D85Fx-283" value="article" style="ellipse;whiteSpace=wrap;html=1;fillColor=light-dark(#FFFFFF,#000066);strokeColor=light-dark(#000000,#000000);" vertex="1" parent="1">
          <mxGeometry x="20" y="2210" width="40" height="40" as="geometry" />
        </mxCell>
        <mxCell id="DthyEMG1it-dov7D85Fx-292" style="edgeStyle=orthogonalEdgeStyle;rounded=0;orthogonalLoop=1;jettySize=auto;html=1;exitX=0.5;exitY=1;exitDx=0;exitDy=0;entryX=0.5;entryY=0;entryDx=0;entryDy=0;" edge="1" parent="1" source="DthyEMG1it-dov7D85Fx-284" target="DthyEMG1it-dov7D85Fx-288">
          <mxGeometry relative="1" as="geometry" />
        </mxCell>
        <mxCell id="DthyEMG1it-dov7D85Fx-284" value="article" style="ellipse;whiteSpace=wrap;html=1;fillColor=light-dark(#FFFFFF,#000066);strokeColor=light-dark(#000000,#000000);" vertex="1" parent="1">
          <mxGeometry x="-40" y="2210" width="40" height="40" as="geometry" />
        </mxCell>
        <mxCell id="DthyEMG1it-dov7D85Fx-293" style="edgeStyle=orthogonalEdgeStyle;rounded=0;orthogonalLoop=1;jettySize=auto;html=1;exitX=0;exitY=0.5;exitDx=0;exitDy=0;entryX=1;entryY=0.5;entryDx=0;entryDy=0;" edge="1" parent="1" source="DthyEMG1it-dov7D85Fx-288" target="DthyEMG1it-dov7D85Fx-289">
          <mxGeometry relative="1" as="geometry" />
        </mxCell>
        <mxCell id="DthyEMG1it-dov7D85Fx-288" value="h5" style="ellipse;whiteSpace=wrap;html=1;fillColor=light-dark(#FFFFFF,#000066);strokeColor=light-dark(#000000,#000000);" vertex="1" parent="1">
          <mxGeometry x="-40" y="2260" width="40" height="40" as="geometry" />
        </mxCell>
        <mxCell id="DthyEMG1it-dov7D85Fx-296" style="edgeStyle=orthogonalEdgeStyle;rounded=0;orthogonalLoop=1;jettySize=auto;html=1;exitX=0.5;exitY=1;exitDx=0;exitDy=0;" edge="1" parent="1" source="DthyEMG1it-dov7D85Fx-289" target="DthyEMG1it-dov7D85Fx-290">
          <mxGeometry relative="1" as="geometry" />
        </mxCell>
        <mxCell id="DthyEMG1it-dov7D85Fx-289" value="figure" style="ellipse;whiteSpace=wrap;html=1;fillColor=light-dark(#FFFFFF,#000066);strokeColor=light-dark(#000000,#000000);" vertex="1" parent="1">
          <mxGeometry x="-100" y="2260" width="40" height="40" as="geometry" />
        </mxCell>
        <mxCell id="DthyEMG1it-dov7D85Fx-297" style="edgeStyle=orthogonalEdgeStyle;rounded=0;orthogonalLoop=1;jettySize=auto;html=1;exitX=0;exitY=0.5;exitDx=0;exitDy=0;entryX=1;entryY=0.5;entryDx=0;entryDy=0;" edge="1" parent="1" source="DthyEMG1it-dov7D85Fx-290" target="DthyEMG1it-dov7D85Fx-291">
          <mxGeometry relative="1" as="geometry" />
        </mxCell>
        <mxCell id="DthyEMG1it-dov7D85Fx-290" value="img" style="ellipse;whiteSpace=wrap;html=1;fillColor=light-dark(#FFFFFF,#000066);strokeColor=light-dark(#000000,#000000);" vertex="1" parent="1">
          <mxGeometry x="-100" y="2320" width="40" height="40" as="geometry" />
        </mxCell>
        <mxCell id="DthyEMG1it-dov7D85Fx-291" value="figcaption" style="ellipse;whiteSpace=wrap;html=1;fillColor=light-dark(#FFFFFF,#000066);strokeColor=light-dark(#000000,#000000);" vertex="1" parent="1">
          <mxGeometry x="-160" y="2320" width="40" height="40" as="geometry" />
        </mxCell>
        <mxCell id="DthyEMG1it-dov7D85Fx-298" style="edgeStyle=orthogonalEdgeStyle;rounded=0;orthogonalLoop=1;jettySize=auto;html=1;exitX=0;exitY=0.5;exitDx=0;exitDy=0;entryX=1;entryY=0.5;entryDx=0;entryDy=0;" edge="1" parent="1" source="DthyEMG1it-dov7D85Fx-299" target="DthyEMG1it-dov7D85Fx-300">
          <mxGeometry relative="1" as="geometry" />
        </mxCell>
        <mxCell id="DthyEMG1it-dov7D85Fx-299" value="h5" style="ellipse;whiteSpace=wrap;html=1;fillColor=light-dark(#FFFFFF,#000066);strokeColor=light-dark(#000000,#000000);" vertex="1" parent="1">
          <mxGeometry x="20" y="2370" width="40" height="40" as="geometry" />
        </mxCell>
        <mxCell id="DthyEMG1it-dov7D85Fx-309" style="edgeStyle=orthogonalEdgeStyle;rounded=0;orthogonalLoop=1;jettySize=auto;html=1;exitX=0.5;exitY=1;exitDx=0;exitDy=0;entryX=0.5;entryY=0;entryDx=0;entryDy=0;" edge="1" parent="1" source="DthyEMG1it-dov7D85Fx-300" target="DthyEMG1it-dov7D85Fx-303">
          <mxGeometry relative="1" as="geometry" />
        </mxCell>
        <mxCell id="DthyEMG1it-dov7D85Fx-300" value="figure" style="ellipse;whiteSpace=wrap;html=1;fillColor=light-dark(#FFFFFF,#000066);strokeColor=light-dark(#000000,#000000);" vertex="1" parent="1">
          <mxGeometry x="-40" y="2370" width="40" height="40" as="geometry" />
        </mxCell>
        <mxCell id="DthyEMG1it-dov7D85Fx-302" style="edgeStyle=orthogonalEdgeStyle;rounded=0;orthogonalLoop=1;jettySize=auto;html=1;exitX=0;exitY=0.5;exitDx=0;exitDy=0;entryX=1;entryY=0.5;entryDx=0;entryDy=0;" edge="1" parent="1" source="DthyEMG1it-dov7D85Fx-303" target="DthyEMG1it-dov7D85Fx-304">
          <mxGeometry relative="1" as="geometry" />
        </mxCell>
        <mxCell id="DthyEMG1it-dov7D85Fx-310" style="edgeStyle=orthogonalEdgeStyle;rounded=0;orthogonalLoop=1;jettySize=auto;html=1;exitX=0.5;exitY=1;exitDx=0;exitDy=0;entryX=0.5;entryY=0;entryDx=0;entryDy=0;" edge="1" parent="1" source="DthyEMG1it-dov7D85Fx-303" target="DthyEMG1it-dov7D85Fx-308">
          <mxGeometry relative="1" as="geometry" />
        </mxCell>
        <mxCell id="DthyEMG1it-dov7D85Fx-303" value="video" style="ellipse;whiteSpace=wrap;html=1;fillColor=light-dark(#FFFFFF,#000066);strokeColor=light-dark(#000000,#000000);" vertex="1" parent="1">
          <mxGeometry x="-40" y="2430" width="40" height="40" as="geometry" />
        </mxCell>
        <mxCell id="DthyEMG1it-dov7D85Fx-304" value="figcaption" style="ellipse;whiteSpace=wrap;html=1;fillColor=light-dark(#FFFFFF,#000066);strokeColor=light-dark(#000000,#000000);" vertex="1" parent="1">
          <mxGeometry x="-100" y="2430" width="40" height="40" as="geometry" />
        </mxCell>
        <mxCell id="DthyEMG1it-dov7D85Fx-308" value="source" style="ellipse;whiteSpace=wrap;html=1;fillColor=light-dark(#FFFFFF,#000066);strokeColor=light-dark(#000000,#000000);" vertex="1" parent="1">
          <mxGeometry x="-40" y="2490" width="40" height="40" as="geometry" />
        </mxCell>
        <mxCell id="DthyEMG1it-dov7D85Fx-320" style="edgeStyle=orthogonalEdgeStyle;rounded=0;orthogonalLoop=1;jettySize=auto;html=1;exitX=0;exitY=0.5;exitDx=0;exitDy=0;entryX=1;entryY=0.5;entryDx=0;entryDy=0;" edge="1" parent="1" source="DthyEMG1it-dov7D85Fx-311" target="DthyEMG1it-dov7D85Fx-313">
          <mxGeometry relative="1" as="geometry" />
        </mxCell>
        <mxCell id="DthyEMG1it-dov7D85Fx-311" value="h4" style="ellipse;whiteSpace=wrap;html=1;fillColor=light-dark(#FFFFFF,#000066);strokeColor=light-dark(#000000,#000000);" vertex="1" parent="1">
          <mxGeometry x="140" y="2540" width="40" height="40" as="geometry" />
        </mxCell>
        <mxCell id="DthyEMG1it-dov7D85Fx-312" style="edgeStyle=orthogonalEdgeStyle;rounded=0;orthogonalLoop=1;jettySize=auto;html=1;exitX=0.5;exitY=1;exitDx=0;exitDy=0;entryX=0.488;entryY=0.088;entryDx=0;entryDy=0;entryPerimeter=0;" edge="1" parent="1" source="DthyEMG1it-dov7D85Fx-197" target="DthyEMG1it-dov7D85Fx-311">
          <mxGeometry relative="1" as="geometry" />
        </mxCell>
        <mxCell id="DthyEMG1it-dov7D85Fx-319" style="edgeStyle=orthogonalEdgeStyle;rounded=0;orthogonalLoop=1;jettySize=auto;html=1;exitX=0.5;exitY=1;exitDx=0;exitDy=0;entryX=0.5;entryY=0;entryDx=0;entryDy=0;" edge="1" parent="1" source="DthyEMG1it-dov7D85Fx-313" target="DthyEMG1it-dov7D85Fx-314">
          <mxGeometry relative="1" as="geometry" />
        </mxCell>
        <mxCell id="DthyEMG1it-dov7D85Fx-313" value="ol" style="ellipse;whiteSpace=wrap;html=1;fillColor=light-dark(#FFFFFF,#000066);strokeColor=light-dark(#000000,#000000);" vertex="1" parent="1">
          <mxGeometry x="90" y="2540" width="40" height="40" as="geometry" />
        </mxCell>
        <mxCell id="DthyEMG1it-dov7D85Fx-321" style="edgeStyle=orthogonalEdgeStyle;rounded=0;orthogonalLoop=1;jettySize=auto;html=1;exitX=0;exitY=0.5;exitDx=0;exitDy=0;entryX=1;entryY=0.5;entryDx=0;entryDy=0;" edge="1" parent="1" source="DthyEMG1it-dov7D85Fx-314" target="DthyEMG1it-dov7D85Fx-315">
          <mxGeometry relative="1" as="geometry" />
        </mxCell>
        <mxCell id="DthyEMG1it-dov7D85Fx-327" style="edgeStyle=orthogonalEdgeStyle;rounded=0;orthogonalLoop=1;jettySize=auto;html=1;exitX=0.5;exitY=1;exitDx=0;exitDy=0;entryX=0.5;entryY=0;entryDx=0;entryDy=0;" edge="1" parent="1" source="DthyEMG1it-dov7D85Fx-314" target="DthyEMG1it-dov7D85Fx-324">
          <mxGeometry relative="1" as="geometry" />
        </mxCell>
        <mxCell id="DthyEMG1it-dov7D85Fx-314" value="li&lt;span style=&quot;color: rgba(0, 0, 0, 0); font-family: monospace; font-size: 0px; text-align: start; text-wrap-mode: nowrap;&quot;&gt;%3CmxGraphModel%3E%3Croot%3E%3CmxCell%20id%3D%220%22%2F%3E%3CmxCell%20id%3D%221%22%20parent%3D%220%22%2F%3E%3CmxCell%20id%3D%222%22%20value%3D%22ol%22%20style%3D%22ellipse%3BwhiteSpace%3Dwrap%3Bhtml%3D1%3BfillColor%3Dlight-dark(%23FFFFFF%2C%23000066)%3BstrokeColor%3Dlight-dark(%23000000%2C%23000000)%3B%22%20vertex%3D%221%22%20parent%3D%221%22%3E%3CmxGeometry%20x%3D%22140%22%20y%3D%222540%22%20width%3D%2240%22%20height%3D%2240%22%20as%3D%22geometry%22%2F%3E%3C%2FmxCell%3E%3C%2Froot%3E%3C%2FmxGraphModel%3E&lt;/span&gt;" style="ellipse;whiteSpace=wrap;html=1;fillColor=light-dark(#FFFFFF,#000066);strokeColor=light-dark(#000000,#000000);" vertex="1" parent="1">
          <mxGeometry x="90" y="2600" width="40" height="40" as="geometry" />
        </mxCell>
        <mxCell id="DthyEMG1it-dov7D85Fx-322" style="edgeStyle=orthogonalEdgeStyle;rounded=0;orthogonalLoop=1;jettySize=auto;html=1;exitX=0;exitY=0.5;exitDx=0;exitDy=0;entryX=1;entryY=0.5;entryDx=0;entryDy=0;" edge="1" parent="1" source="DthyEMG1it-dov7D85Fx-315" target="DthyEMG1it-dov7D85Fx-316">
          <mxGeometry relative="1" as="geometry" />
        </mxCell>
        <mxCell id="DthyEMG1it-dov7D85Fx-315" value="li&lt;span style=&quot;color: rgba(0, 0, 0, 0); font-family: monospace; font-size: 0px; text-align: start; text-wrap-mode: nowrap;&quot;&gt;%3CmxGraphModel%3E%3Croot%3E%3CmxCell%20id%3D%220%22%2F%3E%3CmxCell%20id%3D%221%22%20parent%3D%220%22%2F%3E%3CmxCell%20id%3D%222%22%20value%3D%22ol%22%20style%3D%22ellipse%3BwhiteSpace%3Dwrap%3Bhtml%3D1%3BfillColor%3Dlight-dark(%23FFFFFF%2C%23000066)%3BstrokeColor%3Dlight-dark(%23000000%2C%23000000)%3B%22%20vertex%3D%221%22%20parent%3D%221%22%3E%3CmxGeometry%20x%3D%22140%22%20y%3D%222540%22%20width%3D%2240%22%20height%3D%2240%22%20as%3D%22geometry%22%2F%3E%3C%2FmxCell%3E%3C%2Froot%3E%3C%2FmxGraphModel%3E&lt;/span&gt;" style="ellipse;whiteSpace=wrap;html=1;fillColor=light-dark(#FFFFFF,#000066);strokeColor=light-dark(#000000,#000000);" vertex="1" parent="1">
          <mxGeometry x="30" y="2600" width="40" height="40" as="geometry" />
        </mxCell>
        <mxCell id="DthyEMG1it-dov7D85Fx-323" style="edgeStyle=orthogonalEdgeStyle;rounded=0;orthogonalLoop=1;jettySize=auto;html=1;exitX=0;exitY=0.5;exitDx=0;exitDy=0;entryX=1;entryY=0.5;entryDx=0;entryDy=0;" edge="1" parent="1" source="DthyEMG1it-dov7D85Fx-316" target="DthyEMG1it-dov7D85Fx-317">
          <mxGeometry relative="1" as="geometry" />
        </mxCell>
        <mxCell id="DthyEMG1it-dov7D85Fx-316" value="li&lt;span style=&quot;color: rgba(0, 0, 0, 0); font-family: monospace; font-size: 0px; text-align: start; text-wrap-mode: nowrap;&quot;&gt;%3CmxGraphModel%3E%3Croot%3E%3CmxCell%20id%3D%220%22%2F%3E%3CmxCell%20id%3D%221%22%20parent%3D%220%22%2F%3E%3CmxCell%20id%3D%222%22%20value%3D%22ol%22%20style%3D%22ellipse%3BwhiteSpace%3Dwrap%3Bhtml%3D1%3BfillColor%3Dlight-dark(%23FFFFFF%2C%23000066)%3BstrokeColor%3Dlight-dark(%23000000%2C%23000000)%3B%22%20vertex%3D%221%22%20parent%3D%221%22%3E%3CmxGeometry%20x%3D%22140%22%20y%3D%222540%22%20width%3D%2240%22%20height%3D%2240%22%20as%3D%22geometry%22%2F%3E%3C%2FmxCell%3E%3C%2Froot%3E%3C%2FmxGraphModel%3E&lt;/span&gt;" style="ellipse;whiteSpace=wrap;html=1;fillColor=light-dark(#FFFFFF,#000066);strokeColor=light-dark(#000000,#000000);" vertex="1" parent="1">
          <mxGeometry x="-30" y="2600" width="40" height="40" as="geometry" />
        </mxCell>
        <mxCell id="DthyEMG1it-dov7D85Fx-317" value="li&lt;span style=&quot;color: rgba(0, 0, 0, 0); font-family: monospace; font-size: 0px; text-align: start; text-wrap-mode: nowrap;&quot;&gt;%3CmxGraphModel%3E%3Croot%3E%3CmxCell%20id%3D%220%22%2F%3E%3CmxCell%20id%3D%221%22%20parent%3D%220%22%2F%3E%3CmxCell%20id%3D%222%22%20value%3D%22ol%22%20style%3D%22ellipse%3BwhiteSpace%3Dwrap%3Bhtml%3D1%3BfillColor%3Dlight-dark(%23FFFFFF%2C%23000066)%3BstrokeColor%3Dlight-dark(%23000000%2C%23000000)%3B%22%20vertex%3D%221%22%20parent%3D%221%22%3E%3CmxGeometry%20x%3D%22140%22%20y%3D%222540%22%20width%3D%2240%22%20height%3D%2240%22%20as%3D%22geometry%22%2F%3E%3C%2FmxCell%3E%3C%2Froot%3E%3C%2FmxGraphModel%3E&lt;/span&gt;" style="ellipse;whiteSpace=wrap;html=1;fillColor=light-dark(#FFFFFF,#000066);strokeColor=light-dark(#000000,#000000);" vertex="1" parent="1">
          <mxGeometry x="-90" y="2600" width="40" height="40" as="geometry" />
        </mxCell>
        <mxCell id="DthyEMG1it-dov7D85Fx-328" style="edgeStyle=orthogonalEdgeStyle;rounded=0;orthogonalLoop=1;jettySize=auto;html=1;exitX=0.5;exitY=1;exitDx=0;exitDy=0;entryX=0.5;entryY=0;entryDx=0;entryDy=0;" edge="1" parent="1" source="DthyEMG1it-dov7D85Fx-324" target="DthyEMG1it-dov7D85Fx-325">
          <mxGeometry relative="1" as="geometry" />
        </mxCell>
        <mxCell id="DthyEMG1it-dov7D85Fx-324" value="ul" style="ellipse;whiteSpace=wrap;html=1;fillColor=light-dark(#FFFFFF,#000066);strokeColor=light-dark(#000000,#000000);" vertex="1" parent="1">
          <mxGeometry x="90" y="2650" width="40" height="40" as="geometry" />
        </mxCell>
        <mxCell id="DthyEMG1it-dov7D85Fx-329" style="edgeStyle=orthogonalEdgeStyle;rounded=0;orthogonalLoop=1;jettySize=auto;html=1;exitX=0;exitY=0.5;exitDx=0;exitDy=0;entryX=1;entryY=0.5;entryDx=0;entryDy=0;" edge="1" parent="1" source="DthyEMG1it-dov7D85Fx-325" target="DthyEMG1it-dov7D85Fx-326">
          <mxGeometry relative="1" as="geometry" />
        </mxCell>
        <mxCell id="DthyEMG1it-dov7D85Fx-325" value="li&lt;span style=&quot;color: rgba(0, 0, 0, 0); font-family: monospace; font-size: 0px; text-align: start; text-wrap-mode: nowrap;&quot;&gt;%3CmxGraphModel%3E%3Croot%3E%3CmxCell%20id%3D%220%22%2F%3E%3CmxCell%20id%3D%221%22%20parent%3D%220%22%2F%3E%3CmxCell%20id%3D%222%22%20value%3D%22ol%22%20style%3D%22ellipse%3BwhiteSpace%3Dwrap%3Bhtml%3D1%3BfillColor%3Dlight-dark(%23FFFFFF%2C%23000066)%3BstrokeColor%3Dlight-dark(%23000000%2C%23000000)%3B%22%20vertex%3D%221%22%20parent%3D%221%22%3E%3CmxGeometry%20x%3D%22140%22%20y%3D%222540%22%20width%3D%2240%22%20height%3D%2240%22%20as%3D%22geometry%22%2F%3E%3C%2FmxCell%3E%3C%2Froot%3E%3C%2FmxGraphModel%3E&lt;/span&gt;" style="ellipse;whiteSpace=wrap;html=1;fillColor=light-dark(#FFFFFF,#000066);strokeColor=light-dark(#000000,#000000);" vertex="1" parent="1">
          <mxGeometry x="90" y="2700" width="40" height="40" as="geometry" />
        </mxCell>
        <mxCell id="DthyEMG1it-dov7D85Fx-331" style="edgeStyle=orthogonalEdgeStyle;rounded=0;orthogonalLoop=1;jettySize=auto;html=1;exitX=0.5;exitY=1;exitDx=0;exitDy=0;entryX=0.5;entryY=0;entryDx=0;entryDy=0;" edge="1" parent="1" source="DthyEMG1it-dov7D85Fx-326" target="DthyEMG1it-dov7D85Fx-330">
          <mxGeometry relative="1" as="geometry" />
        </mxCell>
        <mxCell id="DthyEMG1it-dov7D85Fx-326" value="li&lt;span style=&quot;color: rgba(0, 0, 0, 0); font-family: monospace; font-size: 0px; text-align: start; text-wrap-mode: nowrap;&quot;&gt;%3CmxGraphModel%3E%3Croot%3E%3CmxCell%20id%3D%220%22%2F%3E%3CmxCell%20id%3D%221%22%20parent%3D%220%22%2F%3E%3CmxCell%20id%3D%222%22%20value%3D%22ol%22%20style%3D%22ellipse%3BwhiteSpace%3Dwrap%3Bhtml%3D1%3BfillColor%3Dlight-dark(%23FFFFFF%2C%23000066)%3BstrokeColor%3Dlight-dark(%23000000%2C%23000000)%3B%22%20vertex%3D%221%22%20parent%3D%221%22%3E%3CmxGeometry%20x%3D%22140%22%20y%3D%222540%22%20width%3D%2240%22%20height%3D%2240%22%20as%3D%22geometry%22%2F%3E%3C%2FmxCell%3E%3C%2Froot%3E%3C%2FmxGraphModel%3E&lt;/span&gt;" style="ellipse;whiteSpace=wrap;html=1;fillColor=light-dark(#FFFFFF,#000066);strokeColor=light-dark(#000000,#000000);" vertex="1" parent="1">
          <mxGeometry x="30" y="2700" width="40" height="40" as="geometry" />
        </mxCell>
        <mxCell id="DthyEMG1it-dov7D85Fx-335" style="edgeStyle=orthogonalEdgeStyle;rounded=0;orthogonalLoop=1;jettySize=auto;html=1;exitX=0.5;exitY=1;exitDx=0;exitDy=0;entryX=0.5;entryY=0;entryDx=0;entryDy=0;" edge="1" parent="1" source="DthyEMG1it-dov7D85Fx-330" target="DthyEMG1it-dov7D85Fx-332">
          <mxGeometry relative="1" as="geometry" />
        </mxCell>
        <mxCell id="DthyEMG1it-dov7D85Fx-330" value="ul" style="ellipse;whiteSpace=wrap;html=1;fillColor=light-dark(#FFFFFF,#000066);strokeColor=light-dark(#000000,#000000);" vertex="1" parent="1">
          <mxGeometry x="30" y="2750" width="40" height="40" as="geometry" />
        </mxCell>
        <mxCell id="DthyEMG1it-dov7D85Fx-336" style="edgeStyle=orthogonalEdgeStyle;rounded=0;orthogonalLoop=1;jettySize=auto;html=1;exitX=0;exitY=0.5;exitDx=0;exitDy=0;entryX=1;entryY=0.5;entryDx=0;entryDy=0;" edge="1" parent="1" source="DthyEMG1it-dov7D85Fx-332" target="DthyEMG1it-dov7D85Fx-333">
          <mxGeometry relative="1" as="geometry" />
        </mxCell>
        <mxCell id="DthyEMG1it-dov7D85Fx-332" value="li" style="ellipse;whiteSpace=wrap;html=1;fillColor=light-dark(#FFFFFF,#000066);strokeColor=light-dark(#000000,#000000);" vertex="1" parent="1">
          <mxGeometry x="30" y="2800" width="40" height="40" as="geometry" />
        </mxCell>
        <mxCell id="DthyEMG1it-dov7D85Fx-337" style="edgeStyle=orthogonalEdgeStyle;rounded=0;orthogonalLoop=1;jettySize=auto;html=1;exitX=0;exitY=0.5;exitDx=0;exitDy=0;entryX=1;entryY=0.5;entryDx=0;entryDy=0;" edge="1" parent="1" source="DthyEMG1it-dov7D85Fx-333" target="DthyEMG1it-dov7D85Fx-334">
          <mxGeometry relative="1" as="geometry" />
        </mxCell>
        <mxCell id="DthyEMG1it-dov7D85Fx-333" value="li" style="ellipse;whiteSpace=wrap;html=1;fillColor=light-dark(#FFFFFF,#000066);strokeColor=light-dark(#000000,#000000);" vertex="1" parent="1">
          <mxGeometry x="-30" y="2800" width="40" height="40" as="geometry" />
        </mxCell>
        <mxCell id="DthyEMG1it-dov7D85Fx-341" style="edgeStyle=orthogonalEdgeStyle;rounded=0;orthogonalLoop=1;jettySize=auto;html=1;exitX=0.5;exitY=1;exitDx=0;exitDy=0;entryX=0.5;entryY=0;entryDx=0;entryDy=0;" edge="1" parent="1" source="DthyEMG1it-dov7D85Fx-334" target="DthyEMG1it-dov7D85Fx-338">
          <mxGeometry relative="1" as="geometry" />
        </mxCell>
        <mxCell id="DthyEMG1it-dov7D85Fx-334" value="li" style="ellipse;whiteSpace=wrap;html=1;fillColor=light-dark(#FFFFFF,#000066);strokeColor=light-dark(#000000,#000000);" vertex="1" parent="1">
          <mxGeometry x="-90" y="2800" width="40" height="40" as="geometry" />
        </mxCell>
        <mxCell id="DthyEMG1it-dov7D85Fx-342" style="edgeStyle=orthogonalEdgeStyle;rounded=0;orthogonalLoop=1;jettySize=auto;html=1;exitX=0.5;exitY=1;exitDx=0;exitDy=0;entryX=0.5;entryY=0;entryDx=0;entryDy=0;" edge="1" parent="1" source="DthyEMG1it-dov7D85Fx-338" target="DthyEMG1it-dov7D85Fx-339">
          <mxGeometry relative="1" as="geometry" />
        </mxCell>
        <mxCell id="DthyEMG1it-dov7D85Fx-338" value="ul" style="ellipse;whiteSpace=wrap;html=1;fillColor=light-dark(#FFFFFF,#000066);strokeColor=light-dark(#000000,#000000);" vertex="1" parent="1">
          <mxGeometry x="-90" y="2860" width="40" height="40" as="geometry" />
        </mxCell>
        <mxCell id="DthyEMG1it-dov7D85Fx-344" style="edgeStyle=orthogonalEdgeStyle;rounded=0;orthogonalLoop=1;jettySize=auto;html=1;exitX=0;exitY=0.5;exitDx=0;exitDy=0;entryX=1;entryY=0.5;entryDx=0;entryDy=0;" edge="1" parent="1" source="DthyEMG1it-dov7D85Fx-339" target="DthyEMG1it-dov7D85Fx-340">
          <mxGeometry relative="1" as="geometry" />
        </mxCell>
        <mxCell id="DthyEMG1it-dov7D85Fx-339" value="li" style="ellipse;whiteSpace=wrap;html=1;fillColor=light-dark(#FFFFFF,#000066);strokeColor=light-dark(#000000,#000000);" vertex="1" parent="1">
          <mxGeometry x="-90" y="2920" width="40" height="40" as="geometry" />
        </mxCell>
        <mxCell id="DthyEMG1it-dov7D85Fx-346" style="edgeStyle=orthogonalEdgeStyle;rounded=0;orthogonalLoop=1;jettySize=auto;html=1;exitX=0.5;exitY=1;exitDx=0;exitDy=0;" edge="1" parent="1" source="DthyEMG1it-dov7D85Fx-340" target="DthyEMG1it-dov7D85Fx-345">
          <mxGeometry relative="1" as="geometry" />
        </mxCell>
        <mxCell id="DthyEMG1it-dov7D85Fx-340" value="li" style="ellipse;whiteSpace=wrap;html=1;fillColor=light-dark(#FFFFFF,#000066);strokeColor=light-dark(#000000,#000000);" vertex="1" parent="1">
          <mxGeometry x="-150" y="2920" width="40" height="40" as="geometry" />
        </mxCell>
        <mxCell id="DthyEMG1it-dov7D85Fx-350" style="edgeStyle=orthogonalEdgeStyle;rounded=0;orthogonalLoop=1;jettySize=auto;html=1;exitX=0.5;exitY=1;exitDx=0;exitDy=0;entryX=0.5;entryY=0;entryDx=0;entryDy=0;" edge="1" parent="1" source="DthyEMG1it-dov7D85Fx-345" target="DthyEMG1it-dov7D85Fx-348">
          <mxGeometry relative="1" as="geometry" />
        </mxCell>
        <mxCell id="DthyEMG1it-dov7D85Fx-345" value="ul" style="ellipse;whiteSpace=wrap;html=1;fillColor=light-dark(#FFFFFF,#000066);strokeColor=light-dark(#000000,#000000);" vertex="1" parent="1">
          <mxGeometry x="-150" y="2980" width="40" height="40" as="geometry" />
        </mxCell>
        <mxCell id="DthyEMG1it-dov7D85Fx-347" style="edgeStyle=orthogonalEdgeStyle;rounded=0;orthogonalLoop=1;jettySize=auto;html=1;exitX=0;exitY=0.5;exitDx=0;exitDy=0;entryX=1;entryY=0.5;entryDx=0;entryDy=0;" edge="1" parent="1" source="DthyEMG1it-dov7D85Fx-348" target="DthyEMG1it-dov7D85Fx-349">
          <mxGeometry relative="1" as="geometry" />
        </mxCell>
        <mxCell id="DthyEMG1it-dov7D85Fx-348" value="li" style="ellipse;whiteSpace=wrap;html=1;fillColor=light-dark(#FFFFFF,#000066);strokeColor=light-dark(#000000,#000000);" vertex="1" parent="1">
          <mxGeometry x="-150" y="3030" width="40" height="40" as="geometry" />
        </mxCell>
        <mxCell id="DthyEMG1it-dov7D85Fx-349" value="li" style="ellipse;whiteSpace=wrap;html=1;fillColor=light-dark(#FFFFFF,#000066);strokeColor=light-dark(#000000,#000000);" vertex="1" parent="1">
          <mxGeometry x="-210" y="3030" width="40" height="40" as="geometry" />
        </mxCell>
        <mxCell id="DthyEMG1it-dov7D85Fx-351" style="edgeStyle=orthogonalEdgeStyle;rounded=0;orthogonalLoop=1;jettySize=auto;html=1;exitX=0;exitY=0.5;exitDx=0;exitDy=0;entryX=1;entryY=0.5;entryDx=0;entryDy=0;" edge="1" parent="1" source="DthyEMG1it-dov7D85Fx-352" target="DthyEMG1it-dov7D85Fx-353">
          <mxGeometry relative="1" as="geometry" />
        </mxCell>
        <mxCell id="DthyEMG1it-dov7D85Fx-352" value="h3" style="ellipse;whiteSpace=wrap;html=1;fillColor=light-dark(#FFFFFF,#000066);strokeColor=light-dark(#000000,#000000);" vertex="1" parent="1">
          <mxGeometry x="190" y="2600" width="40" height="40" as="geometry" />
        </mxCell>
        <mxCell id="DthyEMG1it-dov7D85Fx-353" value="p" style="ellipse;whiteSpace=wrap;html=1;fillColor=light-dark(#FFFFFF,#000066);strokeColor=light-dark(#000000,#000000);" vertex="1" parent="1">
          <mxGeometry x="140" y="2600" width="40" height="40" as="geometry" />
        </mxCell>
        <mxCell id="DthyEMG1it-dov7D85Fx-361" style="edgeStyle=orthogonalEdgeStyle;rounded=0;orthogonalLoop=1;jettySize=auto;html=1;exitX=1;exitY=0.5;exitDx=0;exitDy=0;entryX=0;entryY=0.5;entryDx=0;entryDy=0;" edge="1" parent="1" source="DthyEMG1it-dov7D85Fx-355" target="DthyEMG1it-dov7D85Fx-356">
          <mxGeometry relative="1" as="geometry" />
        </mxCell>
        <mxCell id="DthyEMG1it-dov7D85Fx-565" style="edgeStyle=orthogonalEdgeStyle;rounded=0;orthogonalLoop=1;jettySize=auto;html=1;exitX=0.5;exitY=1;exitDx=0;exitDy=0;entryX=0.5;entryY=0;entryDx=0;entryDy=0;" edge="1" parent="1" source="DthyEMG1it-dov7D85Fx-355" target="DthyEMG1it-dov7D85Fx-564">
          <mxGeometry relative="1" as="geometry">
            <mxPoint x="280" y="1020" as="targetPoint" />
          </mxGeometry>
        </mxCell>
        <mxCell id="DthyEMG1it-dov7D85Fx-355" value="header" style="ellipse;whiteSpace=wrap;html=1;fillColor=light-dark(#FFFFFF,#000066);strokeColor=light-dark(#000000,#000000);" vertex="1" parent="1">
          <mxGeometry x="250" y="530" width="40" height="40" as="geometry" />
        </mxCell>
        <mxCell id="DthyEMG1it-dov7D85Fx-362" style="edgeStyle=orthogonalEdgeStyle;rounded=0;orthogonalLoop=1;jettySize=auto;html=1;exitX=1;exitY=0.5;exitDx=0;exitDy=0;entryX=0;entryY=0.5;entryDx=0;entryDy=0;" edge="1" parent="1" source="DthyEMG1it-dov7D85Fx-356" target="DthyEMG1it-dov7D85Fx-357">
          <mxGeometry relative="1" as="geometry" />
        </mxCell>
        <mxCell id="DthyEMG1it-dov7D85Fx-486" style="edgeStyle=orthogonalEdgeStyle;rounded=0;orthogonalLoop=1;jettySize=auto;html=1;exitX=0.5;exitY=1;exitDx=0;exitDy=0;" edge="1" parent="1" source="DthyEMG1it-dov7D85Fx-356" target="DthyEMG1it-dov7D85Fx-485">
          <mxGeometry relative="1" as="geometry">
            <mxPoint x="320" y="1590" as="targetPoint" />
          </mxGeometry>
        </mxCell>
        <mxCell id="DthyEMG1it-dov7D85Fx-356" value="div" style="ellipse;whiteSpace=wrap;html=1;fillColor=light-dark(#FFFFFF,#000066);strokeColor=light-dark(#000000,#000000);" vertex="1" parent="1">
          <mxGeometry x="300" y="530" width="40" height="40" as="geometry" />
        </mxCell>
        <mxCell id="DthyEMG1it-dov7D85Fx-363" style="edgeStyle=orthogonalEdgeStyle;rounded=0;orthogonalLoop=1;jettySize=auto;html=1;exitX=1;exitY=0.5;exitDx=0;exitDy=0;entryX=0;entryY=0.5;entryDx=0;entryDy=0;" edge="1" parent="1" source="DthyEMG1it-dov7D85Fx-357" target="DthyEMG1it-dov7D85Fx-358">
          <mxGeometry relative="1" as="geometry" />
        </mxCell>
        <mxCell id="DthyEMG1it-dov7D85Fx-407" style="edgeStyle=orthogonalEdgeStyle;rounded=0;orthogonalLoop=1;jettySize=auto;html=1;exitX=0.5;exitY=1;exitDx=0;exitDy=0;entryX=0.5;entryY=0;entryDx=0;entryDy=0;" edge="1" parent="1" source="DthyEMG1it-dov7D85Fx-357" target="DthyEMG1it-dov7D85Fx-406">
          <mxGeometry relative="1" as="geometry" />
        </mxCell>
        <mxCell id="DthyEMG1it-dov7D85Fx-357" value="section" style="ellipse;whiteSpace=wrap;html=1;fillColor=light-dark(#FFFFFF,#000066);strokeColor=light-dark(#000000,#000000);" vertex="1" parent="1">
          <mxGeometry x="350" y="530" width="40" height="40" as="geometry" />
        </mxCell>
        <mxCell id="DthyEMG1it-dov7D85Fx-364" style="edgeStyle=orthogonalEdgeStyle;rounded=0;orthogonalLoop=1;jettySize=auto;html=1;exitX=1;exitY=0.5;exitDx=0;exitDy=0;entryX=0;entryY=0.5;entryDx=0;entryDy=0;" edge="1" parent="1" source="DthyEMG1it-dov7D85Fx-358" target="DthyEMG1it-dov7D85Fx-359">
          <mxGeometry relative="1" as="geometry" />
        </mxCell>
        <mxCell id="DthyEMG1it-dov7D85Fx-372" style="edgeStyle=orthogonalEdgeStyle;rounded=0;orthogonalLoop=1;jettySize=auto;html=1;exitX=0.5;exitY=1;exitDx=0;exitDy=0;entryX=0.5;entryY=0;entryDx=0;entryDy=0;" edge="1" parent="1" source="DthyEMG1it-dov7D85Fx-358" target="DthyEMG1it-dov7D85Fx-367">
          <mxGeometry relative="1" as="geometry">
            <mxPoint x="400" y="740" as="targetPoint" />
          </mxGeometry>
        </mxCell>
        <mxCell id="DthyEMG1it-dov7D85Fx-358" value="aside" style="ellipse;whiteSpace=wrap;html=1;fillColor=light-dark(#FFFFFF,#000066);strokeColor=light-dark(#000000,#000000);" vertex="1" parent="1">
          <mxGeometry x="400" y="530" width="40" height="40" as="geometry" />
        </mxCell>
        <mxCell id="DthyEMG1it-dov7D85Fx-366" style="edgeStyle=orthogonalEdgeStyle;rounded=0;orthogonalLoop=1;jettySize=auto;html=1;exitX=0.5;exitY=1;exitDx=0;exitDy=0;entryX=0.5;entryY=0;entryDx=0;entryDy=0;" edge="1" parent="1" source="DthyEMG1it-dov7D85Fx-359" target="DthyEMG1it-dov7D85Fx-365">
          <mxGeometry relative="1" as="geometry" />
        </mxCell>
        <mxCell id="DthyEMG1it-dov7D85Fx-359" value="footer" style="ellipse;whiteSpace=wrap;html=1;fillColor=light-dark(#FFFFFF,#000066);strokeColor=light-dark(#000000,#000000);" vertex="1" parent="1">
          <mxGeometry x="450" y="530" width="40" height="40" as="geometry" />
        </mxCell>
        <mxCell id="DthyEMG1it-dov7D85Fx-365" value="p" style="ellipse;whiteSpace=wrap;html=1;fillColor=light-dark(#FFFFFF,#000066);strokeColor=light-dark(#000000,#000000);" vertex="1" parent="1">
          <mxGeometry x="450" y="590" width="40" height="40" as="geometry" />
        </mxCell>
        <mxCell id="DthyEMG1it-dov7D85Fx-370" style="edgeStyle=orthogonalEdgeStyle;rounded=0;orthogonalLoop=1;jettySize=auto;html=1;exitX=1;exitY=0.5;exitDx=0;exitDy=0;entryX=0;entryY=0.5;entryDx=0;entryDy=0;" edge="1" parent="1" source="DthyEMG1it-dov7D85Fx-367" target="DthyEMG1it-dov7D85Fx-368">
          <mxGeometry relative="1" as="geometry" />
        </mxCell>
        <mxCell id="DthyEMG1it-dov7D85Fx-367" value="h4" style="ellipse;whiteSpace=wrap;html=1;fillColor=light-dark(#FFFFFF,#000066);strokeColor=light-dark(#000000,#000000);" vertex="1" parent="1">
          <mxGeometry x="400" y="880" width="40" height="40" as="geometry" />
        </mxCell>
        <mxCell id="DthyEMG1it-dov7D85Fx-371" style="edgeStyle=orthogonalEdgeStyle;rounded=0;orthogonalLoop=1;jettySize=auto;html=1;exitX=1;exitY=0.5;exitDx=0;exitDy=0;entryX=0;entryY=0.5;entryDx=0;entryDy=0;" edge="1" parent="1" source="DthyEMG1it-dov7D85Fx-368" target="DthyEMG1it-dov7D85Fx-369">
          <mxGeometry relative="1" as="geometry" />
        </mxCell>
        <mxCell id="DthyEMG1it-dov7D85Fx-393" style="edgeStyle=orthogonalEdgeStyle;rounded=0;orthogonalLoop=1;jettySize=auto;html=1;exitX=0.5;exitY=1;exitDx=0;exitDy=0;" edge="1" parent="1" source="DthyEMG1it-dov7D85Fx-368" target="DthyEMG1it-dov7D85Fx-389">
          <mxGeometry relative="1" as="geometry" />
        </mxCell>
        <mxCell id="DthyEMG1it-dov7D85Fx-368" value="details" style="ellipse;whiteSpace=wrap;html=1;fillColor=light-dark(#FFFFFF,#000066);strokeColor=light-dark(#000000,#000000);" vertex="1" parent="1">
          <mxGeometry x="460" y="880" width="40" height="40" as="geometry" />
        </mxCell>
        <mxCell id="DthyEMG1it-dov7D85Fx-375" style="edgeStyle=orthogonalEdgeStyle;rounded=0;orthogonalLoop=1;jettySize=auto;html=1;exitX=0.5;exitY=1;exitDx=0;exitDy=0;entryX=0.5;entryY=0;entryDx=0;entryDy=0;" edge="1" parent="1" source="DthyEMG1it-dov7D85Fx-369" target="DthyEMG1it-dov7D85Fx-373">
          <mxGeometry relative="1" as="geometry" />
        </mxCell>
        <mxCell id="DthyEMG1it-dov7D85Fx-369" value="details" style="ellipse;whiteSpace=wrap;html=1;fillColor=light-dark(#FFFFFF,#000066);strokeColor=light-dark(#000000,#000000);" vertex="1" parent="1">
          <mxGeometry x="510" y="880" width="40" height="40" as="geometry" />
        </mxCell>
        <mxCell id="DthyEMG1it-dov7D85Fx-376" style="edgeStyle=orthogonalEdgeStyle;rounded=0;orthogonalLoop=1;jettySize=auto;html=1;exitX=1;exitY=0.5;exitDx=0;exitDy=0;entryX=0;entryY=0.5;entryDx=0;entryDy=0;" edge="1" parent="1" source="DthyEMG1it-dov7D85Fx-373" target="DthyEMG1it-dov7D85Fx-374">
          <mxGeometry relative="1" as="geometry" />
        </mxCell>
        <mxCell id="DthyEMG1it-dov7D85Fx-373" value="summary" style="ellipse;whiteSpace=wrap;html=1;fillColor=light-dark(#FFFFFF,#000066);strokeColor=light-dark(#000000,#000000);" vertex="1" parent="1">
          <mxGeometry x="510" y="940" width="40" height="40" as="geometry" />
        </mxCell>
        <mxCell id="DthyEMG1it-dov7D85Fx-383" style="edgeStyle=orthogonalEdgeStyle;rounded=0;orthogonalLoop=1;jettySize=auto;html=1;exitX=0.5;exitY=1;exitDx=0;exitDy=0;entryX=0.5;entryY=0;entryDx=0;entryDy=0;" edge="1" parent="1" source="DthyEMG1it-dov7D85Fx-374" target="DthyEMG1it-dov7D85Fx-377">
          <mxGeometry relative="1" as="geometry" />
        </mxCell>
        <mxCell id="DthyEMG1it-dov7D85Fx-374" value="dl" style="ellipse;whiteSpace=wrap;html=1;fillColor=light-dark(#FFFFFF,#000066);strokeColor=light-dark(#000000,#000000);" vertex="1" parent="1">
          <mxGeometry x="580" y="940" width="40" height="40" as="geometry" />
        </mxCell>
        <mxCell id="DthyEMG1it-dov7D85Fx-384" style="edgeStyle=orthogonalEdgeStyle;rounded=0;orthogonalLoop=1;jettySize=auto;html=1;exitX=1;exitY=0.5;exitDx=0;exitDy=0;entryX=0;entryY=0.5;entryDx=0;entryDy=0;" edge="1" parent="1" source="DthyEMG1it-dov7D85Fx-377" target="DthyEMG1it-dov7D85Fx-378">
          <mxGeometry relative="1" as="geometry" />
        </mxCell>
        <mxCell id="DthyEMG1it-dov7D85Fx-377" value="dt" style="ellipse;whiteSpace=wrap;html=1;fillColor=light-dark(#FFFFFF,#000066);strokeColor=light-dark(#000000,#000000);" vertex="1" parent="1">
          <mxGeometry x="580" y="1000" width="40" height="40" as="geometry" />
        </mxCell>
        <mxCell id="DthyEMG1it-dov7D85Fx-385" style="edgeStyle=orthogonalEdgeStyle;rounded=0;orthogonalLoop=1;jettySize=auto;html=1;exitX=1;exitY=0.5;exitDx=0;exitDy=0;entryX=0;entryY=0.5;entryDx=0;entryDy=0;" edge="1" parent="1" source="DthyEMG1it-dov7D85Fx-378" target="DthyEMG1it-dov7D85Fx-379">
          <mxGeometry relative="1" as="geometry" />
        </mxCell>
        <mxCell id="DthyEMG1it-dov7D85Fx-378" value="dd" style="ellipse;whiteSpace=wrap;html=1;fillColor=light-dark(#FFFFFF,#000066);strokeColor=light-dark(#000000,#000000);" vertex="1" parent="1">
          <mxGeometry x="630" y="1000" width="40" height="40" as="geometry" />
        </mxCell>
        <mxCell id="DthyEMG1it-dov7D85Fx-386" style="edgeStyle=orthogonalEdgeStyle;rounded=0;orthogonalLoop=1;jettySize=auto;html=1;exitX=1;exitY=0.5;exitDx=0;exitDy=0;entryX=0;entryY=0.5;entryDx=0;entryDy=0;" edge="1" parent="1" source="DthyEMG1it-dov7D85Fx-379" target="DthyEMG1it-dov7D85Fx-380">
          <mxGeometry relative="1" as="geometry" />
        </mxCell>
        <mxCell id="DthyEMG1it-dov7D85Fx-379" value="dt" style="ellipse;whiteSpace=wrap;html=1;fillColor=light-dark(#FFFFFF,#000066);strokeColor=light-dark(#000000,#000000);" vertex="1" parent="1">
          <mxGeometry x="680" y="1000" width="40" height="40" as="geometry" />
        </mxCell>
        <mxCell id="DthyEMG1it-dov7D85Fx-387" style="edgeStyle=orthogonalEdgeStyle;rounded=0;orthogonalLoop=1;jettySize=auto;html=1;exitX=1;exitY=0.5;exitDx=0;exitDy=0;entryX=0;entryY=0.5;entryDx=0;entryDy=0;" edge="1" parent="1" source="DthyEMG1it-dov7D85Fx-380" target="DthyEMG1it-dov7D85Fx-381">
          <mxGeometry relative="1" as="geometry" />
        </mxCell>
        <mxCell id="DthyEMG1it-dov7D85Fx-380" value="dd" style="ellipse;whiteSpace=wrap;html=1;fillColor=light-dark(#FFFFFF,#000066);strokeColor=light-dark(#000000,#000000);" vertex="1" parent="1">
          <mxGeometry x="730" y="1000" width="40" height="40" as="geometry" />
        </mxCell>
        <mxCell id="DthyEMG1it-dov7D85Fx-388" style="edgeStyle=orthogonalEdgeStyle;rounded=0;orthogonalLoop=1;jettySize=auto;html=1;exitX=1;exitY=0.5;exitDx=0;exitDy=0;entryX=0;entryY=0.5;entryDx=0;entryDy=0;" edge="1" parent="1" source="DthyEMG1it-dov7D85Fx-381" target="DthyEMG1it-dov7D85Fx-382">
          <mxGeometry relative="1" as="geometry" />
        </mxCell>
        <mxCell id="DthyEMG1it-dov7D85Fx-381" value="dt" style="ellipse;whiteSpace=wrap;html=1;fillColor=light-dark(#FFFFFF,#000066);strokeColor=light-dark(#000000,#000000);" vertex="1" parent="1">
          <mxGeometry x="780" y="1000" width="40" height="40" as="geometry" />
        </mxCell>
        <mxCell id="DthyEMG1it-dov7D85Fx-382" value="dd" style="ellipse;whiteSpace=wrap;html=1;fillColor=light-dark(#FFFFFF,#000066);strokeColor=light-dark(#000000,#000000);" vertex="1" parent="1">
          <mxGeometry x="830" y="1000" width="40" height="40" as="geometry" />
        </mxCell>
        <mxCell id="DthyEMG1it-dov7D85Fx-394" style="edgeStyle=orthogonalEdgeStyle;rounded=0;orthogonalLoop=1;jettySize=auto;html=1;exitX=1;exitY=0.5;exitDx=0;exitDy=0;entryX=0;entryY=0.5;entryDx=0;entryDy=0;" edge="1" parent="1" source="DthyEMG1it-dov7D85Fx-389" target="DthyEMG1it-dov7D85Fx-390">
          <mxGeometry relative="1" as="geometry" />
        </mxCell>
        <mxCell id="DthyEMG1it-dov7D85Fx-389" value="summary" style="ellipse;whiteSpace=wrap;html=1;fillColor=light-dark(#FFFFFF,#000066);strokeColor=light-dark(#000000,#000000);" vertex="1" parent="1">
          <mxGeometry x="460" y="1050" width="40" height="40" as="geometry" />
        </mxCell>
        <mxCell id="DthyEMG1it-dov7D85Fx-395" style="edgeStyle=orthogonalEdgeStyle;rounded=0;orthogonalLoop=1;jettySize=auto;html=1;exitX=1;exitY=0.5;exitDx=0;exitDy=0;entryX=0;entryY=0.5;entryDx=0;entryDy=0;" edge="1" parent="1" source="DthyEMG1it-dov7D85Fx-390" target="DthyEMG1it-dov7D85Fx-392">
          <mxGeometry relative="1" as="geometry" />
        </mxCell>
        <mxCell id="DthyEMG1it-dov7D85Fx-390" value="p" style="ellipse;whiteSpace=wrap;html=1;fillColor=light-dark(#FFFFFF,#000066);strokeColor=light-dark(#000000,#000000);" vertex="1" parent="1">
          <mxGeometry x="510" y="1050" width="40" height="40" as="geometry" />
        </mxCell>
        <mxCell id="DthyEMG1it-dov7D85Fx-397" style="edgeStyle=orthogonalEdgeStyle;rounded=0;orthogonalLoop=1;jettySize=auto;html=1;exitX=0.5;exitY=1;exitDx=0;exitDy=0;entryX=0.5;entryY=0;entryDx=0;entryDy=0;" edge="1" parent="1" source="DthyEMG1it-dov7D85Fx-392" target="DthyEMG1it-dov7D85Fx-396">
          <mxGeometry relative="1" as="geometry" />
        </mxCell>
        <mxCell id="DthyEMG1it-dov7D85Fx-392" value="details" style="ellipse;whiteSpace=wrap;html=1;fillColor=light-dark(#FFFFFF,#000066);strokeColor=light-dark(#000000,#000000);" vertex="1" parent="1">
          <mxGeometry x="570" y="1050" width="40" height="40" as="geometry" />
        </mxCell>
        <mxCell id="DthyEMG1it-dov7D85Fx-399" style="edgeStyle=orthogonalEdgeStyle;rounded=0;orthogonalLoop=1;jettySize=auto;html=1;exitX=1;exitY=0.5;exitDx=0;exitDy=0;entryX=0;entryY=0.5;entryDx=0;entryDy=0;" edge="1" parent="1" source="DthyEMG1it-dov7D85Fx-396" target="DthyEMG1it-dov7D85Fx-398">
          <mxGeometry relative="1" as="geometry" />
        </mxCell>
        <mxCell id="DthyEMG1it-dov7D85Fx-396" value="summary" style="ellipse;whiteSpace=wrap;html=1;fillColor=light-dark(#FFFFFF,#000066);strokeColor=light-dark(#000000,#000000);" vertex="1" parent="1">
          <mxGeometry x="570" y="1110" width="40" height="40" as="geometry" />
        </mxCell>
        <mxCell id="DthyEMG1it-dov7D85Fx-403" style="edgeStyle=orthogonalEdgeStyle;rounded=0;orthogonalLoop=1;jettySize=auto;html=1;exitX=0.5;exitY=1;exitDx=0;exitDy=0;entryX=0.5;entryY=0;entryDx=0;entryDy=0;" edge="1" parent="1" source="DthyEMG1it-dov7D85Fx-398" target="DthyEMG1it-dov7D85Fx-400">
          <mxGeometry relative="1" as="geometry" />
        </mxCell>
        <mxCell id="DthyEMG1it-dov7D85Fx-398" value="ul" style="ellipse;whiteSpace=wrap;html=1;fillColor=light-dark(#FFFFFF,#000066);strokeColor=light-dark(#000000,#000000);" vertex="1" parent="1">
          <mxGeometry x="630" y="1110" width="40" height="40" as="geometry" />
        </mxCell>
        <mxCell id="DthyEMG1it-dov7D85Fx-404" style="edgeStyle=orthogonalEdgeStyle;rounded=0;orthogonalLoop=1;jettySize=auto;html=1;exitX=1;exitY=0.5;exitDx=0;exitDy=0;entryX=0;entryY=0.5;entryDx=0;entryDy=0;" edge="1" parent="1" source="DthyEMG1it-dov7D85Fx-400" target="DthyEMG1it-dov7D85Fx-402">
          <mxGeometry relative="1" as="geometry" />
        </mxCell>
        <mxCell id="DthyEMG1it-dov7D85Fx-400" value="li" style="ellipse;whiteSpace=wrap;html=1;fillColor=light-dark(#FFFFFF,#000066);strokeColor=light-dark(#000000,#000000);" vertex="1" parent="1">
          <mxGeometry x="630" y="1160" width="40" height="40" as="geometry" />
        </mxCell>
        <mxCell id="DthyEMG1it-dov7D85Fx-401" value="li" style="ellipse;whiteSpace=wrap;html=1;fillColor=light-dark(#FFFFFF,#000066);strokeColor=light-dark(#000000,#000000);" vertex="1" parent="1">
          <mxGeometry x="730" y="1160" width="40" height="40" as="geometry" />
        </mxCell>
        <mxCell id="DthyEMG1it-dov7D85Fx-405" style="edgeStyle=orthogonalEdgeStyle;rounded=0;orthogonalLoop=1;jettySize=auto;html=1;exitX=1;exitY=0.5;exitDx=0;exitDy=0;entryX=0;entryY=0.5;entryDx=0;entryDy=0;" edge="1" parent="1" source="DthyEMG1it-dov7D85Fx-402" target="DthyEMG1it-dov7D85Fx-401">
          <mxGeometry relative="1" as="geometry" />
        </mxCell>
        <mxCell id="DthyEMG1it-dov7D85Fx-402" value="li" style="ellipse;whiteSpace=wrap;html=1;fillColor=light-dark(#FFFFFF,#000066);strokeColor=light-dark(#000000,#000000);" vertex="1" parent="1">
          <mxGeometry x="680" y="1160" width="40" height="40" as="geometry" />
        </mxCell>
        <mxCell id="DthyEMG1it-dov7D85Fx-409" style="edgeStyle=orthogonalEdgeStyle;rounded=0;orthogonalLoop=1;jettySize=auto;html=1;exitX=1;exitY=0.5;exitDx=0;exitDy=0;entryX=0;entryY=0.5;entryDx=0;entryDy=0;" edge="1" parent="1" source="DthyEMG1it-dov7D85Fx-406" target="DthyEMG1it-dov7D85Fx-408">
          <mxGeometry relative="1" as="geometry" />
        </mxCell>
        <mxCell id="DthyEMG1it-dov7D85Fx-406" value="h4" style="ellipse;whiteSpace=wrap;html=1;fillColor=light-dark(#FFFFFF,#000066);strokeColor=light-dark(#000000,#000000);" vertex="1" parent="1">
          <mxGeometry x="350" y="940" width="40" height="40" as="geometry" />
        </mxCell>
        <mxCell id="DthyEMG1it-dov7D85Fx-414" style="edgeStyle=orthogonalEdgeStyle;rounded=0;orthogonalLoop=1;jettySize=auto;html=1;exitX=0.5;exitY=1;exitDx=0;exitDy=0;entryX=0.5;entryY=0;entryDx=0;entryDy=0;" edge="1" parent="1" source="DthyEMG1it-dov7D85Fx-408" target="DthyEMG1it-dov7D85Fx-410">
          <mxGeometry relative="1" as="geometry" />
        </mxCell>
        <mxCell id="DthyEMG1it-dov7D85Fx-408" value="table" style="ellipse;whiteSpace=wrap;html=1;fillColor=light-dark(#FFFFFF,#000066);strokeColor=light-dark(#000000,#000000);" vertex="1" parent="1">
          <mxGeometry x="400" y="940" width="40" height="40" as="geometry" />
        </mxCell>
        <mxCell id="DthyEMG1it-dov7D85Fx-415" style="edgeStyle=orthogonalEdgeStyle;rounded=0;orthogonalLoop=1;jettySize=auto;html=1;exitX=1;exitY=0.5;exitDx=0;exitDy=0;entryX=0;entryY=0.5;entryDx=0;entryDy=0;" edge="1" parent="1" source="DthyEMG1it-dov7D85Fx-410" target="DthyEMG1it-dov7D85Fx-411">
          <mxGeometry relative="1" as="geometry" />
        </mxCell>
        <mxCell id="DthyEMG1it-dov7D85Fx-410" value="caption" style="ellipse;whiteSpace=wrap;html=1;fillColor=light-dark(#FFFFFF,#000066);strokeColor=light-dark(#000000,#000000);" vertex="1" parent="1">
          <mxGeometry x="400" y="1160" width="40" height="40" as="geometry" />
        </mxCell>
        <mxCell id="DthyEMG1it-dov7D85Fx-430" style="edgeStyle=orthogonalEdgeStyle;rounded=0;orthogonalLoop=1;jettySize=auto;html=1;exitX=1;exitY=0.5;exitDx=0;exitDy=0;entryX=0;entryY=0.5;entryDx=0;entryDy=0;" edge="1" parent="1" source="DthyEMG1it-dov7D85Fx-411" target="DthyEMG1it-dov7D85Fx-412">
          <mxGeometry relative="1" as="geometry" />
        </mxCell>
        <mxCell id="DthyEMG1it-dov7D85Fx-474" style="edgeStyle=orthogonalEdgeStyle;rounded=0;orthogonalLoop=1;jettySize=auto;html=1;exitX=0.5;exitY=1;exitDx=0;exitDy=0;entryX=0.5;entryY=0;entryDx=0;entryDy=0;" edge="1" parent="1" source="DthyEMG1it-dov7D85Fx-411" target="DthyEMG1it-dov7D85Fx-473">
          <mxGeometry relative="1" as="geometry">
            <mxPoint x="480.14285714285734" y="1550" as="targetPoint" />
          </mxGeometry>
        </mxCell>
        <mxCell id="DthyEMG1it-dov7D85Fx-411" value="thead" style="ellipse;whiteSpace=wrap;html=1;fillColor=light-dark(#FFFFFF,#000066);strokeColor=light-dark(#000000,#000000);" vertex="1" parent="1">
          <mxGeometry x="460" y="1160" width="40" height="40" as="geometry" />
        </mxCell>
        <mxCell id="DthyEMG1it-dov7D85Fx-417" style="edgeStyle=orthogonalEdgeStyle;rounded=0;orthogonalLoop=1;jettySize=auto;html=1;exitX=1;exitY=0.5;exitDx=0;exitDy=0;entryX=0;entryY=0.5;entryDx=0;entryDy=0;" edge="1" parent="1" source="DthyEMG1it-dov7D85Fx-412" target="DthyEMG1it-dov7D85Fx-413">
          <mxGeometry relative="1" as="geometry" />
        </mxCell>
        <mxCell id="DthyEMG1it-dov7D85Fx-434" style="edgeStyle=orthogonalEdgeStyle;rounded=0;orthogonalLoop=1;jettySize=auto;html=1;exitX=0.5;exitY=1;exitDx=0;exitDy=0;" edge="1" parent="1" source="DthyEMG1it-dov7D85Fx-412" target="DthyEMG1it-dov7D85Fx-429">
          <mxGeometry relative="1" as="geometry" />
        </mxCell>
        <mxCell id="DthyEMG1it-dov7D85Fx-412" value="tbody" style="ellipse;whiteSpace=wrap;html=1;fillColor=light-dark(#FFFFFF,#000066);strokeColor=light-dark(#000000,#000000);" vertex="1" parent="1">
          <mxGeometry x="510" y="1160" width="40" height="40" as="geometry" />
        </mxCell>
        <mxCell id="DthyEMG1it-dov7D85Fx-420" style="edgeStyle=orthogonalEdgeStyle;rounded=0;orthogonalLoop=1;jettySize=auto;html=1;exitX=0.5;exitY=1;exitDx=0;exitDy=0;entryX=0.5;entryY=0;entryDx=0;entryDy=0;" edge="1" parent="1" source="DthyEMG1it-dov7D85Fx-413" target="DthyEMG1it-dov7D85Fx-419">
          <mxGeometry relative="1" as="geometry" />
        </mxCell>
        <mxCell id="DthyEMG1it-dov7D85Fx-413" value="tfoot" style="ellipse;whiteSpace=wrap;html=1;fillColor=light-dark(#FFFFFF,#000066);strokeColor=light-dark(#000000,#000000);" vertex="1" parent="1">
          <mxGeometry x="570" y="1160" width="40" height="40" as="geometry" />
        </mxCell>
        <mxCell id="DthyEMG1it-dov7D85Fx-425" style="edgeStyle=orthogonalEdgeStyle;rounded=0;orthogonalLoop=1;jettySize=auto;html=1;exitX=0.5;exitY=1;exitDx=0;exitDy=0;entryX=0.5;entryY=0;entryDx=0;entryDy=0;" edge="1" parent="1" source="DthyEMG1it-dov7D85Fx-419" target="DthyEMG1it-dov7D85Fx-421">
          <mxGeometry relative="1" as="geometry" />
        </mxCell>
        <mxCell id="DthyEMG1it-dov7D85Fx-419" value="tr" style="ellipse;whiteSpace=wrap;html=1;fillColor=light-dark(#FFFFFF,#000066);strokeColor=light-dark(#000000,#000000);" vertex="1" parent="1">
          <mxGeometry x="570" y="1220" width="40" height="40" as="geometry" />
        </mxCell>
        <mxCell id="DthyEMG1it-dov7D85Fx-426" style="edgeStyle=orthogonalEdgeStyle;rounded=0;orthogonalLoop=1;jettySize=auto;html=1;exitX=1;exitY=0.5;exitDx=0;exitDy=0;entryX=0;entryY=0.5;entryDx=0;entryDy=0;" edge="1" parent="1" source="DthyEMG1it-dov7D85Fx-421" target="DthyEMG1it-dov7D85Fx-422">
          <mxGeometry relative="1" as="geometry" />
        </mxCell>
        <mxCell id="DthyEMG1it-dov7D85Fx-421" value="th" style="ellipse;whiteSpace=wrap;html=1;fillColor=light-dark(#FFFFFF,#000066);strokeColor=light-dark(#000000,#000000);" vertex="1" parent="1">
          <mxGeometry x="570" y="1280" width="40" height="40" as="geometry" />
        </mxCell>
        <mxCell id="DthyEMG1it-dov7D85Fx-427" style="edgeStyle=orthogonalEdgeStyle;rounded=0;orthogonalLoop=1;jettySize=auto;html=1;exitX=1;exitY=0.5;exitDx=0;exitDy=0;entryX=0;entryY=0.5;entryDx=0;entryDy=0;" edge="1" parent="1" source="DthyEMG1it-dov7D85Fx-422" target="DthyEMG1it-dov7D85Fx-424">
          <mxGeometry relative="1" as="geometry" />
        </mxCell>
        <mxCell id="DthyEMG1it-dov7D85Fx-422" value="td" style="ellipse;whiteSpace=wrap;html=1;fillColor=light-dark(#FFFFFF,#000066);strokeColor=light-dark(#000000,#000000);" vertex="1" parent="1">
          <mxGeometry x="630" y="1280" width="40" height="40" as="geometry" />
        </mxCell>
        <mxCell id="DthyEMG1it-dov7D85Fx-423" value="td" style="ellipse;whiteSpace=wrap;html=1;fillColor=light-dark(#FFFFFF,#000066);strokeColor=light-dark(#000000,#000000);" vertex="1" parent="1">
          <mxGeometry x="730" y="1280" width="40" height="40" as="geometry" />
        </mxCell>
        <mxCell id="DthyEMG1it-dov7D85Fx-428" style="edgeStyle=orthogonalEdgeStyle;rounded=0;orthogonalLoop=1;jettySize=auto;html=1;exitX=1;exitY=0.5;exitDx=0;exitDy=0;entryX=0;entryY=0.5;entryDx=0;entryDy=0;" edge="1" parent="1" source="DthyEMG1it-dov7D85Fx-424" target="DthyEMG1it-dov7D85Fx-423">
          <mxGeometry relative="1" as="geometry" />
        </mxCell>
        <mxCell id="DthyEMG1it-dov7D85Fx-424" value="td" style="ellipse;whiteSpace=wrap;html=1;fillColor=light-dark(#FFFFFF,#000066);strokeColor=light-dark(#000000,#000000);" vertex="1" parent="1">
          <mxGeometry x="680" y="1280" width="40" height="40" as="geometry" />
        </mxCell>
        <mxCell id="DthyEMG1it-dov7D85Fx-435" style="edgeStyle=orthogonalEdgeStyle;rounded=0;orthogonalLoop=1;jettySize=auto;html=1;exitX=1;exitY=0.5;exitDx=0;exitDy=0;entryX=0;entryY=0.5;entryDx=0;entryDy=0;" edge="1" parent="1" source="DthyEMG1it-dov7D85Fx-429" target="DthyEMG1it-dov7D85Fx-431">
          <mxGeometry relative="1" as="geometry" />
        </mxCell>
        <mxCell id="DthyEMG1it-dov7D85Fx-472" style="edgeStyle=orthogonalEdgeStyle;rounded=0;orthogonalLoop=1;jettySize=auto;html=1;exitX=0.5;exitY=1;exitDx=0;exitDy=0;entryX=0.5;entryY=0;entryDx=0;entryDy=0;" edge="1" parent="1" source="DthyEMG1it-dov7D85Fx-429" target="DthyEMG1it-dov7D85Fx-468">
          <mxGeometry relative="1" as="geometry" />
        </mxCell>
        <mxCell id="DthyEMG1it-dov7D85Fx-429" value="tr" style="ellipse;whiteSpace=wrap;html=1;fillColor=light-dark(#FFFFFF,#000066);strokeColor=light-dark(#000000,#000000);" vertex="1" parent="1">
          <mxGeometry x="510" y="1330" width="40" height="40" as="geometry" />
        </mxCell>
        <mxCell id="DthyEMG1it-dov7D85Fx-436" style="edgeStyle=orthogonalEdgeStyle;rounded=0;orthogonalLoop=1;jettySize=auto;html=1;exitX=1;exitY=0.5;exitDx=0;exitDy=0;entryX=0;entryY=0.5;entryDx=0;entryDy=0;" edge="1" parent="1" source="DthyEMG1it-dov7D85Fx-431" target="DthyEMG1it-dov7D85Fx-432">
          <mxGeometry relative="1" as="geometry" />
        </mxCell>
        <mxCell id="DthyEMG1it-dov7D85Fx-464" style="edgeStyle=orthogonalEdgeStyle;rounded=0;orthogonalLoop=1;jettySize=auto;html=1;exitX=0.5;exitY=1;exitDx=0;exitDy=0;" edge="1" parent="1" source="DthyEMG1it-dov7D85Fx-431" target="DthyEMG1it-dov7D85Fx-460">
          <mxGeometry relative="1" as="geometry" />
        </mxCell>
        <mxCell id="DthyEMG1it-dov7D85Fx-431" value="tr" style="ellipse;whiteSpace=wrap;html=1;fillColor=light-dark(#FFFFFF,#000066);strokeColor=light-dark(#000000,#000000);" vertex="1" parent="1">
          <mxGeometry x="570" y="1330" width="40" height="40" as="geometry" />
        </mxCell>
        <mxCell id="DthyEMG1it-dov7D85Fx-437" style="edgeStyle=orthogonalEdgeStyle;rounded=0;orthogonalLoop=1;jettySize=auto;html=1;exitX=1;exitY=0.5;exitDx=0;exitDy=0;entryX=0;entryY=0.5;entryDx=0;entryDy=0;" edge="1" parent="1" source="DthyEMG1it-dov7D85Fx-432" target="DthyEMG1it-dov7D85Fx-433">
          <mxGeometry relative="1" as="geometry" />
        </mxCell>
        <mxCell id="DthyEMG1it-dov7D85Fx-456" style="edgeStyle=orthogonalEdgeStyle;rounded=0;orthogonalLoop=1;jettySize=auto;html=1;exitX=0.5;exitY=1;exitDx=0;exitDy=0;entryX=0.5;entryY=0;entryDx=0;entryDy=0;" edge="1" parent="1" source="DthyEMG1it-dov7D85Fx-432" target="DthyEMG1it-dov7D85Fx-452">
          <mxGeometry relative="1" as="geometry" />
        </mxCell>
        <mxCell id="DthyEMG1it-dov7D85Fx-432" value="tr" style="ellipse;whiteSpace=wrap;html=1;fillColor=light-dark(#FFFFFF,#000066);strokeColor=light-dark(#000000,#000000);" vertex="1" parent="1">
          <mxGeometry x="630" y="1330" width="40" height="40" as="geometry" />
        </mxCell>
        <mxCell id="DthyEMG1it-dov7D85Fx-445" style="edgeStyle=orthogonalEdgeStyle;rounded=0;orthogonalLoop=1;jettySize=auto;html=1;exitX=0.5;exitY=1;exitDx=0;exitDy=0;entryX=0.5;entryY=0;entryDx=0;entryDy=0;" edge="1" parent="1" source="DthyEMG1it-dov7D85Fx-433" target="DthyEMG1it-dov7D85Fx-440">
          <mxGeometry relative="1" as="geometry" />
        </mxCell>
        <mxCell id="DthyEMG1it-dov7D85Fx-433" value="tr" style="ellipse;whiteSpace=wrap;html=1;fillColor=light-dark(#FFFFFF,#000066);strokeColor=light-dark(#000000,#000000);" vertex="1" parent="1">
          <mxGeometry x="680" y="1330" width="40" height="40" as="geometry" />
        </mxCell>
        <mxCell id="DthyEMG1it-dov7D85Fx-444" style="edgeStyle=orthogonalEdgeStyle;rounded=0;orthogonalLoop=1;jettySize=auto;html=1;exitX=1;exitY=0.5;exitDx=0;exitDy=0;entryX=0;entryY=0.5;entryDx=0;entryDy=0;" edge="1" parent="1" source="DthyEMG1it-dov7D85Fx-438" target="DthyEMG1it-dov7D85Fx-443">
          <mxGeometry relative="1" as="geometry" />
        </mxCell>
        <mxCell id="DthyEMG1it-dov7D85Fx-438" value="td" style="ellipse;whiteSpace=wrap;html=1;fillColor=light-dark(#FFFFFF,#000066);strokeColor=light-dark(#000000,#000000);" vertex="1" parent="1">
          <mxGeometry x="730" y="1380" width="40" height="40" as="geometry" />
        </mxCell>
        <mxCell id="DthyEMG1it-dov7D85Fx-439" style="edgeStyle=orthogonalEdgeStyle;rounded=0;orthogonalLoop=1;jettySize=auto;html=1;exitX=1;exitY=0.5;exitDx=0;exitDy=0;entryX=0;entryY=0.5;entryDx=0;entryDy=0;" edge="1" parent="1" source="DthyEMG1it-dov7D85Fx-440" target="DthyEMG1it-dov7D85Fx-438">
          <mxGeometry relative="1" as="geometry" />
        </mxCell>
        <mxCell id="DthyEMG1it-dov7D85Fx-440" value="td" style="ellipse;whiteSpace=wrap;html=1;fillColor=light-dark(#FFFFFF,#000066);strokeColor=light-dark(#000000,#000000);" vertex="1" parent="1">
          <mxGeometry x="680" y="1380" width="40" height="40" as="geometry" />
        </mxCell>
        <mxCell id="DthyEMG1it-dov7D85Fx-441" value="td" style="ellipse;whiteSpace=wrap;html=1;fillColor=light-dark(#FFFFFF,#000066);strokeColor=light-dark(#000000,#000000);" vertex="1" parent="1">
          <mxGeometry x="830" y="1380" width="40" height="40" as="geometry" />
        </mxCell>
        <mxCell id="DthyEMG1it-dov7D85Fx-442" style="edgeStyle=orthogonalEdgeStyle;rounded=0;orthogonalLoop=1;jettySize=auto;html=1;exitX=1;exitY=0.5;exitDx=0;exitDy=0;entryX=0;entryY=0.5;entryDx=0;entryDy=0;" edge="1" parent="1" source="DthyEMG1it-dov7D85Fx-443" target="DthyEMG1it-dov7D85Fx-441">
          <mxGeometry relative="1" as="geometry" />
        </mxCell>
        <mxCell id="DthyEMG1it-dov7D85Fx-443" value="td" style="ellipse;whiteSpace=wrap;html=1;fillColor=light-dark(#FFFFFF,#000066);strokeColor=light-dark(#000000,#000000);" vertex="1" parent="1">
          <mxGeometry x="780" y="1380" width="40" height="40" as="geometry" />
        </mxCell>
        <mxCell id="DthyEMG1it-dov7D85Fx-449" style="edgeStyle=orthogonalEdgeStyle;rounded=0;orthogonalLoop=1;jettySize=auto;html=1;exitX=1;exitY=0.5;exitDx=0;exitDy=0;entryX=0;entryY=0.5;entryDx=0;entryDy=0;" edge="1" parent="1" source="DthyEMG1it-dov7D85Fx-450" target="DthyEMG1it-dov7D85Fx-455">
          <mxGeometry relative="1" as="geometry" />
        </mxCell>
        <mxCell id="DthyEMG1it-dov7D85Fx-450" value="td" style="ellipse;whiteSpace=wrap;html=1;fillColor=light-dark(#FFFFFF,#000066);strokeColor=light-dark(#000000,#000000);" vertex="1" parent="1">
          <mxGeometry x="680" y="1430" width="40" height="40" as="geometry" />
        </mxCell>
        <mxCell id="DthyEMG1it-dov7D85Fx-451" style="edgeStyle=orthogonalEdgeStyle;rounded=0;orthogonalLoop=1;jettySize=auto;html=1;exitX=1;exitY=0.5;exitDx=0;exitDy=0;entryX=0;entryY=0.5;entryDx=0;entryDy=0;" edge="1" parent="1" source="DthyEMG1it-dov7D85Fx-452" target="DthyEMG1it-dov7D85Fx-450">
          <mxGeometry relative="1" as="geometry" />
        </mxCell>
        <mxCell id="DthyEMG1it-dov7D85Fx-452" value="td" style="ellipse;whiteSpace=wrap;html=1;fillColor=light-dark(#FFFFFF,#000066);strokeColor=light-dark(#000000,#000000);" vertex="1" parent="1">
          <mxGeometry x="630" y="1430" width="40" height="40" as="geometry" />
        </mxCell>
        <mxCell id="DthyEMG1it-dov7D85Fx-453" value="td" style="ellipse;whiteSpace=wrap;html=1;fillColor=light-dark(#FFFFFF,#000066);strokeColor=light-dark(#000000,#000000);" vertex="1" parent="1">
          <mxGeometry x="780" y="1430" width="40" height="40" as="geometry" />
        </mxCell>
        <mxCell id="DthyEMG1it-dov7D85Fx-454" style="edgeStyle=orthogonalEdgeStyle;rounded=0;orthogonalLoop=1;jettySize=auto;html=1;exitX=1;exitY=0.5;exitDx=0;exitDy=0;entryX=0;entryY=0.5;entryDx=0;entryDy=0;" edge="1" parent="1" source="DthyEMG1it-dov7D85Fx-455" target="DthyEMG1it-dov7D85Fx-453">
          <mxGeometry relative="1" as="geometry" />
        </mxCell>
        <mxCell id="DthyEMG1it-dov7D85Fx-455" value="td" style="ellipse;whiteSpace=wrap;html=1;fillColor=light-dark(#FFFFFF,#000066);strokeColor=light-dark(#000000,#000000);" vertex="1" parent="1">
          <mxGeometry x="730" y="1430" width="40" height="40" as="geometry" />
        </mxCell>
        <mxCell id="DthyEMG1it-dov7D85Fx-457" style="edgeStyle=orthogonalEdgeStyle;rounded=0;orthogonalLoop=1;jettySize=auto;html=1;exitX=1;exitY=0.5;exitDx=0;exitDy=0;entryX=0;entryY=0.5;entryDx=0;entryDy=0;" edge="1" parent="1" source="DthyEMG1it-dov7D85Fx-458" target="DthyEMG1it-dov7D85Fx-463">
          <mxGeometry relative="1" as="geometry" />
        </mxCell>
        <mxCell id="DthyEMG1it-dov7D85Fx-458" value="td" style="ellipse;whiteSpace=wrap;html=1;fillColor=light-dark(#FFFFFF,#000066);strokeColor=light-dark(#000000,#000000);" vertex="1" parent="1">
          <mxGeometry x="630" y="1480" width="40" height="40" as="geometry" />
        </mxCell>
        <mxCell id="DthyEMG1it-dov7D85Fx-459" style="edgeStyle=orthogonalEdgeStyle;rounded=0;orthogonalLoop=1;jettySize=auto;html=1;exitX=1;exitY=0.5;exitDx=0;exitDy=0;entryX=0;entryY=0.5;entryDx=0;entryDy=0;" edge="1" parent="1" source="DthyEMG1it-dov7D85Fx-460" target="DthyEMG1it-dov7D85Fx-458">
          <mxGeometry relative="1" as="geometry" />
        </mxCell>
        <mxCell id="DthyEMG1it-dov7D85Fx-460" value="td" style="ellipse;whiteSpace=wrap;html=1;fillColor=light-dark(#FFFFFF,#000066);strokeColor=light-dark(#000000,#000000);" vertex="1" parent="1">
          <mxGeometry x="570" y="1480" width="40" height="40" as="geometry" />
        </mxCell>
        <mxCell id="DthyEMG1it-dov7D85Fx-461" value="td" style="ellipse;whiteSpace=wrap;html=1;fillColor=light-dark(#FFFFFF,#000066);strokeColor=light-dark(#000000,#000000);" vertex="1" parent="1">
          <mxGeometry x="730" y="1480" width="40" height="40" as="geometry" />
        </mxCell>
        <mxCell id="DthyEMG1it-dov7D85Fx-462" style="edgeStyle=orthogonalEdgeStyle;rounded=0;orthogonalLoop=1;jettySize=auto;html=1;exitX=1;exitY=0.5;exitDx=0;exitDy=0;entryX=0;entryY=0.5;entryDx=0;entryDy=0;" edge="1" parent="1" source="DthyEMG1it-dov7D85Fx-463" target="DthyEMG1it-dov7D85Fx-461">
          <mxGeometry relative="1" as="geometry" />
        </mxCell>
        <mxCell id="DthyEMG1it-dov7D85Fx-463" value="td" style="ellipse;whiteSpace=wrap;html=1;fillColor=light-dark(#FFFFFF,#000066);strokeColor=light-dark(#000000,#000000);" vertex="1" parent="1">
          <mxGeometry x="680" y="1480" width="40" height="40" as="geometry" />
        </mxCell>
        <mxCell id="DthyEMG1it-dov7D85Fx-465" style="edgeStyle=orthogonalEdgeStyle;rounded=0;orthogonalLoop=1;jettySize=auto;html=1;exitX=1;exitY=0.5;exitDx=0;exitDy=0;entryX=0;entryY=0.5;entryDx=0;entryDy=0;" edge="1" parent="1" source="DthyEMG1it-dov7D85Fx-466" target="DthyEMG1it-dov7D85Fx-471">
          <mxGeometry relative="1" as="geometry" />
        </mxCell>
        <mxCell id="DthyEMG1it-dov7D85Fx-466" value="td" style="ellipse;whiteSpace=wrap;html=1;fillColor=light-dark(#FFFFFF,#000066);strokeColor=light-dark(#000000,#000000);" vertex="1" parent="1">
          <mxGeometry x="570" y="1530" width="40" height="40" as="geometry" />
        </mxCell>
        <mxCell id="DthyEMG1it-dov7D85Fx-467" style="edgeStyle=orthogonalEdgeStyle;rounded=0;orthogonalLoop=1;jettySize=auto;html=1;exitX=1;exitY=0.5;exitDx=0;exitDy=0;entryX=0;entryY=0.5;entryDx=0;entryDy=0;" edge="1" parent="1" source="DthyEMG1it-dov7D85Fx-468" target="DthyEMG1it-dov7D85Fx-466">
          <mxGeometry relative="1" as="geometry" />
        </mxCell>
        <mxCell id="DthyEMG1it-dov7D85Fx-468" value="td" style="ellipse;whiteSpace=wrap;html=1;fillColor=light-dark(#FFFFFF,#000066);strokeColor=light-dark(#000000,#000000);" vertex="1" parent="1">
          <mxGeometry x="510" y="1530" width="40" height="40" as="geometry" />
        </mxCell>
        <mxCell id="DthyEMG1it-dov7D85Fx-469" value="td" style="ellipse;whiteSpace=wrap;html=1;fillColor=light-dark(#FFFFFF,#000066);strokeColor=light-dark(#000000,#000000);" vertex="1" parent="1">
          <mxGeometry x="680" y="1530" width="40" height="40" as="geometry" />
        </mxCell>
        <mxCell id="DthyEMG1it-dov7D85Fx-470" style="edgeStyle=orthogonalEdgeStyle;rounded=0;orthogonalLoop=1;jettySize=auto;html=1;exitX=1;exitY=0.5;exitDx=0;exitDy=0;entryX=0;entryY=0.5;entryDx=0;entryDy=0;" edge="1" parent="1" source="DthyEMG1it-dov7D85Fx-471" target="DthyEMG1it-dov7D85Fx-469">
          <mxGeometry relative="1" as="geometry" />
        </mxCell>
        <mxCell id="DthyEMG1it-dov7D85Fx-471" value="td" style="ellipse;whiteSpace=wrap;html=1;fillColor=light-dark(#FFFFFF,#000066);strokeColor=light-dark(#000000,#000000);" vertex="1" parent="1">
          <mxGeometry x="630" y="1530" width="40" height="40" as="geometry" />
        </mxCell>
        <mxCell id="DthyEMG1it-dov7D85Fx-480" style="edgeStyle=orthogonalEdgeStyle;rounded=0;orthogonalLoop=1;jettySize=auto;html=1;exitX=0.5;exitY=1;exitDx=0;exitDy=0;entryX=0.5;entryY=0;entryDx=0;entryDy=0;" edge="1" parent="1" source="DthyEMG1it-dov7D85Fx-473" target="DthyEMG1it-dov7D85Fx-475">
          <mxGeometry relative="1" as="geometry" />
        </mxCell>
        <mxCell id="DthyEMG1it-dov7D85Fx-473" value="tr" style="ellipse;whiteSpace=wrap;html=1;fillColor=light-dark(#FFFFFF,#000066);strokeColor=light-dark(#000000,#000000);" vertex="1" parent="1">
          <mxGeometry x="460" y="1590" width="40" height="40" as="geometry" />
        </mxCell>
        <mxCell id="DthyEMG1it-dov7D85Fx-481" style="edgeStyle=orthogonalEdgeStyle;rounded=0;orthogonalLoop=1;jettySize=auto;html=1;exitX=1;exitY=0.5;exitDx=0;exitDy=0;entryX=0;entryY=0.5;entryDx=0;entryDy=0;" edge="1" parent="1" source="DthyEMG1it-dov7D85Fx-475" target="DthyEMG1it-dov7D85Fx-476">
          <mxGeometry relative="1" as="geometry" />
        </mxCell>
        <mxCell id="DthyEMG1it-dov7D85Fx-475" value="th" style="ellipse;whiteSpace=wrap;html=1;fillColor=light-dark(#FFFFFF,#000066);strokeColor=light-dark(#000000,#000000);" vertex="1" parent="1">
          <mxGeometry x="460" y="1650" width="40" height="40" as="geometry" />
        </mxCell>
        <mxCell id="DthyEMG1it-dov7D85Fx-482" style="edgeStyle=orthogonalEdgeStyle;rounded=0;orthogonalLoop=1;jettySize=auto;html=1;exitX=1;exitY=0.5;exitDx=0;exitDy=0;entryX=0;entryY=0.5;entryDx=0;entryDy=0;" edge="1" parent="1" source="DthyEMG1it-dov7D85Fx-476" target="DthyEMG1it-dov7D85Fx-477">
          <mxGeometry relative="1" as="geometry" />
        </mxCell>
        <mxCell id="DthyEMG1it-dov7D85Fx-476" value="th" style="ellipse;whiteSpace=wrap;html=1;fillColor=light-dark(#FFFFFF,#000066);strokeColor=light-dark(#000000,#000000);" vertex="1" parent="1">
          <mxGeometry x="510" y="1650" width="40" height="40" as="geometry" />
        </mxCell>
        <mxCell id="DthyEMG1it-dov7D85Fx-483" style="edgeStyle=orthogonalEdgeStyle;rounded=0;orthogonalLoop=1;jettySize=auto;html=1;exitX=1;exitY=0.5;exitDx=0;exitDy=0;entryX=0;entryY=0.5;entryDx=0;entryDy=0;" edge="1" parent="1" source="DthyEMG1it-dov7D85Fx-477" target="DthyEMG1it-dov7D85Fx-478">
          <mxGeometry relative="1" as="geometry" />
        </mxCell>
        <mxCell id="DthyEMG1it-dov7D85Fx-477" value="th" style="ellipse;whiteSpace=wrap;html=1;fillColor=light-dark(#FFFFFF,#000066);strokeColor=light-dark(#000000,#000000);" vertex="1" parent="1">
          <mxGeometry x="570" y="1650" width="40" height="40" as="geometry" />
        </mxCell>
        <mxCell id="DthyEMG1it-dov7D85Fx-484" style="edgeStyle=orthogonalEdgeStyle;rounded=0;orthogonalLoop=1;jettySize=auto;html=1;exitX=1;exitY=0.5;exitDx=0;exitDy=0;entryX=0;entryY=0.5;entryDx=0;entryDy=0;" edge="1" parent="1" source="DthyEMG1it-dov7D85Fx-478" target="DthyEMG1it-dov7D85Fx-479">
          <mxGeometry relative="1" as="geometry" />
        </mxCell>
        <mxCell id="DthyEMG1it-dov7D85Fx-478" value="th" style="ellipse;whiteSpace=wrap;html=1;fillColor=light-dark(#FFFFFF,#000066);strokeColor=light-dark(#000000,#000000);" vertex="1" parent="1">
          <mxGeometry x="630" y="1650" width="40" height="40" as="geometry" />
        </mxCell>
        <mxCell id="DthyEMG1it-dov7D85Fx-479" value="th" style="ellipse;whiteSpace=wrap;html=1;fillColor=light-dark(#FFFFFF,#000066);strokeColor=light-dark(#000000,#000000);" vertex="1" parent="1">
          <mxGeometry x="680" y="1650" width="40" height="40" as="geometry" />
        </mxCell>
        <mxCell id="DthyEMG1it-dov7D85Fx-491" style="edgeStyle=orthogonalEdgeStyle;rounded=0;orthogonalLoop=1;jettySize=auto;html=1;exitX=1;exitY=0.5;exitDx=0;exitDy=0;entryX=0;entryY=0.5;entryDx=0;entryDy=0;" edge="1" parent="1" source="DthyEMG1it-dov7D85Fx-485" target="DthyEMG1it-dov7D85Fx-487">
          <mxGeometry relative="1" as="geometry" />
        </mxCell>
        <mxCell id="DthyEMG1it-dov7D85Fx-519" style="edgeStyle=orthogonalEdgeStyle;rounded=0;orthogonalLoop=1;jettySize=auto;html=1;exitX=0.5;exitY=1;exitDx=0;exitDy=0;entryX=0.5;entryY=0;entryDx=0;entryDy=0;" edge="1" parent="1" source="DthyEMG1it-dov7D85Fx-485" target="DthyEMG1it-dov7D85Fx-517">
          <mxGeometry relative="1" as="geometry" />
        </mxCell>
        <mxCell id="DthyEMG1it-dov7D85Fx-485" value="section" style="ellipse;whiteSpace=wrap;html=1;fillColor=light-dark(#FFFFFF,#000066);strokeColor=light-dark(#000000,#000000);" vertex="1" parent="1">
          <mxGeometry x="300" y="990" width="40" height="40" as="geometry" />
        </mxCell>
        <mxCell id="DthyEMG1it-dov7D85Fx-492" style="edgeStyle=orthogonalEdgeStyle;rounded=0;orthogonalLoop=1;jettySize=auto;html=1;exitX=0.5;exitY=1;exitDx=0;exitDy=0;entryX=0.5;entryY=0;entryDx=0;entryDy=0;" edge="1" parent="1" source="DthyEMG1it-dov7D85Fx-487" target="DthyEMG1it-dov7D85Fx-488">
          <mxGeometry relative="1" as="geometry" />
        </mxCell>
        <mxCell id="DthyEMG1it-dov7D85Fx-487" value="section" style="ellipse;whiteSpace=wrap;html=1;fillColor=light-dark(#FFFFFF,#000066);strokeColor=light-dark(#000000,#000000);" vertex="1" parent="1">
          <mxGeometry x="350" y="990" width="40" height="40" as="geometry" />
        </mxCell>
        <mxCell id="DthyEMG1it-dov7D85Fx-493" style="edgeStyle=orthogonalEdgeStyle;rounded=0;orthogonalLoop=1;jettySize=auto;html=1;exitX=1;exitY=0.5;exitDx=0;exitDy=0;entryX=0;entryY=0.5;entryDx=0;entryDy=0;" edge="1" parent="1" source="DthyEMG1it-dov7D85Fx-488" target="DthyEMG1it-dov7D85Fx-489">
          <mxGeometry relative="1" as="geometry" />
        </mxCell>
        <mxCell id="DthyEMG1it-dov7D85Fx-488" value="h4" style="ellipse;whiteSpace=wrap;html=1;fillColor=light-dark(#FFFFFF,#000066);strokeColor=light-dark(#000000,#000000);" vertex="1" parent="1">
          <mxGeometry x="350" y="1210" width="40" height="40" as="geometry" />
        </mxCell>
        <mxCell id="DthyEMG1it-dov7D85Fx-495" style="edgeStyle=orthogonalEdgeStyle;rounded=0;orthogonalLoop=1;jettySize=auto;html=1;exitX=0.5;exitY=1;exitDx=0;exitDy=0;entryX=0.5;entryY=0;entryDx=0;entryDy=0;" edge="1" parent="1" source="DthyEMG1it-dov7D85Fx-489" target="DthyEMG1it-dov7D85Fx-494">
          <mxGeometry relative="1" as="geometry">
            <mxPoint x="420.14285714285734" y="1660" as="targetPoint" />
          </mxGeometry>
        </mxCell>
        <mxCell id="DthyEMG1it-dov7D85Fx-489" value="ol" style="ellipse;whiteSpace=wrap;html=1;fillColor=light-dark(#FFFFFF,#000066);strokeColor=light-dark(#000000,#000000);" vertex="1" parent="1">
          <mxGeometry x="400" y="1210" width="40" height="40" as="geometry" />
        </mxCell>
        <mxCell id="DthyEMG1it-dov7D85Fx-498" style="edgeStyle=orthogonalEdgeStyle;rounded=0;orthogonalLoop=1;jettySize=auto;html=1;exitX=1;exitY=0.5;exitDx=0;exitDy=0;" edge="1" parent="1" source="DthyEMG1it-dov7D85Fx-494" target="DthyEMG1it-dov7D85Fx-496">
          <mxGeometry relative="1" as="geometry" />
        </mxCell>
        <mxCell id="DthyEMG1it-dov7D85Fx-503" style="edgeStyle=orthogonalEdgeStyle;rounded=0;orthogonalLoop=1;jettySize=auto;html=1;exitX=0.5;exitY=1;exitDx=0;exitDy=0;entryX=0.5;entryY=0;entryDx=0;entryDy=0;" edge="1" parent="1" source="DthyEMG1it-dov7D85Fx-494" target="DthyEMG1it-dov7D85Fx-501">
          <mxGeometry relative="1" as="geometry" />
        </mxCell>
        <mxCell id="DthyEMG1it-dov7D85Fx-494" value="li" style="ellipse;whiteSpace=wrap;html=1;fillColor=light-dark(#FFFFFF,#000066);strokeColor=light-dark(#000000,#000000);" vertex="1" parent="1">
          <mxGeometry x="400" y="1700" width="40" height="40" as="geometry" />
        </mxCell>
        <mxCell id="DthyEMG1it-dov7D85Fx-499" style="edgeStyle=orthogonalEdgeStyle;rounded=0;orthogonalLoop=1;jettySize=auto;html=1;exitX=1;exitY=0.5;exitDx=0;exitDy=0;entryX=0;entryY=0.5;entryDx=0;entryDy=0;" edge="1" parent="1" source="DthyEMG1it-dov7D85Fx-496" target="DthyEMG1it-dov7D85Fx-497">
          <mxGeometry relative="1" as="geometry" />
        </mxCell>
        <mxCell id="DthyEMG1it-dov7D85Fx-496" value="li" style="ellipse;whiteSpace=wrap;html=1;fillColor=light-dark(#FFFFFF,#000066);strokeColor=light-dark(#000000,#000000);" vertex="1" parent="1">
          <mxGeometry x="460" y="1700" width="40" height="40" as="geometry" />
        </mxCell>
        <mxCell id="DthyEMG1it-dov7D85Fx-497" value="li" style="ellipse;whiteSpace=wrap;html=1;fillColor=light-dark(#FFFFFF,#000066);strokeColor=light-dark(#000000,#000000);" vertex="1" parent="1">
          <mxGeometry x="510" y="1700" width="40" height="40" as="geometry" />
        </mxCell>
        <mxCell id="DthyEMG1it-dov7D85Fx-500" style="edgeStyle=orthogonalEdgeStyle;rounded=0;orthogonalLoop=1;jettySize=auto;html=1;exitX=1;exitY=0.5;exitDx=0;exitDy=0;" edge="1" parent="1" source="DthyEMG1it-dov7D85Fx-501" target="DthyEMG1it-dov7D85Fx-502">
          <mxGeometry relative="1" as="geometry" />
        </mxCell>
        <mxCell id="DthyEMG1it-dov7D85Fx-501" value="li" style="ellipse;whiteSpace=wrap;html=1;fillColor=light-dark(#FFFFFF,#000066);strokeColor=light-dark(#000000,#000000);" vertex="1" parent="1">
          <mxGeometry x="400" y="1754" width="40" height="40" as="geometry" />
        </mxCell>
        <mxCell id="DthyEMG1it-dov7D85Fx-512" style="edgeStyle=orthogonalEdgeStyle;rounded=0;orthogonalLoop=1;jettySize=auto;html=1;exitX=0.5;exitY=1;exitDx=0;exitDy=0;entryX=0.5;entryY=0;entryDx=0;entryDy=0;" edge="1" parent="1" source="DthyEMG1it-dov7D85Fx-502" target="DthyEMG1it-dov7D85Fx-504">
          <mxGeometry relative="1" as="geometry" />
        </mxCell>
        <mxCell id="DthyEMG1it-dov7D85Fx-502" value="li" style="ellipse;whiteSpace=wrap;html=1;fillColor=light-dark(#FFFFFF,#000066);strokeColor=light-dark(#000000,#000000);" vertex="1" parent="1">
          <mxGeometry x="460" y="1754" width="40" height="40" as="geometry" />
        </mxCell>
        <mxCell id="DthyEMG1it-dov7D85Fx-513" style="edgeStyle=orthogonalEdgeStyle;rounded=0;orthogonalLoop=1;jettySize=auto;html=1;exitX=0.5;exitY=1;exitDx=0;exitDy=0;entryX=0.5;entryY=0;entryDx=0;entryDy=0;" edge="1" parent="1" source="DthyEMG1it-dov7D85Fx-504" target="DthyEMG1it-dov7D85Fx-506">
          <mxGeometry relative="1" as="geometry" />
        </mxCell>
        <mxCell id="DthyEMG1it-dov7D85Fx-504" value="ol" style="ellipse;whiteSpace=wrap;html=1;fillColor=light-dark(#FFFFFF,#000066);strokeColor=light-dark(#000000,#000000);" vertex="1" parent="1">
          <mxGeometry x="460" y="1810" width="40" height="40" as="geometry" />
        </mxCell>
        <mxCell id="DthyEMG1it-dov7D85Fx-505" style="edgeStyle=orthogonalEdgeStyle;rounded=0;orthogonalLoop=1;jettySize=auto;html=1;exitX=1;exitY=0.5;exitDx=0;exitDy=0;" edge="1" parent="1" source="DthyEMG1it-dov7D85Fx-506" target="DthyEMG1it-dov7D85Fx-507">
          <mxGeometry relative="1" as="geometry" />
        </mxCell>
        <mxCell id="DthyEMG1it-dov7D85Fx-506" value="li" style="ellipse;whiteSpace=wrap;html=1;fillColor=light-dark(#FFFFFF,#000066);strokeColor=light-dark(#000000,#000000);" vertex="1" parent="1">
          <mxGeometry x="460" y="1860" width="40" height="40" as="geometry" />
        </mxCell>
        <mxCell id="DthyEMG1it-dov7D85Fx-514" style="edgeStyle=orthogonalEdgeStyle;rounded=0;orthogonalLoop=1;jettySize=auto;html=1;exitX=0.5;exitY=1;exitDx=0;exitDy=0;" edge="1" parent="1" source="DthyEMG1it-dov7D85Fx-507" target="DthyEMG1it-dov7D85Fx-508">
          <mxGeometry relative="1" as="geometry" />
        </mxCell>
        <mxCell id="DthyEMG1it-dov7D85Fx-507" value="li" style="ellipse;whiteSpace=wrap;html=1;fillColor=light-dark(#FFFFFF,#000066);strokeColor=light-dark(#000000,#000000);" vertex="1" parent="1">
          <mxGeometry x="520" y="1860" width="40" height="40" as="geometry" />
        </mxCell>
        <mxCell id="DthyEMG1it-dov7D85Fx-515" style="edgeStyle=orthogonalEdgeStyle;rounded=0;orthogonalLoop=1;jettySize=auto;html=1;exitX=0.5;exitY=1;exitDx=0;exitDy=0;entryX=0.5;entryY=0;entryDx=0;entryDy=0;" edge="1" parent="1" source="DthyEMG1it-dov7D85Fx-508" target="DthyEMG1it-dov7D85Fx-510">
          <mxGeometry relative="1" as="geometry" />
        </mxCell>
        <mxCell id="DthyEMG1it-dov7D85Fx-508" value="ol" style="ellipse;whiteSpace=wrap;html=1;fillColor=light-dark(#FFFFFF,#000066);strokeColor=light-dark(#000000,#000000);" vertex="1" parent="1">
          <mxGeometry x="520" y="1910" width="40" height="40" as="geometry" />
        </mxCell>
        <mxCell id="DthyEMG1it-dov7D85Fx-509" style="edgeStyle=orthogonalEdgeStyle;rounded=0;orthogonalLoop=1;jettySize=auto;html=1;exitX=1;exitY=0.5;exitDx=0;exitDy=0;" edge="1" parent="1" source="DthyEMG1it-dov7D85Fx-510" target="DthyEMG1it-dov7D85Fx-511">
          <mxGeometry relative="1" as="geometry" />
        </mxCell>
        <mxCell id="DthyEMG1it-dov7D85Fx-510" value="li" style="ellipse;whiteSpace=wrap;html=1;fillColor=light-dark(#FFFFFF,#000066);strokeColor=light-dark(#000000,#000000);" vertex="1" parent="1">
          <mxGeometry x="520" y="1960" width="40" height="40" as="geometry" />
        </mxCell>
        <mxCell id="DthyEMG1it-dov7D85Fx-511" value="li" style="ellipse;whiteSpace=wrap;html=1;fillColor=light-dark(#FFFFFF,#000066);strokeColor=light-dark(#000000,#000000);" vertex="1" parent="1">
          <mxGeometry x="580" y="1960" width="40" height="40" as="geometry" />
        </mxCell>
        <mxCell id="DthyEMG1it-dov7D85Fx-516" style="edgeStyle=orthogonalEdgeStyle;rounded=0;orthogonalLoop=1;jettySize=auto;html=1;exitX=1;exitY=0.5;exitDx=0;exitDy=0;entryX=0;entryY=0.5;entryDx=0;entryDy=0;" edge="1" parent="1" source="DthyEMG1it-dov7D85Fx-517" target="DthyEMG1it-dov7D85Fx-518">
          <mxGeometry relative="1" as="geometry" />
        </mxCell>
        <mxCell id="DthyEMG1it-dov7D85Fx-517" value="h4" style="ellipse;whiteSpace=wrap;html=1;fillColor=light-dark(#FFFFFF,#000066);strokeColor=light-dark(#000000,#000000);" vertex="1" parent="1">
          <mxGeometry x="300" y="1270" width="40" height="40" as="geometry" />
        </mxCell>
        <mxCell id="DthyEMG1it-dov7D85Fx-525" style="edgeStyle=orthogonalEdgeStyle;rounded=0;orthogonalLoop=1;jettySize=auto;html=1;exitX=0.5;exitY=1;exitDx=0;exitDy=0;" edge="1" parent="1" source="DthyEMG1it-dov7D85Fx-518" target="DthyEMG1it-dov7D85Fx-521">
          <mxGeometry relative="1" as="geometry" />
        </mxCell>
        <mxCell id="DthyEMG1it-dov7D85Fx-518" value="ul" style="ellipse;whiteSpace=wrap;html=1;fillColor=light-dark(#FFFFFF,#000066);strokeColor=light-dark(#000000,#000000);" vertex="1" parent="1">
          <mxGeometry x="350" y="1270" width="40" height="40" as="geometry" />
        </mxCell>
        <mxCell id="DthyEMG1it-dov7D85Fx-520" style="edgeStyle=orthogonalEdgeStyle;rounded=0;orthogonalLoop=1;jettySize=auto;html=1;exitX=1;exitY=0.5;exitDx=0;exitDy=0;entryX=0;entryY=0.5;entryDx=0;entryDy=0;" edge="1" parent="1" source="DthyEMG1it-dov7D85Fx-521" target="DthyEMG1it-dov7D85Fx-524">
          <mxGeometry relative="1" as="geometry" />
        </mxCell>
        <mxCell id="DthyEMG1it-dov7D85Fx-533" style="edgeStyle=orthogonalEdgeStyle;rounded=0;orthogonalLoop=1;jettySize=auto;html=1;exitX=0.5;exitY=1;exitDx=0;exitDy=0;entryX=0.5;entryY=0;entryDx=0;entryDy=0;" edge="1" parent="1" source="DthyEMG1it-dov7D85Fx-521" target="DthyEMG1it-dov7D85Fx-532">
          <mxGeometry relative="1" as="geometry" />
        </mxCell>
        <mxCell id="DthyEMG1it-dov7D85Fx-521" value="li" style="ellipse;whiteSpace=wrap;html=1;fillColor=light-dark(#FFFFFF,#000066);strokeColor=light-dark(#000000,#000000);" vertex="1" parent="1">
          <mxGeometry x="350" y="1910" width="40" height="40" as="geometry" />
        </mxCell>
        <mxCell id="DthyEMG1it-dov7D85Fx-522" value="li" style="ellipse;whiteSpace=wrap;html=1;fillColor=light-dark(#FFFFFF,#000066);strokeColor=light-dark(#000000,#000000);" vertex="1" parent="1">
          <mxGeometry x="460" y="1910" width="40" height="40" as="geometry" />
        </mxCell>
        <mxCell id="DthyEMG1it-dov7D85Fx-523" style="edgeStyle=orthogonalEdgeStyle;rounded=0;orthogonalLoop=1;jettySize=auto;html=1;exitX=1;exitY=0.5;exitDx=0;exitDy=0;entryX=0;entryY=0.5;entryDx=0;entryDy=0;" edge="1" parent="1" source="DthyEMG1it-dov7D85Fx-524" target="DthyEMG1it-dov7D85Fx-522">
          <mxGeometry relative="1" as="geometry" />
        </mxCell>
        <mxCell id="DthyEMG1it-dov7D85Fx-530" style="edgeStyle=orthogonalEdgeStyle;rounded=0;orthogonalLoop=1;jettySize=auto;html=1;exitX=0.5;exitY=1;exitDx=0;exitDy=0;entryX=0.5;entryY=0;entryDx=0;entryDy=0;" edge="1" parent="1" source="DthyEMG1it-dov7D85Fx-524" target="DthyEMG1it-dov7D85Fx-526">
          <mxGeometry relative="1" as="geometry" />
        </mxCell>
        <mxCell id="DthyEMG1it-dov7D85Fx-524" value="li" style="ellipse;whiteSpace=wrap;html=1;fillColor=light-dark(#FFFFFF,#000066);strokeColor=light-dark(#000000,#000000);" vertex="1" parent="1">
          <mxGeometry x="400" y="1910" width="40" height="40" as="geometry" />
        </mxCell>
        <mxCell id="DthyEMG1it-dov7D85Fx-531" style="edgeStyle=orthogonalEdgeStyle;rounded=0;orthogonalLoop=1;jettySize=auto;html=1;exitX=0.5;exitY=1;exitDx=0;exitDy=0;entryX=0.5;entryY=0;entryDx=0;entryDy=0;" edge="1" parent="1" source="DthyEMG1it-dov7D85Fx-526" target="DthyEMG1it-dov7D85Fx-528">
          <mxGeometry relative="1" as="geometry" />
        </mxCell>
        <mxCell id="DthyEMG1it-dov7D85Fx-526" value="ul" style="ellipse;whiteSpace=wrap;html=1;fillColor=light-dark(#FFFFFF,#000066);strokeColor=light-dark(#000000,#000000);" vertex="1" parent="1">
          <mxGeometry x="400" y="1960" width="40" height="40" as="geometry" />
        </mxCell>
        <mxCell id="DthyEMG1it-dov7D85Fx-527" style="edgeStyle=orthogonalEdgeStyle;rounded=0;orthogonalLoop=1;jettySize=auto;html=1;exitX=1;exitY=0.5;exitDx=0;exitDy=0;" edge="1" parent="1" source="DthyEMG1it-dov7D85Fx-528" target="DthyEMG1it-dov7D85Fx-529">
          <mxGeometry relative="1" as="geometry" />
        </mxCell>
        <mxCell id="DthyEMG1it-dov7D85Fx-528" value="li" style="ellipse;whiteSpace=wrap;html=1;fillColor=light-dark(#FFFFFF,#000066);strokeColor=light-dark(#000000,#000000);" vertex="1" parent="1">
          <mxGeometry x="400" y="2010" width="40" height="40" as="geometry" />
        </mxCell>
        <mxCell id="DthyEMG1it-dov7D85Fx-529" value="li" style="ellipse;whiteSpace=wrap;html=1;fillColor=light-dark(#FFFFFF,#000066);strokeColor=light-dark(#000000,#000000);" vertex="1" parent="1">
          <mxGeometry x="460" y="2010" width="40" height="40" as="geometry" />
        </mxCell>
        <mxCell id="DthyEMG1it-dov7D85Fx-537" style="edgeStyle=orthogonalEdgeStyle;rounded=0;orthogonalLoop=1;jettySize=auto;html=1;exitX=0.5;exitY=1;exitDx=0;exitDy=0;" edge="1" parent="1" source="DthyEMG1it-dov7D85Fx-532" target="DthyEMG1it-dov7D85Fx-535">
          <mxGeometry relative="1" as="geometry" />
        </mxCell>
        <mxCell id="DthyEMG1it-dov7D85Fx-532" value="ul" style="ellipse;whiteSpace=wrap;html=1;fillColor=light-dark(#FFFFFF,#000066);strokeColor=light-dark(#000000,#000000);" vertex="1" parent="1">
          <mxGeometry x="350" y="1960" width="40" height="40" as="geometry" />
        </mxCell>
        <mxCell id="DthyEMG1it-dov7D85Fx-534" style="edgeStyle=orthogonalEdgeStyle;rounded=0;orthogonalLoop=1;jettySize=auto;html=1;exitX=1;exitY=0.5;exitDx=0;exitDy=0;" edge="1" parent="1" source="DthyEMG1it-dov7D85Fx-535" target="DthyEMG1it-dov7D85Fx-536">
          <mxGeometry relative="1" as="geometry" />
        </mxCell>
        <mxCell id="DthyEMG1it-dov7D85Fx-542" style="edgeStyle=orthogonalEdgeStyle;rounded=0;orthogonalLoop=1;jettySize=auto;html=1;exitX=0.5;exitY=1;exitDx=0;exitDy=0;entryX=0.5;entryY=0;entryDx=0;entryDy=0;" edge="1" parent="1" source="DthyEMG1it-dov7D85Fx-535" target="DthyEMG1it-dov7D85Fx-538">
          <mxGeometry relative="1" as="geometry" />
        </mxCell>
        <mxCell id="DthyEMG1it-dov7D85Fx-535" value="li" style="ellipse;whiteSpace=wrap;html=1;fillColor=light-dark(#FFFFFF,#000066);strokeColor=light-dark(#000000,#000000);" vertex="1" parent="1">
          <mxGeometry x="350" y="2060" width="40" height="40" as="geometry" />
        </mxCell>
        <mxCell id="DthyEMG1it-dov7D85Fx-536" value="li" style="ellipse;whiteSpace=wrap;html=1;fillColor=light-dark(#FFFFFF,#000066);strokeColor=light-dark(#000000,#000000);" vertex="1" parent="1">
          <mxGeometry x="400" y="2060" width="40" height="40" as="geometry" />
        </mxCell>
        <mxCell id="DthyEMG1it-dov7D85Fx-543" style="edgeStyle=orthogonalEdgeStyle;rounded=0;orthogonalLoop=1;jettySize=auto;html=1;exitX=0.5;exitY=1;exitDx=0;exitDy=0;entryX=0.5;entryY=0;entryDx=0;entryDy=0;" edge="1" parent="1" source="DthyEMG1it-dov7D85Fx-538" target="DthyEMG1it-dov7D85Fx-540">
          <mxGeometry relative="1" as="geometry" />
        </mxCell>
        <mxCell id="DthyEMG1it-dov7D85Fx-538" value="ul" style="ellipse;whiteSpace=wrap;html=1;fillColor=light-dark(#FFFFFF,#000066);strokeColor=light-dark(#000000,#000000);" vertex="1" parent="1">
          <mxGeometry x="350" y="2110" width="40" height="40" as="geometry" />
        </mxCell>
        <mxCell id="DthyEMG1it-dov7D85Fx-539" style="edgeStyle=orthogonalEdgeStyle;rounded=0;orthogonalLoop=1;jettySize=auto;html=1;exitX=1;exitY=0.5;exitDx=0;exitDy=0;" edge="1" parent="1" source="DthyEMG1it-dov7D85Fx-540" target="DthyEMG1it-dov7D85Fx-541">
          <mxGeometry relative="1" as="geometry" />
        </mxCell>
        <mxCell id="DthyEMG1it-dov7D85Fx-545" style="edgeStyle=orthogonalEdgeStyle;rounded=0;orthogonalLoop=1;jettySize=auto;html=1;exitX=0.5;exitY=1;exitDx=0;exitDy=0;" edge="1" parent="1" source="DthyEMG1it-dov7D85Fx-540" target="DthyEMG1it-dov7D85Fx-544">
          <mxGeometry relative="1" as="geometry" />
        </mxCell>
        <mxCell id="DthyEMG1it-dov7D85Fx-540" value="li" style="ellipse;whiteSpace=wrap;html=1;fillColor=light-dark(#FFFFFF,#000066);strokeColor=light-dark(#000000,#000000);" vertex="1" parent="1">
          <mxGeometry x="350" y="2160" width="40" height="40" as="geometry" />
        </mxCell>
        <mxCell id="DthyEMG1it-dov7D85Fx-541" value="li" style="ellipse;whiteSpace=wrap;html=1;fillColor=light-dark(#FFFFFF,#000066);strokeColor=light-dark(#000000,#000000);" vertex="1" parent="1">
          <mxGeometry x="400" y="2160" width="40" height="40" as="geometry" />
        </mxCell>
        <mxCell id="DthyEMG1it-dov7D85Fx-549" style="edgeStyle=orthogonalEdgeStyle;rounded=0;orthogonalLoop=1;jettySize=auto;html=1;exitX=0.5;exitY=1;exitDx=0;exitDy=0;" edge="1" parent="1" source="DthyEMG1it-dov7D85Fx-544" target="DthyEMG1it-dov7D85Fx-547">
          <mxGeometry relative="1" as="geometry" />
        </mxCell>
        <mxCell id="DthyEMG1it-dov7D85Fx-544" value="ul" style="ellipse;whiteSpace=wrap;html=1;fillColor=light-dark(#FFFFFF,#000066);strokeColor=light-dark(#000000,#000000);" vertex="1" parent="1">
          <mxGeometry x="350" y="2210" width="40" height="40" as="geometry" />
        </mxCell>
        <mxCell id="DthyEMG1it-dov7D85Fx-546" style="edgeStyle=orthogonalEdgeStyle;rounded=0;orthogonalLoop=1;jettySize=auto;html=1;exitX=1;exitY=0.5;exitDx=0;exitDy=0;" edge="1" parent="1" source="DthyEMG1it-dov7D85Fx-547" target="DthyEMG1it-dov7D85Fx-548">
          <mxGeometry relative="1" as="geometry" />
        </mxCell>
        <mxCell id="DthyEMG1it-dov7D85Fx-551" style="edgeStyle=orthogonalEdgeStyle;rounded=0;orthogonalLoop=1;jettySize=auto;html=1;exitX=0.5;exitY=1;exitDx=0;exitDy=0;entryX=0.5;entryY=0;entryDx=0;entryDy=0;" edge="1" parent="1" source="DthyEMG1it-dov7D85Fx-547" target="DthyEMG1it-dov7D85Fx-550">
          <mxGeometry relative="1" as="geometry" />
        </mxCell>
        <mxCell id="DthyEMG1it-dov7D85Fx-547" value="li" style="ellipse;whiteSpace=wrap;html=1;fillColor=light-dark(#FFFFFF,#000066);strokeColor=light-dark(#000000,#000000);" vertex="1" parent="1">
          <mxGeometry x="350" y="2260" width="40" height="40" as="geometry" />
        </mxCell>
        <mxCell id="DthyEMG1it-dov7D85Fx-548" value="li" style="ellipse;whiteSpace=wrap;html=1;fillColor=light-dark(#FFFFFF,#000066);strokeColor=light-dark(#000000,#000000);" vertex="1" parent="1">
          <mxGeometry x="400" y="2260" width="40" height="40" as="geometry" />
        </mxCell>
        <mxCell id="DthyEMG1it-dov7D85Fx-555" style="edgeStyle=orthogonalEdgeStyle;rounded=0;orthogonalLoop=1;jettySize=auto;html=1;exitX=0.5;exitY=1;exitDx=0;exitDy=0;" edge="1" parent="1" source="DthyEMG1it-dov7D85Fx-550" target="DthyEMG1it-dov7D85Fx-553">
          <mxGeometry relative="1" as="geometry" />
        </mxCell>
        <mxCell id="DthyEMG1it-dov7D85Fx-550" value="ul" style="ellipse;whiteSpace=wrap;html=1;fillColor=light-dark(#FFFFFF,#000066);strokeColor=light-dark(#000000,#000000);" vertex="1" parent="1">
          <mxGeometry x="350" y="2310" width="40" height="40" as="geometry" />
        </mxCell>
        <mxCell id="DthyEMG1it-dov7D85Fx-552" style="edgeStyle=orthogonalEdgeStyle;rounded=0;orthogonalLoop=1;jettySize=auto;html=1;exitX=1;exitY=0.5;exitDx=0;exitDy=0;" edge="1" parent="1" source="DthyEMG1it-dov7D85Fx-553" target="DthyEMG1it-dov7D85Fx-554">
          <mxGeometry relative="1" as="geometry" />
        </mxCell>
        <mxCell id="DthyEMG1it-dov7D85Fx-557" style="edgeStyle=orthogonalEdgeStyle;rounded=0;orthogonalLoop=1;jettySize=auto;html=1;exitX=0.5;exitY=1;exitDx=0;exitDy=0;entryX=0.5;entryY=0;entryDx=0;entryDy=0;" edge="1" parent="1" source="DthyEMG1it-dov7D85Fx-553" target="DthyEMG1it-dov7D85Fx-556">
          <mxGeometry relative="1" as="geometry" />
        </mxCell>
        <mxCell id="DthyEMG1it-dov7D85Fx-553" value="li" style="ellipse;whiteSpace=wrap;html=1;fillColor=light-dark(#FFFFFF,#000066);strokeColor=light-dark(#000000,#000000);" vertex="1" parent="1">
          <mxGeometry x="350" y="2360" width="40" height="40" as="geometry" />
        </mxCell>
        <mxCell id="DthyEMG1it-dov7D85Fx-554" value="li" style="ellipse;whiteSpace=wrap;html=1;fillColor=light-dark(#FFFFFF,#000066);strokeColor=light-dark(#000000,#000000);" vertex="1" parent="1">
          <mxGeometry x="400" y="2360" width="40" height="40" as="geometry" />
        </mxCell>
        <mxCell id="DthyEMG1it-dov7D85Fx-561" style="edgeStyle=orthogonalEdgeStyle;rounded=0;orthogonalLoop=1;jettySize=auto;html=1;exitX=0.5;exitY=1;exitDx=0;exitDy=0;entryX=0.5;entryY=0;entryDx=0;entryDy=0;" edge="1" parent="1" source="DthyEMG1it-dov7D85Fx-556" target="DthyEMG1it-dov7D85Fx-558">
          <mxGeometry relative="1" as="geometry" />
        </mxCell>
        <mxCell id="DthyEMG1it-dov7D85Fx-556" value="ul" style="ellipse;whiteSpace=wrap;html=1;fillColor=light-dark(#FFFFFF,#000066);strokeColor=light-dark(#000000,#000000);" vertex="1" parent="1">
          <mxGeometry x="350" y="2410" width="40" height="40" as="geometry" />
        </mxCell>
        <mxCell id="DthyEMG1it-dov7D85Fx-562" style="edgeStyle=orthogonalEdgeStyle;rounded=0;orthogonalLoop=1;jettySize=auto;html=1;exitX=1;exitY=0.5;exitDx=0;exitDy=0;entryX=0;entryY=0.5;entryDx=0;entryDy=0;" edge="1" parent="1" source="DthyEMG1it-dov7D85Fx-558" target="DthyEMG1it-dov7D85Fx-559">
          <mxGeometry relative="1" as="geometry" />
        </mxCell>
        <mxCell id="DthyEMG1it-dov7D85Fx-558" value="li" style="ellipse;whiteSpace=wrap;html=1;fillColor=light-dark(#FFFFFF,#000066);strokeColor=light-dark(#000000,#000000);" vertex="1" parent="1">
          <mxGeometry x="350" y="2460" width="40" height="40" as="geometry" />
        </mxCell>
        <mxCell id="DthyEMG1it-dov7D85Fx-563" style="edgeStyle=orthogonalEdgeStyle;rounded=0;orthogonalLoop=1;jettySize=auto;html=1;exitX=1;exitY=0.5;exitDx=0;exitDy=0;entryX=0;entryY=0.5;entryDx=0;entryDy=0;" edge="1" parent="1" source="DthyEMG1it-dov7D85Fx-559" target="DthyEMG1it-dov7D85Fx-560">
          <mxGeometry relative="1" as="geometry" />
        </mxCell>
        <mxCell id="DthyEMG1it-dov7D85Fx-559" value="li" style="ellipse;whiteSpace=wrap;html=1;fillColor=light-dark(#FFFFFF,#000066);strokeColor=light-dark(#000000,#000000);" vertex="1" parent="1">
          <mxGeometry x="400" y="2460" width="40" height="40" as="geometry" />
        </mxCell>
        <mxCell id="DthyEMG1it-dov7D85Fx-560" value="li" style="ellipse;whiteSpace=wrap;html=1;fillColor=light-dark(#FFFFFF,#000066);strokeColor=light-dark(#000000,#000000);" vertex="1" parent="1">
          <mxGeometry x="450" y="2460" width="40" height="40" as="geometry" />
        </mxCell>
        <mxCell id="DthyEMG1it-dov7D85Fx-564" value="h3" style="ellipse;whiteSpace=wrap;html=1;fillColor=light-dark(#FFFFFF,#000066);strokeColor=light-dark(#000000,#000000);" vertex="1" parent="1">
          <mxGeometry x="250" y="1330" width="40" height="40" as="geometry" />
        </mxCell>
        <mxCell id="DthyEMG1it-dov7D85Fx-566" value="p" style="ellipse;whiteSpace=wrap;html=1;fillColor=light-dark(#FFFFFF,#000066);strokeColor=light-dark(#000000,#000000);" vertex="1" parent="1">
          <mxGeometry x="300" y="1330" width="40" height="40" as="geometry" />
        </mxCell>
      </root>
    </mxGraphModel>
  </diagram>
</mxfile>
